<svg width="397" height="14" viewBox="0 0 397 14" fill="none" xmlns="http://www.w3.org/2000/svg">
<path d="M1.71777 7.10352V11H0.405273V1.04688H4.07617C5.16536 1.04688 6.01758 1.32487 6.63281 1.88086C7.2526 2.43685 7.5625 3.17285 7.5625 4.08887C7.5625 5.05501 7.25944 5.80013 6.65332 6.32422C6.05176 6.84375 5.18815 7.10352 4.0625 7.10352H1.71777ZM1.71777 6.03027H4.07617C4.77799 6.03027 5.31576 5.86621 5.68945 5.53809C6.06315 5.2054 6.25 4.72689 6.25 4.10254C6.25 3.51009 6.06315 3.03613 5.68945 2.68066C5.31576 2.3252 4.80306 2.14062 4.15137 2.12695H1.71777V6.03027ZM13.5234 11C13.4505 10.8542 13.3913 10.5944 13.3457 10.2207C12.7578 10.8314 12.056 11.1367 11.2402 11.1367C10.5111 11.1367 9.91178 10.9316 9.44238 10.5215C8.97754 10.1068 8.74512 9.58268 8.74512 8.94922C8.74512 8.17904 9.03678 7.58203 9.62012 7.1582C10.208 6.72982 11.0329 6.51562 12.0947 6.51562H13.3252V5.93457C13.3252 5.49251 13.193 5.1416 12.9287 4.88184C12.6644 4.61751 12.2747 4.48535 11.7598 4.48535C11.3086 4.48535 10.9303 4.59928 10.625 4.82715C10.3197 5.05501 10.167 5.33073 10.167 5.6543H8.89551C8.89551 5.28516 9.02539 4.92969 9.28516 4.58789C9.54948 4.24154 9.90495 3.9681 10.3516 3.76758C10.8027 3.56706 11.2972 3.4668 11.835 3.4668C12.6872 3.4668 13.3548 3.68099 13.8379 4.10938C14.321 4.5332 14.5716 5.11882 14.5898 5.86621V9.27051C14.5898 9.94954 14.6764 10.4896 14.8496 10.8906V11H13.5234ZM11.4248 10.0361C11.8213 10.0361 12.1973 9.93359 12.5527 9.72852C12.9082 9.52344 13.1657 9.25684 13.3252 8.92871V7.41113H12.334C10.7845 7.41113 10.0098 7.86458 10.0098 8.77148C10.0098 9.16797 10.1419 9.47786 10.4062 9.70117C10.6706 9.92448 11.0101 10.0361 11.4248 10.0361ZM20.6396 5.62695C20.6396 5.2806 20.5075 5.00716 20.2432 4.80664C19.9788 4.60156 19.6165 4.49902 19.1562 4.49902C18.7096 4.49902 18.3359 4.61523 18.0352 4.84766C17.7389 5.08008 17.5908 5.35352 17.5908 5.66797H16.333C16.333 5.02539 16.6019 4.49902 17.1396 4.08887C17.6774 3.67871 18.3496 3.47363 19.1562 3.47363C20.0221 3.47363 20.6966 3.66048 21.1797 4.03418C21.6628 4.40332 21.9043 4.93197 21.9043 5.62012C21.9043 5.9528 21.804 6.25814 21.6035 6.53613C21.403 6.81413 21.1182 7.03516 20.749 7.19922C21.6104 7.49089 22.041 8.0651 22.041 8.92188C22.041 9.60091 21.779 10.1387 21.2549 10.5352C20.7308 10.9316 20.0312 11.1299 19.1562 11.1299C18.304 11.1299 17.5999 10.9225 17.0439 10.5078C16.4925 10.0885 16.2168 9.52344 16.2168 8.8125H17.4746C17.4746 9.17253 17.6341 9.48242 17.9531 9.74219C18.2767 9.9974 18.6777 10.125 19.1562 10.125C19.6393 10.125 20.029 10.0133 20.3252 9.79004C20.6214 9.56673 20.7695 9.27734 20.7695 8.92188C20.7695 8.50716 20.6442 8.21094 20.3936 8.0332C20.1475 7.85091 19.7624 7.75977 19.2383 7.75977H17.9736V6.69336H19.3477C20.209 6.67057 20.6396 6.3151 20.6396 5.62695ZM29.9297 7.38379C29.9297 8.50944 29.6722 9.41634 29.1572 10.1045C28.6423 10.7926 27.945 11.1367 27.0654 11.1367C26.1676 11.1367 25.4613 10.8519 24.9463 10.2822V13.8438H23.6816V3.60352H24.8369L24.8984 4.42383C25.4134 3.78581 26.1289 3.4668 27.0449 3.4668C27.9336 3.4668 28.6354 3.80176 29.1504 4.47168C29.6699 5.1416 29.9297 6.07357 29.9297 7.26758V7.38379ZM28.665 7.24023C28.665 6.40625 28.4873 5.74772 28.1318 5.26465C27.7764 4.78158 27.2887 4.54004 26.6689 4.54004C25.9033 4.54004 25.3291 4.87956 24.9463 5.55859V9.09277C25.3245 9.76725 25.9033 10.1045 26.6826 10.1045C27.2887 10.1045 27.7695 9.86523 28.125 9.38672C28.485 8.90365 28.665 8.18815 28.665 7.24023ZM36.1094 11C36.0365 10.8542 35.9772 10.5944 35.9316 10.2207C35.3438 10.8314 34.6419 11.1367 33.8262 11.1367C33.097 11.1367 32.4977 10.9316 32.0283 10.5215C31.5635 10.1068 31.3311 9.58268 31.3311 8.94922C31.3311 8.17904 31.6227 7.58203 32.2061 7.1582C32.7939 6.72982 33.6188 6.51562 34.6807 6.51562H35.9111V5.93457C35.9111 5.49251 35.779 5.1416 35.5146 4.88184C35.2503 4.61751 34.8607 4.48535 34.3457 4.48535C33.8945 4.48535 33.5163 4.59928 33.2109 4.82715C32.9056 5.05501 32.7529 5.33073 32.7529 5.6543H31.4814C31.4814 5.28516 31.6113 4.92969 31.8711 4.58789C32.1354 4.24154 32.4909 3.9681 32.9375 3.76758C33.3887 3.56706 33.8831 3.4668 34.4209 3.4668C35.2731 3.4668 35.9408 3.68099 36.4238 4.10938C36.9069 4.5332 37.1576 5.11882 37.1758 5.86621V9.27051C37.1758 9.94954 37.2624 10.4896 37.4355 10.8906V11H36.1094ZM34.0107 10.0361C34.4072 10.0361 34.7832 9.93359 35.1387 9.72852C35.4941 9.52344 35.7516 9.25684 35.9111 8.92871V7.41113H34.9199C33.3704 7.41113 32.5957 7.86458 32.5957 8.77148C32.5957 9.16797 32.7279 9.47786 32.9922 9.70117C33.2565 9.92448 33.596 10.0361 34.0107 10.0361ZM42.4053 4.02734C43.335 4.02734 44.0778 4.33952 44.6338 4.96387C45.1943 5.58366 45.4746 6.40169 45.4746 7.41797V7.53418C45.4746 8.23145 45.3402 8.85579 45.0713 9.40723C44.8024 9.9541 44.415 10.3802 43.9092 10.6855C43.4079 10.9863 42.8291 11.1367 42.1729 11.1367C41.1794 11.1367 40.3796 10.8063 39.7734 10.1455C39.1673 9.48014 38.8643 8.58919 38.8643 7.47266V6.85742C38.8643 5.30339 39.1514 4.06836 39.7256 3.15234C40.3044 2.23633 41.1566 1.67806 42.2822 1.47754C42.9202 1.36361 43.3509 1.22461 43.5742 1.06055C43.7975 0.896484 43.9092 0.670898 43.9092 0.383789H44.9482C44.9482 0.953451 44.8184 1.39779 44.5586 1.7168C44.3034 2.03581 43.8932 2.26139 43.3281 2.39355L42.3848 2.60547C41.6328 2.7832 41.0677 3.08398 40.6895 3.50781C40.3158 3.92708 40.0719 4.48763 39.958 5.18945C40.6279 4.41471 41.4437 4.02734 42.4053 4.02734ZM42.1592 5.06641C41.5394 5.06641 41.0472 5.27604 40.6826 5.69531C40.318 6.11003 40.1357 6.68652 40.1357 7.4248V7.53418C40.1357 8.32715 40.318 8.95605 40.6826 9.4209C41.0518 9.88118 41.5485 10.1113 42.1729 10.1113C42.8018 10.1113 43.2985 9.87891 43.6631 9.41406C44.0277 8.94922 44.21 8.27018 44.21 7.37695C44.21 6.67969 44.0254 6.12142 43.6562 5.70215C43.2917 5.27832 42.7926 5.06641 42.1592 5.06641ZM46.5615 7.2334C46.5615 6.50879 46.7028 5.8571 46.9854 5.27832C47.2725 4.69954 47.6689 4.25293 48.1748 3.93848C48.6852 3.62402 49.2663 3.4668 49.918 3.4668C50.9251 3.4668 51.7386 3.81543 52.3584 4.5127C52.9827 5.20996 53.2949 6.13737 53.2949 7.29492V7.38379C53.2949 8.10384 53.1559 8.75098 52.8779 9.3252C52.6045 9.89486 52.2103 10.3392 51.6953 10.6582C51.1849 10.9772 50.597 11.1367 49.9316 11.1367C48.929 11.1367 48.1156 10.7881 47.4912 10.0908C46.8714 9.39355 46.5615 8.4707 46.5615 7.32227V7.2334ZM47.833 7.38379C47.833 8.2041 48.0221 8.86263 48.4004 9.35938C48.7832 9.85612 49.2936 10.1045 49.9316 10.1045C50.5742 10.1045 51.0846 9.85384 51.4629 9.35254C51.8411 8.84668 52.0303 8.1403 52.0303 7.2334C52.0303 6.4222 51.8366 5.76595 51.4492 5.26465C51.0664 4.75879 50.556 4.50586 49.918 4.50586C49.2936 4.50586 48.79 4.75423 48.4072 5.25098C48.0244 5.74772 47.833 6.45866 47.833 7.38379ZM60.2266 4.62891H57.7451V11H56.4805V4.62891H54.0469V3.60352H60.2266V4.62891ZM65.9141 11C65.8411 10.8542 65.7819 10.5944 65.7363 10.2207C65.1484 10.8314 64.4466 11.1367 63.6309 11.1367C62.9017 11.1367 62.3024 10.9316 61.833 10.5215C61.3682 10.1068 61.1357 9.58268 61.1357 8.94922C61.1357 8.17904 61.4274 7.58203 62.0107 7.1582C62.5986 6.72982 63.4235 6.51562 64.4854 6.51562H65.7158V5.93457C65.7158 5.49251 65.5837 5.1416 65.3193 4.88184C65.055 4.61751 64.6654 4.48535 64.1504 4.48535C63.6992 4.48535 63.321 4.59928 63.0156 4.82715C62.7103 5.05501 62.5576 5.33073 62.5576 5.6543H61.2861C61.2861 5.28516 61.416 4.92969 61.6758 4.58789C61.9401 4.24154 62.2956 3.9681 62.7422 3.76758C63.1934 3.56706 63.6878 3.4668 64.2256 3.4668C65.0778 3.4668 65.7454 3.68099 66.2285 4.10938C66.7116 4.5332 66.9622 5.11882 66.9805 5.86621V9.27051C66.9805 9.94954 67.0671 10.4896 67.2402 10.8906V11H65.9141ZM63.8154 10.0361C64.2119 10.0361 64.5879 9.93359 64.9434 9.72852C65.2988 9.52344 65.5563 9.25684 65.7158 8.92871V7.41113H64.7246C63.1751 7.41113 62.4004 7.86458 62.4004 8.77148C62.4004 9.16797 62.5326 9.47786 62.7969 9.70117C63.0612 9.92448 63.4007 10.0361 63.8154 10.0361ZM75.0059 11H73.7412V7.8418H70.3438V11H69.0723V3.60352H70.3438V6.80957H73.7412V3.60352H75.0059V11ZM76.708 7.2334C76.708 6.50879 76.8493 5.8571 77.1318 5.27832C77.4189 4.69954 77.8154 4.25293 78.3213 3.93848C78.8317 3.62402 79.4128 3.4668 80.0645 3.4668C81.0716 3.4668 81.8851 3.81543 82.5049 4.5127C83.1292 5.20996 83.4414 6.13737 83.4414 7.29492V7.38379C83.4414 8.10384 83.3024 8.75098 83.0244 9.3252C82.751 9.89486 82.3568 10.3392 81.8418 10.6582C81.3314 10.9772 80.7435 11.1367 80.0781 11.1367C79.0755 11.1367 78.262 10.7881 77.6377 10.0908C77.0179 9.39355 76.708 8.4707 76.708 7.32227V7.2334ZM77.9795 7.38379C77.9795 8.2041 78.1686 8.86263 78.5469 9.35938C78.9297 9.85612 79.4401 10.1045 80.0781 10.1045C80.7207 10.1045 81.2311 9.85384 81.6094 9.35254C81.9876 8.84668 82.1768 8.1403 82.1768 7.2334C82.1768 6.4222 81.9831 5.76595 81.5957 5.26465C81.2129 4.75879 80.7025 4.50586 80.0645 4.50586C79.4401 4.50586 78.9365 4.75423 78.5537 5.25098C78.1709 5.74772 77.9795 6.45866 77.9795 7.38379ZM88.6162 11V3.60352H91.501C92.4854 3.60352 93.2396 3.77669 93.7637 4.12305C94.2923 4.46484 94.5566 4.96842 94.5566 5.63379C94.5566 5.97559 94.4541 6.28548 94.249 6.56348C94.0439 6.83691 93.7409 7.04655 93.3398 7.19238C93.7865 7.2972 94.1442 7.50228 94.4131 7.80762C94.6865 8.11296 94.8232 8.47754 94.8232 8.90137C94.8232 9.5804 94.5726 10.0999 94.0713 10.46C93.5745 10.82 92.8704 11 91.959 11H88.6162ZM89.8809 7.75293V9.98145H91.9727C92.5013 9.98145 92.8955 9.88346 93.1553 9.6875C93.4196 9.49154 93.5518 9.21582 93.5518 8.86035C93.5518 8.12207 93.0094 7.75293 91.9248 7.75293H89.8809ZM89.8809 6.74121H91.5146C92.6995 6.74121 93.292 6.39486 93.292 5.70215C93.292 5.00944 92.7314 4.65169 91.6104 4.62891H89.8809V6.74121ZM105.665 8.40234H101.495L100.559 11H99.2051L103.006 1.04688H104.154L107.962 11H106.615L105.665 8.40234ZM101.892 7.32227H105.275L103.58 2.66699L101.892 7.32227ZM109.302 11V1.04688H112.556C113.636 1.04688 114.447 1.27018 114.989 1.7168C115.536 2.16341 115.81 2.82422 115.81 3.69922C115.81 4.16406 115.677 4.5765 115.413 4.93652C115.149 5.29199 114.789 5.56771 114.333 5.76367C114.871 5.91406 115.295 6.20117 115.604 6.625C115.919 7.04427 116.076 7.54557 116.076 8.12891C116.076 9.02214 115.787 9.72396 115.208 10.2344C114.629 10.7448 113.811 11 112.754 11H109.302ZM110.614 6.34473V9.92676H112.781C113.392 9.92676 113.873 9.76953 114.224 9.45508C114.579 9.13607 114.757 8.69857 114.757 8.14258C114.757 6.94401 114.105 6.34473 112.802 6.34473H110.614ZM110.614 5.29199H112.597C113.171 5.29199 113.629 5.14844 113.971 4.86133C114.317 4.57422 114.49 4.18457 114.49 3.69238C114.49 3.14551 114.331 2.74902 114.012 2.50293C113.693 2.25228 113.207 2.12695 112.556 2.12695H110.614V5.29199ZM125.346 7.8418C125.223 8.89453 124.833 9.70801 124.177 10.2822C123.525 10.8519 122.657 11.1367 121.572 11.1367C120.396 11.1367 119.453 10.7152 118.742 9.87207C118.036 9.02897 117.683 7.90104 117.683 6.48828V5.53125C117.683 4.60612 117.847 3.79264 118.175 3.09082C118.507 2.389 118.977 1.85124 119.583 1.47754C120.189 1.09928 120.891 0.910156 121.688 0.910156C122.746 0.910156 123.593 1.20638 124.231 1.79883C124.869 2.38672 125.241 3.20247 125.346 4.24609H124.026C123.912 3.45312 123.664 2.87891 123.281 2.52344C122.903 2.16797 122.372 1.99023 121.688 1.99023C120.85 1.99023 120.191 2.30013 119.713 2.91992C119.239 3.53971 119.002 4.42155 119.002 5.56543V6.5293C119.002 7.60938 119.228 8.46842 119.679 9.10645C120.13 9.74447 120.761 10.0635 121.572 10.0635C122.301 10.0635 122.86 9.89941 123.247 9.57129C123.639 9.23861 123.899 8.66211 124.026 7.8418H125.346ZM130.616 11V1.04688H133.426C134.292 1.04688 135.057 1.23828 135.723 1.62109C136.388 2.00391 136.901 2.5485 137.261 3.25488C137.625 3.96126 137.81 4.77246 137.814 5.68848V6.32422C137.814 7.26302 137.632 8.08561 137.268 8.79199C136.908 9.49837 136.39 10.0407 135.716 10.4189C135.046 10.7972 134.264 10.9909 133.371 11H130.616ZM131.929 2.12695V9.92676H133.31C134.321 9.92676 135.107 9.6123 135.668 8.9834C136.233 8.35449 136.516 7.45898 136.516 6.29688V5.71582C136.516 4.58561 136.249 3.70833 135.716 3.08398C135.187 2.45508 134.435 2.13607 133.46 2.12695H131.929ZM145.43 6.39941H141.116V9.92676H146.127V11H139.804V1.04688H146.059V2.12695H141.116V5.32617H145.43V6.39941ZM150.693 6.56348C149.568 6.23991 148.747 5.84342 148.232 5.37402C147.722 4.90007 147.467 4.31673 147.467 3.62402C147.467 2.84017 147.779 2.19303 148.403 1.68262C149.032 1.16764 149.848 0.910156 150.851 0.910156C151.534 0.910156 152.143 1.04232 152.676 1.30664C153.214 1.57096 153.628 1.93555 153.92 2.40039C154.216 2.86523 154.364 3.37337 154.364 3.9248H153.045C153.045 3.32324 152.854 2.85156 152.471 2.50977C152.088 2.16341 151.548 1.99023 150.851 1.99023C150.203 1.99023 149.698 2.13379 149.333 2.4209C148.973 2.70345 148.793 3.09766 148.793 3.60352C148.793 4.00911 148.964 4.35319 149.306 4.63574C149.652 4.91374 150.238 5.16895 151.062 5.40137C151.892 5.63379 152.539 5.89128 153.004 6.17383C153.473 6.45182 153.82 6.77767 154.043 7.15137C154.271 7.52507 154.385 7.96484 154.385 8.4707C154.385 9.27734 154.07 9.92448 153.441 10.4121C152.812 10.8952 151.972 11.1367 150.919 11.1367C150.235 11.1367 149.597 11.0068 149.005 10.7471C148.412 10.4827 147.954 10.1227 147.631 9.66699C147.312 9.21126 147.152 8.69401 147.152 8.11523H148.472C148.472 8.7168 148.693 9.19303 149.135 9.54395C149.581 9.8903 150.176 10.0635 150.919 10.0635C151.612 10.0635 152.143 9.9222 152.512 9.63965C152.881 9.3571 153.065 8.97201 153.065 8.48438C153.065 7.99674 152.895 7.62077 152.553 7.35645C152.211 7.08757 151.591 6.82324 150.693 6.56348ZM157.481 11H156.169V1.04688H157.481V11ZM167.236 9.69434C166.899 10.1774 166.427 10.5397 165.821 10.7812C165.22 11.0182 164.518 11.1367 163.716 11.1367C162.905 11.1367 162.185 10.9476 161.556 10.5693C160.927 10.1865 160.439 9.64421 160.093 8.94238C159.751 8.24056 159.576 7.42708 159.566 6.50195V5.63379C159.566 4.13444 159.915 2.97233 160.612 2.14746C161.314 1.32259 162.299 0.910156 163.565 0.910156C164.604 0.910156 165.441 1.17676 166.074 1.70996C166.708 2.23861 167.095 2.99056 167.236 3.96582H165.924C165.678 2.64876 164.894 1.99023 163.572 1.99023C162.693 1.99023 162.025 2.30013 161.569 2.91992C161.118 3.53516 160.89 4.42839 160.886 5.59961V6.41309C160.886 7.52962 161.141 8.41829 161.651 9.0791C162.162 9.73535 162.852 10.0635 163.723 10.0635C164.215 10.0635 164.646 10.0088 165.015 9.89941C165.384 9.79004 165.689 9.60547 165.931 9.3457V7.11035H163.627V6.04395H167.236V9.69434ZM177.08 11H175.761L170.75 3.33008V11H169.431V1.04688H170.75L175.774 8.75098V1.04688H177.08V11ZM185.317 7.28809H181.981V6.25586H185.317V7.28809ZM192.994 10.1045C193.445 10.1045 193.84 9.96777 194.177 9.69434C194.514 9.4209 194.701 9.0791 194.737 8.66895H195.934C195.911 9.09277 195.765 9.49609 195.496 9.87891C195.227 10.2617 194.867 10.5671 194.416 10.7949C193.969 11.0228 193.495 11.1367 192.994 11.1367C191.987 11.1367 191.185 10.8018 190.588 10.1318C189.995 9.45736 189.699 8.53678 189.699 7.37012V7.1582C189.699 6.43815 189.831 5.79785 190.096 5.2373C190.36 4.67676 190.738 4.24154 191.23 3.93164C191.727 3.62174 192.313 3.4668 192.987 3.4668C193.817 3.4668 194.505 3.71517 195.052 4.21191C195.603 4.70866 195.897 5.35352 195.934 6.14648H194.737C194.701 5.66797 194.519 5.27604 194.19 4.9707C193.867 4.66081 193.466 4.50586 192.987 4.50586C192.345 4.50586 191.846 4.73828 191.49 5.20312C191.139 5.66341 190.964 6.33105 190.964 7.20605V7.44531C190.964 8.29753 191.139 8.95378 191.49 9.41406C191.841 9.87435 192.342 10.1045 192.994 10.1045ZM197.021 7.2334C197.021 6.50879 197.162 5.8571 197.444 5.27832C197.731 4.69954 198.128 4.25293 198.634 3.93848C199.144 3.62402 199.725 3.4668 200.377 3.4668C201.384 3.4668 202.198 3.81543 202.817 4.5127C203.442 5.20996 203.754 6.13737 203.754 7.29492V7.38379C203.754 8.10384 203.615 8.75098 203.337 9.3252C203.063 9.89486 202.669 10.3392 202.154 10.6582C201.644 10.9772 201.056 11.1367 200.391 11.1367C199.388 11.1367 198.575 10.7881 197.95 10.0908C197.33 9.39355 197.021 8.4707 197.021 7.32227V7.2334ZM198.292 7.38379C198.292 8.2041 198.481 8.86263 198.859 9.35938C199.242 9.85612 199.753 10.1045 200.391 10.1045C201.033 10.1045 201.544 9.85384 201.922 9.35254C202.3 8.84668 202.489 8.1403 202.489 7.2334C202.489 6.4222 202.296 5.76595 201.908 5.26465C201.525 4.75879 201.015 4.50586 200.377 4.50586C199.753 4.50586 199.249 4.75423 198.866 5.25098C198.483 5.74772 198.292 6.45866 198.292 7.38379ZM209.407 5.62695C209.407 5.2806 209.275 5.00716 209.011 4.80664C208.746 4.60156 208.384 4.49902 207.924 4.49902C207.477 4.49902 207.104 4.61523 206.803 4.84766C206.507 5.08008 206.358 5.35352 206.358 5.66797H205.101C205.101 5.02539 205.369 4.49902 205.907 4.08887C206.445 3.67871 207.117 3.47363 207.924 3.47363C208.79 3.47363 209.464 3.66048 209.947 4.03418C210.43 4.40332 210.672 4.93197 210.672 5.62012C210.672 5.9528 210.572 6.25814 210.371 6.53613C210.171 6.81413 209.886 7.03516 209.517 7.19922C210.378 7.49089 210.809 8.0651 210.809 8.92188C210.809 9.60091 210.547 10.1387 210.022 10.5352C209.498 10.9316 208.799 11.1299 207.924 11.1299C207.072 11.1299 206.368 10.9225 205.812 10.5078C205.26 10.0885 204.984 9.52344 204.984 8.8125H206.242C206.242 9.17253 206.402 9.48242 206.721 9.74219C207.044 9.9974 207.445 10.125 207.924 10.125C208.407 10.125 208.797 10.0133 209.093 9.79004C209.389 9.56673 209.537 9.27734 209.537 8.92188C209.537 8.50716 209.412 8.21094 209.161 8.0332C208.915 7.85091 208.53 7.75977 208.006 7.75977H206.741V6.69336H208.115C208.977 6.67057 209.407 6.3151 209.407 5.62695ZM212.388 9.96777L212.825 9.42773C213.317 8.78971 213.598 7.83268 213.666 6.55664L213.782 3.60352H218.547V9.96777H219.497V13.1738H218.232V11H213.071V13.1738H211.807L211.813 9.96777H212.388ZM213.885 9.96777H217.282V4.77246H215.006L214.931 6.53613C214.853 8.00814 214.505 9.15202 213.885 9.96777ZM225.465 11C225.392 10.8542 225.333 10.5944 225.287 10.2207C224.699 10.8314 223.997 11.1367 223.182 11.1367C222.452 11.1367 221.853 10.9316 221.384 10.5215C220.919 10.1068 220.687 9.58268 220.687 8.94922C220.687 8.17904 220.978 7.58203 221.562 7.1582C222.149 6.72982 222.974 6.51562 224.036 6.51562H225.267V5.93457C225.267 5.49251 225.134 5.1416 224.87 4.88184C224.606 4.61751 224.216 4.48535 223.701 4.48535C223.25 4.48535 222.872 4.59928 222.566 4.82715C222.261 5.05501 222.108 5.33073 222.108 5.6543H220.837C220.837 5.28516 220.967 4.92969 221.227 4.58789C221.491 4.24154 221.846 3.9681 222.293 3.76758C222.744 3.56706 223.239 3.4668 223.776 3.4668C224.629 3.4668 225.296 3.68099 225.779 4.10938C226.262 4.5332 226.513 5.11882 226.531 5.86621V9.27051C226.531 9.94954 226.618 10.4896 226.791 10.8906V11H225.465ZM223.366 10.0361C223.763 10.0361 224.139 9.93359 224.494 9.72852C224.85 9.52344 225.107 9.25684 225.267 8.92871V7.41113H224.275C222.726 7.41113 221.951 7.86458 221.951 8.77148C221.951 9.16797 222.083 9.47786 222.348 9.70117C222.612 9.92448 222.951 10.0361 223.366 10.0361ZM234.557 11H233.292V7.8418H229.895V11H228.623V3.60352H229.895V6.80957H233.292V3.60352H234.557V11ZM241.379 3.60352H242.644V11H241.379V5.60645L237.968 11H236.703V3.60352H237.968V9.00391L241.379 3.60352ZM247.743 11.1367C246.741 11.1367 245.925 10.8086 245.296 10.1523C244.667 9.49154 244.353 8.6097 244.353 7.50684V7.27441C244.353 6.54069 244.492 5.88672 244.77 5.3125C245.052 4.73372 245.444 4.28255 245.945 3.95898C246.451 3.63086 246.998 3.4668 247.586 3.4668C248.548 3.4668 249.295 3.78353 249.828 4.41699C250.361 5.05046 250.628 5.95736 250.628 7.1377V7.66406H245.617C245.635 8.39323 245.847 8.9834 246.253 9.43457C246.663 9.88118 247.183 10.1045 247.812 10.1045C248.258 10.1045 248.636 10.0133 248.946 9.83105C249.256 9.64876 249.527 9.40723 249.76 9.10645L250.532 9.70801C249.912 10.6605 248.983 11.1367 247.743 11.1367ZM247.586 4.50586C247.076 4.50586 246.647 4.69271 246.301 5.06641C245.954 5.43555 245.74 5.95508 245.658 6.625H249.363V6.5293C249.327 5.88672 249.154 5.38997 248.844 5.03906C248.534 4.68359 248.115 4.50586 247.586 4.50586ZM258.537 10.1045C258.988 10.1045 259.382 9.96777 259.72 9.69434C260.057 9.4209 260.244 9.0791 260.28 8.66895H261.477C261.454 9.09277 261.308 9.49609 261.039 9.87891C260.77 10.2617 260.41 10.5671 259.959 10.7949C259.512 11.0228 259.038 11.1367 258.537 11.1367C257.53 11.1367 256.728 10.8018 256.131 10.1318C255.538 9.45736 255.242 8.53678 255.242 7.37012V7.1582C255.242 6.43815 255.374 5.79785 255.639 5.2373C255.903 4.67676 256.281 4.24154 256.773 3.93164C257.27 3.62174 257.856 3.4668 258.53 3.4668C259.36 3.4668 260.048 3.71517 260.595 4.21191C261.146 4.70866 261.44 5.35352 261.477 6.14648H260.28C260.244 5.66797 260.062 5.27604 259.733 4.9707C259.41 4.66081 259.009 4.50586 258.53 4.50586C257.888 4.50586 257.389 4.73828 257.033 5.20312C256.682 5.66341 256.507 6.33105 256.507 7.20605V7.44531C256.507 8.29753 256.682 8.95378 257.033 9.41406C257.384 9.87435 257.885 10.1045 258.537 10.1045ZM267.465 11C267.392 10.8542 267.333 10.5944 267.287 10.2207C266.699 10.8314 265.997 11.1367 265.182 11.1367C264.452 11.1367 263.853 10.9316 263.384 10.5215C262.919 10.1068 262.687 9.58268 262.687 8.94922C262.687 8.17904 262.978 7.58203 263.562 7.1582C264.149 6.72982 264.974 6.51562 266.036 6.51562H267.267V5.93457C267.267 5.49251 267.134 5.1416 266.87 4.88184C266.606 4.61751 266.216 4.48535 265.701 4.48535C265.25 4.48535 264.872 4.59928 264.566 4.82715C264.261 5.05501 264.108 5.33073 264.108 5.6543H262.837C262.837 5.28516 262.967 4.92969 263.227 4.58789C263.491 4.24154 263.846 3.9681 264.293 3.76758C264.744 3.56706 265.239 3.4668 265.776 3.4668C266.629 3.4668 267.296 3.68099 267.779 4.10938C268.262 4.5332 268.513 5.11882 268.531 5.86621V9.27051C268.531 9.94954 268.618 10.4896 268.791 10.8906V11H267.465ZM265.366 10.0361C265.763 10.0361 266.139 9.93359 266.494 9.72852C266.85 9.52344 267.107 9.25684 267.267 8.92871V7.41113H266.275C264.726 7.41113 263.951 7.86458 263.951 8.77148C263.951 9.16797 264.083 9.47786 264.348 9.70117C264.612 9.92448 264.951 10.0361 265.366 10.0361ZM275.299 3.60352H276.563V11H275.299V5.60645L271.888 11H270.623V3.60352H271.888V9.00391L275.299 3.60352ZM275.641 0.910156C275.641 1.46159 275.451 1.90592 275.073 2.24316C274.7 2.57585 274.207 2.74219 273.597 2.74219C272.986 2.74219 272.492 2.57357 272.113 2.23633C271.735 1.89909 271.546 1.45703 271.546 0.910156H272.578C272.578 1.22917 272.665 1.47982 272.838 1.66211C273.011 1.83984 273.264 1.92871 273.597 1.92871C273.916 1.92871 274.164 1.83984 274.342 1.66211C274.524 1.48438 274.615 1.23372 274.615 0.910156H275.641ZM284.09 4.62891H281.608V11H280.344V4.62891H277.91V3.60352H284.09V4.62891ZM284.698 7.2334C284.698 6.50879 284.84 5.8571 285.122 5.27832C285.409 4.69954 285.806 4.25293 286.312 3.93848C286.822 3.62402 287.403 3.4668 288.055 3.4668C289.062 3.4668 289.875 3.81543 290.495 4.5127C291.119 5.20996 291.432 6.13737 291.432 7.29492V7.38379C291.432 8.10384 291.293 8.75098 291.015 9.3252C290.741 9.89486 290.347 10.3392 289.832 10.6582C289.322 10.9772 288.734 11.1367 288.068 11.1367C287.066 11.1367 286.252 10.7881 285.628 10.0908C285.008 9.39355 284.698 8.4707 284.698 7.32227V7.2334ZM285.97 7.38379C285.97 8.2041 286.159 8.86263 286.537 9.35938C286.92 9.85612 287.43 10.1045 288.068 10.1045C288.711 10.1045 289.221 9.85384 289.6 9.35254C289.978 8.84668 290.167 8.1403 290.167 7.2334C290.167 6.4222 289.973 5.76595 289.586 5.26465C289.203 4.75879 288.693 4.50586 288.055 4.50586C287.43 4.50586 286.927 4.75423 286.544 5.25098C286.161 5.74772 285.97 6.45866 285.97 7.38379ZM293.134 11V3.60352H296.019C297.003 3.60352 297.757 3.77669 298.281 4.12305C298.81 4.46484 299.074 4.96842 299.074 5.63379C299.074 5.97559 298.972 6.28548 298.767 6.56348C298.562 6.83691 298.258 7.04655 297.857 7.19238C298.304 7.2972 298.662 7.50228 298.931 7.80762C299.204 8.11296 299.341 8.47754 299.341 8.90137C299.341 9.5804 299.09 10.0999 298.589 10.46C298.092 10.82 297.388 11 296.477 11H293.134ZM294.398 7.75293V9.98145H296.49C297.019 9.98145 297.413 9.88346 297.673 9.6875C297.937 9.49154 298.069 9.21582 298.069 8.86035C298.069 8.12207 297.527 7.75293 296.442 7.75293H294.398ZM294.398 6.74121H296.032C297.217 6.74121 297.81 6.39486 297.81 5.70215C297.81 5.00944 297.249 4.65169 296.128 4.62891H294.398V6.74121ZM304.604 11V3.60352H307.489C308.474 3.60352 309.228 3.77669 309.752 4.12305C310.281 4.46484 310.545 4.96842 310.545 5.63379C310.545 5.97559 310.442 6.28548 310.237 6.56348C310.032 6.83691 309.729 7.04655 309.328 7.19238C309.775 7.2972 310.132 7.50228 310.401 7.80762C310.675 8.11296 310.812 8.47754 310.812 8.90137C310.812 9.5804 310.561 10.0999 310.06 10.46C309.563 10.82 308.859 11 307.947 11H304.604ZM305.869 7.75293V9.98145H307.961C308.49 9.98145 308.884 9.88346 309.144 9.6875C309.408 9.49154 309.54 9.21582 309.54 8.86035C309.54 8.12207 308.998 7.75293 307.913 7.75293H305.869ZM305.869 6.74121H307.503C308.688 6.74121 309.28 6.39486 309.28 5.70215C309.28 5.00944 308.72 4.65169 307.599 4.62891H305.869V6.74121ZM323.807 11H322.487V6.39941H317.47V11H316.157V1.04688H317.47V5.32617H322.487V1.04688H323.807V11ZM328.359 9.14746L330.082 3.60352H331.436L328.462 12.1416C328.002 13.3721 327.27 13.9873 326.268 13.9873L326.028 13.9668L325.557 13.8779V12.8525L325.898 12.8799C326.327 12.8799 326.66 12.7933 326.896 12.6201C327.138 12.4469 327.336 12.1302 327.491 11.6699L327.771 10.918L325.133 3.60352H326.514L328.359 9.14746ZM338.818 7.38379C338.818 8.50944 338.561 9.41634 338.046 10.1045C337.531 10.7926 336.834 11.1367 335.954 11.1367C335.056 11.1367 334.35 10.8519 333.835 10.2822V13.8438H332.57V3.60352H333.726L333.787 4.42383C334.302 3.78581 335.018 3.4668 335.934 3.4668C336.822 3.4668 337.524 3.80176 338.039 4.47168C338.559 5.1416 338.818 6.07357 338.818 7.26758V7.38379ZM337.554 7.24023C337.554 6.40625 337.376 5.74772 337.021 5.26465C336.665 4.78158 336.177 4.54004 335.558 4.54004C334.792 4.54004 334.218 4.87956 333.835 5.55859V9.09277C334.213 9.76725 334.792 10.1045 335.571 10.1045C336.177 10.1045 336.658 9.86523 337.014 9.38672C337.374 8.90365 337.554 8.18815 337.554 7.24023ZM343.063 7.28809H339.728V6.25586H343.063V7.28809ZM351.82 7.8418C351.697 8.89453 351.308 9.70801 350.651 10.2822C350 10.8519 349.132 11.1367 348.047 11.1367C346.871 11.1367 345.928 10.7152 345.217 9.87207C344.51 9.02897 344.157 7.90104 344.157 6.48828V5.53125C344.157 4.60612 344.321 3.79264 344.649 3.09082C344.982 2.389 345.451 1.85124 346.058 1.47754C346.664 1.09928 347.366 0.910156 348.163 0.910156C349.22 0.910156 350.068 1.20638 350.706 1.79883C351.344 2.38672 351.715 3.20247 351.82 4.24609H350.501C350.387 3.45312 350.139 2.87891 349.756 2.52344C349.378 2.16797 348.847 1.99023 348.163 1.99023C347.325 1.99023 346.666 2.30013 346.188 2.91992C345.714 3.53971 345.477 4.42155 345.477 5.56543V6.5293C345.477 7.60938 345.702 8.46842 346.153 9.10645C346.604 9.74447 347.236 10.0635 348.047 10.0635C348.776 10.0635 349.334 9.89941 349.722 9.57129C350.114 9.23861 350.373 8.66211 350.501 7.8418H351.82ZM355.84 9.14746L357.562 3.60352H358.916L355.942 12.1416C355.482 13.3721 354.751 13.9873 353.748 13.9873L353.509 13.9668L353.037 13.8779V12.8525L353.379 12.8799C353.807 12.8799 354.14 12.7933 354.377 12.6201C354.618 12.4469 354.817 12.1302 354.972 11.6699L355.252 10.918L352.613 3.60352H353.994L355.84 9.14746ZM365.827 3.60352V11H364.556V4.64941H362.04L361.89 7.41797C361.808 8.68945 361.593 9.59863 361.247 10.1455C360.905 10.6924 360.361 10.9772 359.613 11H359.107V9.88574L359.47 9.8584C359.88 9.81283 360.174 9.57585 360.352 9.14746C360.529 8.71908 360.643 7.92611 360.693 6.76855L360.83 3.60352H365.827ZM373.354 4.62891H370.872V11H369.607V4.62891H367.174V3.60352H373.354V4.62891ZM379.041 11C378.968 10.8542 378.909 10.5944 378.863 10.2207C378.275 10.8314 377.574 11.1367 376.758 11.1367C376.029 11.1367 375.429 10.9316 374.96 10.5215C374.495 10.1068 374.263 9.58268 374.263 8.94922C374.263 8.17904 374.554 7.58203 375.138 7.1582C375.726 6.72982 376.55 6.51562 377.612 6.51562H378.843V5.93457C378.843 5.49251 378.711 5.1416 378.446 4.88184C378.182 4.61751 377.792 4.48535 377.277 4.48535C376.826 4.48535 376.448 4.59928 376.143 4.82715C375.837 5.05501 375.685 5.33073 375.685 5.6543H374.413C374.413 5.28516 374.543 4.92969 374.803 4.58789C375.067 4.24154 375.423 3.9681 375.869 3.76758C376.32 3.56706 376.815 3.4668 377.353 3.4668C378.205 3.4668 378.872 3.68099 379.355 4.10938C379.839 4.5332 380.089 5.11882 380.107 5.86621V9.27051C380.107 9.94954 380.194 10.4896 380.367 10.8906V11H379.041ZM376.942 10.0361C377.339 10.0361 377.715 9.93359 378.07 9.72852C378.426 9.52344 378.683 9.25684 378.843 8.92871V7.41113H377.852C376.302 7.41113 375.527 7.86458 375.527 8.77148C375.527 9.16797 375.66 9.47786 375.924 9.70117C376.188 9.92448 376.528 10.0361 376.942 10.0361ZM388.133 11H386.868V7.8418H383.471V11H382.199V3.60352H383.471V6.80957H386.868V3.60352H388.133V11ZM393.239 11.1367C392.237 11.1367 391.421 10.8086 390.792 10.1523C390.163 9.49154 389.849 8.6097 389.849 7.50684V7.27441C389.849 6.54069 389.988 5.88672 390.266 5.3125C390.548 4.73372 390.94 4.28255 391.441 3.95898C391.947 3.63086 392.494 3.4668 393.082 3.4668C394.044 3.4668 394.791 3.78353 395.324 4.41699C395.857 5.05046 396.124 5.95736 396.124 7.1377V7.66406H391.113C391.132 8.39323 391.343 8.9834 391.749 9.43457C392.159 9.88118 392.679 10.1045 393.308 10.1045C393.754 10.1045 394.132 10.0133 394.442 9.83105C394.752 9.64876 395.023 9.40723 395.256 9.10645L396.028 9.70801C395.409 10.6605 394.479 11.1367 393.239 11.1367ZM393.082 4.50586C392.572 4.50586 392.143 4.69271 391.797 5.06641C391.451 5.43555 391.236 5.95508 391.154 6.625H394.859V6.5293C394.823 5.88672 394.65 5.38997 394.34 5.03906C394.03 4.68359 393.611 4.50586 393.082 4.50586Z" fill="white"/>
</svg>
