<svg width="1366" height="662" viewBox="0 0 1366 662" fill="none" xmlns="http://www.w3.org/2000/svg">
<mask id="mask0" mask-type="alpha" maskUnits="userSpaceOnUse" x="0" y="0" width="1367" height="663">
<rect x="0.25" y="0.683838" width="1366" height="661.316" fill="#C4C4C4"/>
</mask>
<g mask="url(#mask0)">
<path d="M1366 1.00024H0V662H1366V1.00024Z" fill="url(#paint0_linear)"/>
<path d="M108.804 583.728C61.2532 604.162 0.00181026 659.4 0.00181026 659.4L0 712.114L1564 723V-12.9998H1099.53C1064.12 138.057 1083.43 132.7 906.405 172.339C729.377 211.978 656.42 304.112 645.691 439.099C634.962 574.086 472.603 608.723 392.363 594.438C319.016 581.381 210.618 539.975 108.804 583.728Z" fill="url(#paint1_linear)"/>
<path d="M372.967 98.5318C507.194 69.576 535.475 -14.2489 532.837 -52.5419L-18 -72.9998V226C54.8117 84.3687 205.184 134.727 372.967 98.5318Z" fill="url(#paint2_linear)"/>
<path d="M871.78 585.133C871.78 585.133 887.787 550.451 868.798 526.755C849.81 503.058 839.138 516.45 839.138 516.45C806.863 446.668 728.346 483.442 738.703 530.835C738.703 530.835 727.195 526.755 720.395 535.595C713.594 544.383 720.395 553.903 720.395 553.903C720.395 553.903 673.629 557.461 673.629 585.185H871.78V585.133Z" fill="#58BC80"/>
<path d="M1207.35 584.821C1207.35 584.821 1188.72 576.346 1191.5 563.269C1194.27 550.139 1209.39 551.551 1207.35 541.194C1205.31 530.837 1195.37 514.725 1205.04 503.008C1214.72 491.29 1230.78 498.3 1232.77 480.148C1234.39 465.501 1241.14 455.144 1254.27 458.178C1266.4 461.003 1275.45 470.419 1275.71 492.755C1275.98 516.556 1292.72 509.86 1292.92 527.437C1293.13 545.117 1279.06 545.117 1273.57 556.939C1270.95 562.537 1277.75 582.205 1257.72 584.873H1207.35V584.821Z" fill="#00A551"/>
<path d="M1252.23 467.645C1252.23 467.645 1252.28 468.064 1252.34 468.848C1252.54 471.202 1252.96 476.904 1252.96 484.855C1252.96 508.133 1249.3 550.661 1226.13 584.61C1225.81 585.081 1225.92 585.709 1226.39 586.023C1226.86 586.337 1227.49 586.232 1227.8 585.761C1251.34 551.237 1255 508.342 1255 484.855C1255 474.132 1254.22 467.436 1254.22 467.436C1254.17 466.861 1253.64 466.494 1253.12 466.547C1252.6 466.599 1252.18 467.07 1252.23 467.645Z" fill="#495CA8"/>
<path d="M1229.74 584.82C1229.74 584.82 1226.81 568.656 1237.79 562.065C1248.78 555.474 1259.97 550.347 1258.77 539.728C1257.56 529.109 1260.55 516.607 1278.12 516.346C1289 516.189 1284.92 504.733 1295.96 502.431C1302.66 501.019 1307.1 508.028 1307.94 514.933C1308.93 522.78 1304.49 530.47 1309.56 536.851C1316.15 545.116 1318.87 560.548 1304.64 564.942C1285.81 570.748 1310.45 586.18 1256.62 589.894L1229.74 584.82Z" fill="#58BC80"/>
<path d="M1295.18 510.173C1294.81 520.479 1290.26 535.125 1282.41 549.144C1274.62 563.164 1263.53 576.503 1250.35 584.349C1249.88 584.611 1249.72 585.238 1249.98 585.761C1250.29 586.232 1250.87 586.389 1251.39 586.128C1265.05 578.02 1276.24 564.367 1284.19 550.191C1292.14 535.962 1296.8 521.106 1297.22 510.33C1297.22 509.755 1296.8 509.284 1296.22 509.284C1295.7 509.18 1295.23 509.598 1295.18 510.173Z" fill="#495CA8"/>
<path fill-rule="evenodd" clip-rule="evenodd" d="M556.034 279.591H721.647C731.9 279.591 740.322 287.96 740.322 298.265V384.158C740.322 394.411 731.952 402.833 721.647 402.833H556.034C545.781 402.833 537.359 394.463 537.359 384.158V298.265C537.359 287.96 545.781 279.591 556.034 279.591Z" fill="#62A5E4"/>
<path d="M741.264 332.527H537.359V336.869H741.264V332.527Z" fill="white"/>
<path d="M740.27 342.834H537.359V358.997H740.27V342.834Z" fill="white"/>
<path d="M600.446 383.321H565.346V391.691H600.446V383.321Z" fill="white"/>
<path d="M629.583 383.321H615.041V391.691H629.583V383.321Z" fill="white"/>
<path fill-rule="evenodd" clip-rule="evenodd" d="M550.7 309.513H587.997C589.88 309.513 591.397 311.03 591.397 312.913V321.962C591.397 323.846 589.88 325.363 587.997 325.363H550.7C548.817 325.363 547.3 323.846 547.3 321.962V312.913C547.352 311.082 548.869 309.513 550.7 309.513Z" fill="white"/>
<path fill-rule="evenodd" clip-rule="evenodd" d="M610.698 309.513H647.995C649.878 309.513 651.395 311.03 651.395 312.913V321.962C651.395 323.846 649.878 325.363 647.995 325.363H610.698C608.815 325.363 607.298 323.846 607.298 321.962V312.913C607.35 311.082 608.867 309.513 610.698 309.513Z" fill="white"/>
<path d="M1041.22 160.22H828.732V560.758H1041.22V160.22Z" fill="url(#paint3_linear)"/>
<path d="M1033.94 136H837.307C827.421 136 819.417 144.004 819.417 153.89V567.035C819.417 576.921 827.421 584.925 837.307 584.925H1033.94C1043.83 584.925 1051.83 576.921 1051.83 567.035V153.89C1051.83 144.004 1043.83 136 1033.94 136ZM1038.96 543.077C1038.96 548.203 1034.83 552.336 1029.7 552.336H841.544C836.418 552.336 832.285 548.203 832.285 543.077V177.901C832.285 172.774 836.418 168.642 841.544 168.642H1029.7C1034.83 168.642 1038.96 172.774 1038.96 177.901V543.077Z" fill="#15378B"/>
<path d="M1033.94 584.922H837.307C827.421 584.922 819.417 576.919 819.417 567.032V153.888C819.417 149.546 820.934 145.571 823.497 142.484L837.412 169.581C834.378 171.098 832.233 174.236 832.233 177.898V543.074C832.233 548.201 836.366 552.333 841.492 552.333H1029.65C1031.01 552.333 1032.32 552.019 1033.52 551.496L1047.49 578.645C1044.25 582.516 1039.38 584.922 1033.94 584.922Z" fill="#15378B"/>
<path d="M920.531 156.035C918.491 156.035 916.817 154.361 916.817 152.321C916.817 150.28 918.491 148.607 920.531 148.607C922.572 148.607 924.245 150.28 924.245 152.321C924.245 154.361 922.572 156.035 920.531 156.035Z" fill="white"/>
<path d="M967.348 152.322C967.348 150.334 965.308 148.712 962.85 148.712H933.295C930.784 148.712 928.796 150.334 928.796 152.322C928.796 154.309 930.836 155.931 933.295 155.931H962.85C965.308 155.931 967.348 154.309 967.348 152.322Z" fill="white"/>
<path fill-rule="evenodd" clip-rule="evenodd" d="M513.924 584.455H1318.3C1320.49 584.455 1322.22 586.234 1322.22 588.379C1322.22 590.576 1320.44 592.302 1318.3 592.302H513.924C511.727 592.302 510.001 590.523 510.001 588.379C509.949 586.234 511.727 584.455 513.924 584.455Z" fill="#15378B"/>
<path fill-rule="evenodd" clip-rule="evenodd" d="M865.553 256.733H908.918C919.59 256.733 928.378 265.468 928.378 276.192V319.557C928.378 330.228 919.642 339.016 908.918 339.016H865.553C854.882 339.016 846.094 330.281 846.094 319.557V276.14C846.094 265.468 854.83 256.733 865.553 256.733Z" fill="white"/>
<path fill-rule="evenodd" clip-rule="evenodd" d="M865.553 354.604H908.918C919.59 354.604 928.378 363.34 928.378 374.063V417.428C928.378 428.099 919.642 436.887 908.918 436.887H865.553C854.882 436.887 846.094 428.152 846.094 417.428V374.063C846.094 363.34 854.83 354.604 865.553 354.604Z" fill="white"/>
<path d="M887.209 322.38H868.273L869.738 291.465L863.251 299.207L854.725 290C854.725 290 865.867 276.295 867.907 275.197C869.947 274.098 879.049 273.366 879.049 273.366C879.206 276.295 881.455 281.055 887.209 281.055C892.963 281.055 895.16 276.295 895.369 273.366C895.369 273.366 904.471 274.098 906.512 275.197C908.499 276.295 919.694 290 919.694 290L911.167 299.207L904.733 291.465L906.198 322.38H887.209Z" fill="#EE8C21"/>
<path d="M867.174 370.821C860.739 377.046 861.733 384.003 864.087 392.163C866.389 400.271 867.383 415.86 867.383 415.86H873.032C873.032 415.86 872.352 398.597 876.328 397.29C880.303 395.982 887.679 410.89 889.144 413.244C890.609 415.546 893.695 415.86 897.147 415.86C900.6 415.86 917.234 415.86 917.234 415.86C917.234 415.86 923.093 411.309 912.422 406.13C905.517 402.782 904.261 401.945 904.261 401.945C904.261 401.945 895.212 401.579 885.691 392.163C881.977 388.501 877.479 378.458 874.131 374.849C870.364 370.821 867.174 370.821 867.174 370.821Z" fill="#0094D9"/>
<path fill-rule="evenodd" clip-rule="evenodd" d="M950.244 365.064H1019.03C1024.79 365.064 1029.55 369.771 1029.55 375.578C1029.55 381.332 1024.84 386.092 1019.03 386.092H950.244C944.49 386.092 939.73 381.384 939.73 375.578C939.73 369.771 944.438 365.064 950.244 365.064Z" fill="#EF5B72"/>
<path d="M994.184 371.709C994.132 371.604 994.132 371.552 994.184 371.5C994.237 371.447 994.289 371.395 994.341 371.395H996.225C996.277 371.395 996.381 371.395 996.434 371.447C996.486 371.5 996.538 371.552 996.591 371.604L997.898 375.423C997.898 375.475 997.951 375.528 998.003 375.528C998.055 375.528 998.108 375.475 998.108 375.423L999.363 371.604C999.363 371.552 999.415 371.447 999.52 371.395C999.572 371.343 999.677 371.343 999.729 371.343H1001.25C1001.35 371.343 1001.4 371.343 1001.46 371.395C1001.51 371.447 1001.56 371.5 1001.61 371.604L1002.87 375.423C1002.87 375.475 1002.92 375.528 1002.97 375.528C1003.02 375.528 1003.08 375.475 1003.13 375.423L1004.44 371.604C1004.49 371.552 1004.54 371.5 1004.59 371.447C1004.65 371.395 1004.75 371.395 1004.8 371.395H1006.63C1006.74 371.395 1006.79 371.447 1006.79 371.5C1006.84 371.552 1006.84 371.657 1006.79 371.709L1004.02 379.503C1003.97 379.555 1003.91 379.66 1003.86 379.712C1003.81 379.765 1003.7 379.765 1003.65 379.765H1002.19C1002.08 379.765 1002.03 379.765 1001.98 379.712C1001.93 379.66 1001.87 379.608 1001.82 379.503L1000.57 375.684C1000.57 375.632 1000.51 375.58 1000.46 375.58C1000.41 375.58 1000.36 375.632 1000.36 375.684L999.102 379.503C999.102 379.555 999.049 379.66 998.945 379.712C998.892 379.765 998.788 379.765 998.735 379.765H997.271C997.166 379.765 997.114 379.712 997.061 379.66C997.009 379.608 996.957 379.555 996.957 379.503L994.184 371.709ZM987.803 375.528C987.803 375.841 987.855 376.103 987.959 376.364C988.064 376.626 988.221 376.835 988.378 377.045C988.587 377.254 988.797 377.411 989.058 377.515C989.32 377.62 989.581 377.672 989.843 377.672C990.104 377.672 990.366 377.62 990.627 377.515C990.889 377.411 991.098 377.254 991.307 377.045C991.517 376.835 991.621 376.626 991.778 376.364C991.883 376.103 991.935 375.841 991.935 375.528C991.935 375.266 991.883 374.952 991.778 374.691C991.674 374.429 991.517 374.22 991.307 374.011C991.098 373.801 990.889 373.644 990.627 373.54C990.366 373.435 990.104 373.383 989.843 373.383C989.581 373.383 989.32 373.435 989.058 373.54C988.797 373.644 988.587 373.801 988.378 374.011C988.169 374.22 988.064 374.429 987.959 374.691C987.855 375.004 987.803 375.266 987.803 375.528ZM985.501 375.528C985.501 374.952 985.606 374.377 985.867 373.854C986.076 373.33 986.39 372.86 986.809 372.494C987.175 372.127 987.646 371.814 988.169 371.552C988.692 371.343 989.267 371.186 989.843 371.186C990.418 371.186 990.994 371.29 991.517 371.552C992.04 371.761 992.51 372.075 992.877 372.494C993.243 372.912 993.557 373.33 993.818 373.854C994.028 374.377 994.184 374.952 994.184 375.528C994.184 376.103 994.08 376.678 993.818 377.201C993.609 377.725 993.295 378.195 992.877 378.561C992.51 378.928 992.04 379.242 991.517 379.503C990.994 379.712 990.418 379.869 989.843 379.869C989.267 379.869 988.692 379.765 988.169 379.503C987.646 379.294 987.175 378.98 986.809 378.561C986.443 378.143 986.129 377.725 985.867 377.201C985.606 376.678 985.501 376.155 985.501 375.528ZM984.612 371.657V379.451C984.612 379.503 984.559 379.608 984.507 379.66C984.455 379.712 984.402 379.765 984.298 379.765H982.624C982.572 379.765 982.467 379.765 982.362 379.712C982.258 379.66 982.205 379.608 982.153 379.555L979.171 375.371C979.119 375.318 979.067 375.266 979.014 375.318C978.962 375.371 978.962 375.371 978.962 375.475V379.555C978.962 379.608 978.91 379.712 978.858 379.765C978.805 379.817 978.753 379.869 978.648 379.869H976.922C976.87 379.869 976.765 379.817 976.713 379.765C976.661 379.712 976.608 379.66 976.608 379.555V371.761C976.608 371.709 976.661 371.604 976.713 371.552C976.765 371.5 976.817 371.447 976.922 371.447H978.648C978.701 371.447 978.805 371.447 978.91 371.5C979.015 371.552 979.067 371.604 979.119 371.657L982.101 375.841C982.153 375.894 982.205 375.946 982.258 375.946C982.31 375.946 982.31 375.894 982.31 375.841V371.761C982.31 371.709 982.31 371.604 982.415 371.552C982.467 371.5 982.519 371.447 982.624 371.447H984.298C984.35 371.447 984.455 371.5 984.507 371.552C984.612 371.5 984.612 371.552 984.612 371.657ZM972.319 371.709L969.442 376.312C969.389 376.364 969.389 376.469 969.337 376.574C969.285 376.678 969.285 376.783 969.285 376.835V379.451C969.285 379.503 969.233 379.608 969.18 379.66C969.128 379.712 969.076 379.765 968.971 379.765H967.245C967.192 379.765 967.088 379.712 967.035 379.66C966.983 379.608 966.931 379.555 966.931 379.451V376.835C966.931 376.783 966.931 376.678 966.879 376.574C966.826 376.469 966.826 376.364 966.774 376.312C966.303 375.528 965.832 374.743 965.362 374.011C964.891 373.278 964.42 372.494 963.949 371.657C963.897 371.604 963.897 371.5 963.949 371.447C963.949 371.395 964.002 371.343 964.106 371.343H966.146C966.199 371.343 966.303 371.343 966.355 371.395C966.46 371.447 966.512 371.5 966.512 371.552L967.925 374.011C967.977 374.063 968.029 374.115 968.082 374.115C968.134 374.115 968.186 374.063 968.239 374.011L969.651 371.552C969.703 371.5 969.756 371.447 969.808 371.395C969.913 371.343 969.965 371.343 970.017 371.343H972.057C972.11 371.343 972.214 371.395 972.214 371.447C972.423 371.5 972.371 371.604 972.319 371.709ZM956.626 371.657C956.626 371.604 956.678 371.5 956.73 371.447C956.783 371.395 956.835 371.343 956.94 371.343H958.666C958.718 371.343 958.823 371.395 958.875 371.447C958.927 371.5 958.98 371.552 958.98 371.657V376.26C958.98 376.574 959.032 376.783 959.137 376.992C959.241 377.201 959.346 377.358 959.503 377.463C959.66 377.568 959.817 377.672 959.974 377.672C960.131 377.672 960.288 377.725 960.392 377.725C960.497 377.725 960.654 377.725 960.811 377.672C960.968 377.62 961.124 377.568 961.281 377.463C961.438 377.358 961.543 377.201 961.648 376.992C961.752 376.783 961.804 376.574 961.804 376.26V371.657C961.804 371.604 961.857 371.5 961.909 371.447C961.961 371.395 962.014 371.343 962.118 371.343H963.845C963.897 371.343 964.002 371.395 964.054 371.447C964.106 371.5 964.158 371.552 964.158 371.657V376.26C964.158 376.783 964.054 377.306 963.897 377.725C963.74 378.143 963.478 378.562 963.165 378.875C962.851 379.189 962.485 379.451 962.014 379.608C961.543 379.765 961.072 379.869 960.497 379.869C959.921 379.869 959.451 379.765 958.98 379.608C958.509 379.451 958.143 379.189 957.829 378.875C957.515 378.562 957.254 378.195 957.097 377.725C956.94 377.306 956.835 376.783 956.835 376.26V371.657H956.626ZM952.755 376.417H951.552C951.499 376.417 951.395 376.469 951.342 376.521C951.29 376.574 951.238 376.626 951.238 376.731V377.358C951.238 377.411 951.29 377.515 951.342 377.568C951.395 377.62 951.447 377.672 951.552 377.672H952.807C952.964 377.672 953.069 377.62 953.173 377.515C953.278 377.411 953.33 377.254 953.33 377.097C953.33 376.94 953.278 376.835 953.173 376.678C953.069 376.469 952.912 376.417 952.755 376.417ZM951.552 374.534H952.598C952.755 374.534 952.86 374.481 952.964 374.377C953.069 374.272 953.121 374.115 953.121 373.958C953.121 373.801 953.069 373.697 952.964 373.592C952.86 373.487 952.755 373.435 952.65 373.435H951.552C951.499 373.435 951.395 373.487 951.342 373.54C951.29 373.592 951.238 373.644 951.238 373.749V374.272C951.238 374.324 951.29 374.429 951.342 374.481C951.395 374.534 951.447 374.534 951.552 374.534ZM954.743 375.423C954.847 375.475 955.004 375.58 955.109 375.684C955.213 375.789 955.318 375.894 955.423 376.051C955.527 376.208 955.632 376.364 955.684 376.574C955.737 376.783 955.789 376.992 955.789 377.201C955.789 377.672 955.737 378.091 955.58 378.405C955.423 378.718 955.213 378.98 954.952 379.189C954.69 379.398 954.377 379.503 954.01 379.608C953.644 379.712 953.278 379.712 952.912 379.712H949.302C949.25 379.712 949.145 379.66 949.093 379.608C949.041 379.555 948.989 379.503 948.989 379.398V371.604C948.989 371.552 949.041 371.447 949.093 371.395C949.145 371.343 949.198 371.29 949.302 371.29H952.755C953.121 371.29 953.487 371.343 953.801 371.395C954.115 371.5 954.429 371.604 954.69 371.814C954.952 372.023 955.161 372.232 955.318 372.546C955.475 372.86 955.527 373.174 955.527 373.644C955.527 374.011 955.423 374.272 955.266 374.534C955.109 374.795 954.9 375.004 954.69 375.109C954.586 375.266 954.586 375.318 954.743 375.423Z" fill="white"/>
<path fill-rule="evenodd" clip-rule="evenodd" d="M1017.99 368.203C1021.96 368.203 1025.21 371.446 1025.21 375.422C1025.21 379.397 1021.96 382.641 1017.99 382.641C1014.01 382.641 1010.77 379.397 1010.77 375.422C1010.77 371.446 1014.01 368.203 1017.99 368.203Z" fill="white"/>
<path d="M1016 376.625C1016.31 376.991 1016.63 377.252 1016.94 377.409C1017.25 377.566 1017.57 377.671 1017.88 377.671C1018.14 377.671 1018.35 377.619 1018.56 377.462C1018.72 377.305 1018.82 377.095 1018.82 376.886C1018.82 376.625 1018.77 376.415 1018.61 376.311C1018.46 376.154 1018.14 376.049 1017.62 375.892C1016.83 375.683 1016.26 375.422 1015.95 375.055C1015.63 374.742 1015.47 374.271 1015.47 373.695C1015.47 373.015 1015.68 372.44 1016.15 371.969C1016.57 371.551 1017.2 371.289 1017.99 371.184V370.452H1018.67V371.184C1018.98 371.237 1019.29 371.289 1019.55 371.394C1019.87 371.498 1020.13 371.655 1020.44 371.864L1019.76 373.381C1019.5 373.172 1019.29 373.015 1019.03 372.911C1018.77 372.806 1018.51 372.754 1018.3 372.754C1018.04 372.754 1017.83 372.806 1017.67 372.911C1017.51 373.015 1017.46 373.172 1017.46 373.381C1017.46 373.591 1017.51 373.748 1017.67 373.852C1017.83 373.957 1018.09 374.061 1018.51 374.166H1018.56C1019.45 374.375 1020.03 374.637 1020.29 374.951C1020.5 375.16 1020.6 375.369 1020.71 375.631C1020.81 375.892 1020.86 376.206 1020.86 376.52C1020.86 377.252 1020.65 377.88 1020.18 378.351C1019.71 378.822 1019.14 379.136 1018.4 379.188V380.496H1017.72V379.24C1017.2 379.24 1016.78 379.136 1016.31 378.979C1015.89 378.822 1015.47 378.508 1015.11 378.142L1016 376.625Z" fill="#EF5B72"/>
<path fill-rule="evenodd" clip-rule="evenodd" d="M935.648 168.591C930.783 168.591 925.918 168.591 921.105 168.591C916.241 168.591 911.428 168.591 906.563 168.591C904.575 177.954 902.588 187.266 900.6 196.629C898.612 205.993 896.572 215.304 894.584 224.667C901.437 224.667 908.289 224.667 915.09 224.667C921.942 224.667 928.795 224.667 935.595 224.667C935.595 215.304 935.595 205.993 935.595 196.629C935.648 187.318 935.648 177.954 935.648 168.591Z" fill="white"/>
<path fill-rule="evenodd" clip-rule="evenodd" d="M906.566 168.591C896.888 168.591 887.211 168.591 877.481 168.591C873.506 177.954 869.53 187.266 865.502 196.629C861.527 205.993 857.499 215.304 853.523 224.667C867.176 224.667 880.881 224.667 894.534 224.667C896.522 215.304 898.51 205.993 900.55 196.629C902.59 187.318 904.578 177.954 906.566 168.591Z" fill="#EF5B72"/>
<path fill-rule="evenodd" clip-rule="evenodd" d="M877.479 168.591C867.802 168.591 858.125 168.591 848.447 168.591C842.432 177.954 836.468 187.318 830.505 196.629C824.489 205.993 818.526 215.304 812.51 224.667C826.163 224.667 839.868 224.667 853.521 224.667C857.497 215.304 861.525 205.993 865.5 196.629C869.528 187.318 873.504 177.954 877.479 168.591Z" fill="white"/>
<path fill-rule="evenodd" clip-rule="evenodd" d="M848.449 168.591C838.771 168.591 829.042 168.591 819.416 168.591C811.465 177.954 803.462 187.266 795.458 196.629C787.455 205.993 779.504 215.304 771.5 224.667C785.153 224.667 798.859 224.667 812.512 224.667C818.527 215.304 824.491 205.993 830.506 196.629C836.522 187.318 842.485 177.954 848.449 168.591Z" fill="#EF5B72"/>
<path fill-rule="evenodd" clip-rule="evenodd" d="M894.584 224.664H935.648V231.517C935.648 240.357 923.983 242.345 915.038 242.293C903.372 242.188 894.637 239.782 894.637 231.883V224.664H894.584Z" fill="#E5E6E7"/>
<path fill-rule="evenodd" clip-rule="evenodd" d="M853.523 224.664H894.587V231.517C894.587 240.357 882.921 242.345 873.976 242.293C862.311 242.188 853.576 239.782 853.576 231.883V224.664H853.523Z" fill="#D93955"/>
<path fill-rule="evenodd" clip-rule="evenodd" d="M812.51 224.664H853.574V231.517C853.574 240.357 841.908 242.345 832.963 242.293C821.298 242.188 812.563 239.782 812.563 231.883V224.664H812.51Z" fill="#E5E6E7"/>
<path fill-rule="evenodd" clip-rule="evenodd" d="M771.449 224.664H812.513V231.517C812.513 240.357 800.847 242.345 791.902 242.293C780.237 242.188 771.502 239.782 771.502 231.883V224.664H771.449Z" fill="#D93955"/>
<path fill-rule="evenodd" clip-rule="evenodd" d="M935.648 168.591C940.513 168.591 945.378 168.591 950.191 168.591C955.055 168.591 959.868 168.591 964.733 168.591C966.721 177.954 968.708 187.266 970.749 196.629C972.736 205.993 974.776 215.304 976.764 224.667C969.912 224.667 963.059 224.667 956.259 224.667C949.406 224.667 942.553 224.667 935.753 224.667C935.753 215.304 935.753 205.993 935.753 196.629C935.648 187.318 935.648 177.954 935.648 168.591Z" fill="#EF5B72"/>
<path fill-rule="evenodd" clip-rule="evenodd" d="M964.68 168.591C974.357 168.591 984.087 168.591 993.764 168.591C997.74 177.954 1001.72 187.266 1005.74 196.629C1009.72 205.993 1013.75 215.304 1017.72 224.667C1004.07 224.667 990.364 224.667 976.711 224.667C974.723 215.304 972.735 205.993 970.695 196.629C968.655 187.318 966.667 177.954 964.68 168.591Z" fill="white"/>
<path fill-rule="evenodd" clip-rule="evenodd" d="M993.766 168.591C1003.44 168.591 1013.12 168.591 1022.8 168.591C1028.81 177.954 1034.78 187.318 1040.74 196.629C1046.76 205.993 1052.72 215.304 1058.73 224.667C1045.08 224.667 1031.38 224.667 1017.72 224.667C1013.75 215.304 1009.72 205.993 1005.74 196.629C1001.72 187.318 997.741 177.954 993.766 168.591Z" fill="#EF5B72"/>
<path fill-rule="evenodd" clip-rule="evenodd" d="M1022.8 168.591C1032.47 168.591 1042.15 168.591 1051.83 168.591C1059.78 177.954 1067.78 187.266 1075.79 196.629C1083.79 205.993 1091.74 215.304 1099.75 224.667C1086.09 224.667 1072.39 224.667 1058.73 224.667C1052.72 215.304 1046.76 205.993 1040.74 196.629C1034.72 187.318 1028.76 177.954 1022.8 168.591Z" fill="white"/>
<path fill-rule="evenodd" clip-rule="evenodd" d="M976.661 224.664H935.597V231.517C935.597 240.357 947.262 242.345 956.207 242.293C967.872 242.188 976.608 239.782 976.608 231.883V224.664H976.661Z" fill="#D93955"/>
<path fill-rule="evenodd" clip-rule="evenodd" d="M1017.72 224.664H976.662V231.517C976.662 240.357 988.327 242.345 997.272 242.293C1008.94 242.188 1017.67 239.782 1017.67 231.883V224.664H1017.72Z" fill="#E5E6E7"/>
<path fill-rule="evenodd" clip-rule="evenodd" d="M1058.73 224.664H1017.67V231.517C1017.67 240.357 1029.34 242.345 1038.28 242.293C1049.95 242.188 1058.68 239.782 1058.68 231.883V224.664H1058.73Z" fill="#D93955"/>
<path fill-rule="evenodd" clip-rule="evenodd" d="M1099.8 224.664H1058.74V231.517C1058.74 240.357 1070.4 242.345 1079.35 242.293C1091.01 242.188 1099.75 239.782 1099.75 231.883V224.664H1099.8Z" fill="#E5E6E7"/>
<path fill-rule="evenodd" clip-rule="evenodd" d="M1003.96 407.909H943.965C942.396 407.909 941.088 409.217 941.088 410.786C941.088 412.355 942.396 413.663 943.965 413.663H1003.96C1005.53 413.663 1006.84 412.355 1006.84 410.786C1006.84 409.164 1005.53 407.909 1003.96 407.909ZM1003.96 395.982H943.965C942.396 395.982 941.088 397.29 941.088 398.859C941.088 400.428 942.396 401.736 943.965 401.736H1003.96C1005.53 401.736 1006.84 400.428 1006.84 398.859C1006.84 397.29 1005.53 395.982 1003.96 395.982ZM1026.62 407.909H1015.89C1014.32 407.909 1013.01 409.217 1013.01 410.786C1013.01 412.355 1014.32 413.663 1015.89 413.663H1026.62C1028.18 413.663 1029.49 412.355 1029.49 410.786C1029.49 409.164 1028.18 407.909 1026.62 407.909ZM1003.96 419.783H943.965C942.396 419.783 941.088 421.091 941.088 422.66C941.088 424.229 942.396 425.537 943.965 425.537H1003.96C1005.53 425.537 1006.84 424.229 1006.84 422.66C1006.84 421.091 1005.53 419.783 1003.96 419.783ZM1026.62 419.783H1015.89C1014.32 419.783 1013.01 421.091 1013.01 422.66C1013.01 424.229 1014.32 425.537 1015.89 425.537H1026.62C1028.18 425.537 1029.49 424.229 1029.49 422.66C1029.49 421.091 1028.18 419.783 1026.62 419.783ZM1026.62 395.982H1015.89C1014.32 395.982 1013.01 397.29 1013.01 398.859C1013.01 400.428 1014.32 401.736 1015.89 401.736H1026.62C1028.18 401.736 1029.49 400.428 1029.49 398.859C1029.49 397.29 1028.18 395.982 1026.62 395.982Z" fill="white"/>
<path fill-rule="evenodd" clip-rule="evenodd" d="M1003.96 314.64H943.965C942.396 314.64 941.088 315.948 941.088 317.517C941.088 319.086 942.396 320.394 943.965 320.394H1003.96C1005.53 320.394 1006.84 319.086 1006.84 317.517C1006.84 315.948 1005.53 314.64 1003.96 314.64ZM1003.96 302.766H943.965C942.396 302.766 941.088 304.073 941.088 305.643C941.088 307.212 942.396 308.52 943.965 308.52H1003.96C1005.53 308.52 1006.84 307.212 1006.84 305.643C1006.84 304.073 1005.53 302.766 1003.96 302.766ZM1026.62 314.64H1015.89C1014.32 314.64 1013.01 315.948 1013.01 317.517C1013.01 319.086 1014.32 320.394 1015.89 320.394H1026.62C1028.18 320.394 1029.49 319.086 1029.49 317.517C1029.49 315.948 1028.18 314.64 1026.62 314.64ZM1003.96 326.567H943.965C942.396 326.567 941.088 327.875 941.088 329.444C941.088 331.013 942.396 332.321 943.965 332.321H1003.96C1005.53 332.321 1006.84 331.013 1006.84 329.444C1006.84 327.875 1005.53 326.567 1003.96 326.567ZM1026.62 326.567H1015.89C1014.32 326.567 1013.01 327.875 1013.01 329.444C1013.01 331.013 1014.32 332.321 1015.89 332.321H1026.62C1028.18 332.321 1029.49 331.013 1029.49 329.444C1029.49 327.875 1028.18 326.567 1026.62 326.567ZM1026.62 302.766H1015.89C1014.32 302.766 1013.01 304.073 1013.01 305.643C1013.01 307.212 1014.32 308.52 1015.89 308.52H1026.62C1028.18 308.52 1029.49 307.212 1029.49 305.643C1029.49 304.073 1028.18 302.766 1026.62 302.766Z" fill="white"/>
<path fill-rule="evenodd" clip-rule="evenodd" d="M950.244 272.322H1019.03C1024.79 272.322 1029.55 277.029 1029.55 282.836C1029.55 288.59 1024.84 293.35 1019.03 293.35H950.244C944.49 293.35 939.73 288.642 939.73 282.836C939.73 277.029 944.438 272.322 950.244 272.322Z" fill="#EF5B72"/>
<path d="M994.184 278.962C994.132 278.858 994.132 278.805 994.184 278.753C994.237 278.701 994.289 278.649 994.341 278.649H996.225C996.277 278.649 996.381 278.649 996.434 278.701C996.486 278.753 996.538 278.806 996.591 278.858L997.898 282.676C997.898 282.729 997.951 282.781 998.003 282.781C998.055 282.781 998.108 282.729 998.108 282.676L999.363 278.858C999.363 278.806 999.415 278.701 999.52 278.649C999.572 278.596 999.677 278.596 999.729 278.596H1001.25C1001.35 278.596 1001.4 278.596 1001.46 278.649C1001.51 278.701 1001.56 278.753 1001.61 278.858L1002.87 282.676C1002.87 282.729 1002.92 282.781 1002.97 282.781C1003.02 282.781 1003.08 282.729 1003.13 282.676L1004.44 278.858C1004.49 278.806 1004.54 278.753 1004.59 278.701C1004.65 278.649 1004.75 278.649 1004.8 278.649H1006.63C1006.74 278.649 1006.79 278.701 1006.79 278.753C1006.84 278.805 1006.84 278.91 1006.79 278.962L1004.02 286.757C1003.97 286.809 1003.91 286.914 1003.86 286.966C1003.81 287.018 1003.7 287.018 1003.65 287.018H1002.19C1002.08 287.018 1002.03 287.018 1001.98 286.966C1001.93 286.914 1001.87 286.861 1001.82 286.757L1000.57 282.938C1000.57 282.886 1000.51 282.833 1000.46 282.833C1000.41 282.833 1000.36 282.886 1000.36 282.938L999.102 286.757C999.102 286.809 999.049 286.914 998.945 286.966C998.892 287.018 998.788 287.018 998.735 287.018H997.271C997.166 287.018 997.114 286.966 997.061 286.914C997.009 286.861 996.957 286.809 996.957 286.757L994.184 278.962ZM987.803 282.833C987.803 283.147 987.855 283.409 987.959 283.67C988.064 283.932 988.221 284.141 988.378 284.35C988.587 284.56 988.797 284.717 989.058 284.821C989.32 284.926 989.581 284.978 989.843 284.978C990.104 284.978 990.366 284.926 990.627 284.821C990.889 284.717 991.098 284.56 991.307 284.35C991.517 284.141 991.621 283.932 991.778 283.67C991.883 283.409 991.935 283.147 991.935 282.833C991.935 282.572 991.883 282.258 991.778 281.996C991.674 281.735 991.517 281.526 991.307 281.316C991.098 281.107 990.889 280.95 990.627 280.846C990.366 280.741 990.104 280.689 989.843 280.689C989.581 280.689 989.32 280.741 989.058 280.846C988.797 280.95 988.587 281.107 988.378 281.316C988.169 281.526 988.064 281.735 987.959 281.996C987.855 282.258 987.803 282.52 987.803 282.833ZM985.501 282.833C985.501 282.258 985.606 281.683 985.867 281.159C986.076 280.636 986.39 280.166 986.809 279.799C987.175 279.433 987.646 279.119 988.169 278.858C988.692 278.649 989.267 278.492 989.843 278.492C990.418 278.492 990.994 278.596 991.517 278.858C992.04 279.067 992.51 279.381 992.877 279.799C993.243 280.218 993.557 280.636 993.818 281.159C994.028 281.683 994.184 282.258 994.184 282.833C994.184 283.409 994.08 283.984 993.818 284.507C993.609 285.03 993.295 285.501 992.877 285.867C992.51 286.234 992.04 286.547 991.517 286.809C990.994 287.018 990.418 287.175 989.843 287.175C989.267 287.175 988.692 287.07 988.169 286.809C987.646 286.6 987.175 286.286 986.809 285.867C986.443 285.449 986.129 285.03 985.867 284.507C985.606 283.984 985.501 283.409 985.501 282.833ZM984.612 278.91V286.704C984.612 286.757 984.559 286.861 984.507 286.914C984.455 286.966 984.402 287.018 984.298 287.018H982.624C982.572 287.018 982.467 287.018 982.362 286.966C982.258 286.914 982.205 286.861 982.153 286.809L979.171 282.624C979.119 282.572 979.067 282.52 979.014 282.572C978.962 282.572 978.962 282.624 978.962 282.729V286.809C978.962 286.861 978.91 286.966 978.858 287.018C978.805 287.07 978.753 287.123 978.648 287.123H976.922C976.87 287.123 976.765 287.07 976.713 287.018C976.661 286.966 976.608 286.914 976.608 286.809V279.015C976.608 278.962 976.661 278.858 976.713 278.805C976.765 278.753 976.817 278.701 976.922 278.701H978.648C978.701 278.701 978.805 278.701 978.91 278.753C979.015 278.805 979.067 278.858 979.119 278.91L982.101 283.095C982.153 283.147 982.205 283.2 982.258 283.2C982.31 283.2 982.31 283.147 982.31 283.095V279.015C982.31 278.962 982.31 278.858 982.415 278.805C982.467 278.753 982.519 278.701 982.624 278.701H984.298C984.35 278.701 984.455 278.753 984.507 278.805C984.612 278.753 984.612 278.858 984.612 278.91ZM972.319 278.962L969.442 283.566C969.389 283.618 969.389 283.723 969.337 283.827C969.285 283.932 969.285 284.037 969.285 284.089V286.704C969.285 286.757 969.233 286.861 969.18 286.914C969.128 286.966 969.076 287.018 968.971 287.018H967.245C967.192 287.018 967.088 286.966 967.035 286.914C966.983 286.861 966.931 286.809 966.931 286.704V284.089C966.931 284.037 966.931 283.932 966.879 283.827C966.826 283.723 966.826 283.618 966.774 283.566C966.303 282.781 965.832 281.996 965.362 281.264C964.891 280.532 964.42 279.747 963.949 278.91C963.897 278.858 963.897 278.753 963.949 278.701C963.949 278.649 964.002 278.596 964.106 278.596H966.146C966.199 278.596 966.303 278.596 966.355 278.649C966.46 278.701 966.512 278.753 966.512 278.805L967.925 281.264C967.977 281.316 968.029 281.369 968.082 281.369C968.134 281.369 968.186 281.316 968.239 281.264L969.651 278.805C969.703 278.753 969.756 278.701 969.808 278.649C969.913 278.596 969.965 278.596 970.017 278.596H972.057C972.11 278.596 972.214 278.649 972.214 278.701C972.423 278.806 972.371 278.858 972.319 278.962ZM956.626 278.91C956.626 278.858 956.678 278.753 956.73 278.701C956.783 278.649 956.835 278.596 956.94 278.596H958.666C958.718 278.596 958.823 278.649 958.875 278.701C958.927 278.753 958.98 278.805 958.98 278.91V283.513C958.98 283.827 959.032 284.037 959.137 284.246C959.241 284.455 959.346 284.612 959.503 284.717C959.66 284.821 959.817 284.926 959.974 284.926C960.131 284.978 960.288 284.978 960.392 284.978C960.497 284.978 960.654 284.978 960.811 284.926C960.968 284.873 961.124 284.821 961.281 284.717C961.438 284.612 961.543 284.455 961.648 284.246C961.752 284.037 961.804 283.827 961.804 283.513V278.91C961.804 278.858 961.857 278.753 961.909 278.701C961.961 278.649 962.014 278.596 962.118 278.596H963.845C963.897 278.596 964.002 278.649 964.054 278.701C964.106 278.753 964.158 278.805 964.158 278.91V283.513C964.158 284.036 964.054 284.56 963.897 284.978C963.74 285.397 963.478 285.815 963.165 286.129C962.851 286.443 962.485 286.704 962.014 286.861C961.543 287.018 961.072 287.123 960.497 287.123C959.921 287.123 959.451 287.018 958.98 286.861C958.509 286.704 958.143 286.443 957.829 286.129C957.515 285.815 957.254 285.449 957.097 284.978C956.94 284.56 956.835 284.036 956.835 283.513V278.91H956.626ZM952.755 283.723H951.552C951.499 283.723 951.395 283.775 951.342 283.827C951.29 283.88 951.238 283.932 951.238 284.036V284.664C951.238 284.717 951.29 284.821 951.342 284.873C951.395 284.926 951.447 284.978 951.552 284.978H952.807C952.964 284.978 953.069 284.926 953.173 284.821C953.278 284.717 953.33 284.56 953.33 284.403C953.33 284.246 953.278 284.141 953.173 283.984C953.069 283.775 952.912 283.723 952.755 283.723ZM951.552 281.787H952.598C952.755 281.787 952.86 281.735 952.964 281.63C953.069 281.526 953.121 281.369 953.121 281.212C953.121 281.055 953.069 280.95 952.964 280.846C952.86 280.741 952.755 280.689 952.65 280.689H951.552C951.499 280.689 951.395 280.741 951.342 280.793C951.29 280.846 951.238 280.898 951.238 281.003V281.526C951.238 281.578 951.29 281.683 951.342 281.735C951.395 281.787 951.447 281.787 951.552 281.787ZM954.743 282.676C954.847 282.729 955.004 282.833 955.109 282.938C955.213 283.043 955.318 283.147 955.423 283.304C955.527 283.461 955.632 283.618 955.684 283.827C955.737 284.037 955.789 284.246 955.789 284.455C955.789 284.926 955.737 285.344 955.58 285.658C955.423 285.972 955.213 286.234 954.952 286.443C954.69 286.652 954.377 286.757 954.01 286.861C953.644 286.966 953.278 286.966 952.912 286.966H949.302C949.25 286.966 949.145 286.914 949.093 286.861C949.041 286.809 948.989 286.757 948.989 286.652V278.858C948.989 278.806 949.041 278.701 949.093 278.649C949.145 278.596 949.198 278.544 949.302 278.544H952.755C953.121 278.544 953.487 278.596 953.801 278.649C954.115 278.753 954.429 278.858 954.69 279.067C954.952 279.276 955.161 279.486 955.318 279.799C955.475 280.113 955.527 280.427 955.527 280.898C955.527 281.264 955.423 281.526 955.266 281.787C955.109 282.049 954.9 282.258 954.69 282.363C954.586 282.52 954.586 282.624 954.743 282.676Z" fill="white"/>
<path fill-rule="evenodd" clip-rule="evenodd" d="M1017.99 275.509C1021.96 275.509 1025.21 278.752 1025.21 282.728C1025.21 286.703 1021.96 289.947 1017.99 289.947C1014.01 289.947 1010.77 286.703 1010.77 282.728C1010.77 278.7 1014.01 275.509 1017.99 275.509Z" fill="white"/>
<path d="M1016 283.879C1016.31 284.245 1016.63 284.507 1016.94 284.664C1017.25 284.821 1017.57 284.926 1017.88 284.926C1018.14 284.926 1018.35 284.873 1018.56 284.716C1018.72 284.559 1018.82 284.35 1018.82 284.141C1018.82 283.879 1018.77 283.67 1018.61 283.565C1018.46 283.409 1018.14 283.304 1017.62 283.147C1016.83 282.938 1016.26 282.676 1015.95 282.31C1015.63 281.996 1015.47 281.525 1015.47 280.95C1015.47 280.27 1015.68 279.695 1016.15 279.224C1016.57 278.805 1017.2 278.544 1017.99 278.439V277.707H1018.67V278.439C1018.98 278.491 1019.29 278.544 1019.55 278.648C1019.87 278.753 1020.13 278.91 1020.44 279.119L1019.76 280.636C1019.5 280.427 1019.29 280.27 1019.03 280.165C1018.77 280.061 1018.51 280.008 1018.3 280.008C1018.04 280.008 1017.83 280.061 1017.67 280.165C1017.51 280.27 1017.46 280.427 1017.46 280.636C1017.46 280.845 1017.51 281.002 1017.67 281.107C1017.83 281.211 1018.09 281.316 1018.51 281.421H1018.56C1019.45 281.63 1020.03 281.892 1020.29 282.205C1020.5 282.415 1020.6 282.624 1020.71 282.885C1020.81 283.147 1020.86 283.461 1020.86 283.775C1020.86 284.507 1020.65 285.135 1020.18 285.606C1019.71 286.076 1019.14 286.39 1018.4 286.443V287.75H1017.72V286.495C1017.2 286.495 1016.78 286.39 1016.31 286.233C1015.89 286.076 1015.47 285.762 1015.11 285.396L1016 283.879Z" fill="#EF5B72"/>
<path fill-rule="evenodd" clip-rule="evenodd" d="M865.553 452.161H908.918C919.59 452.161 928.378 460.897 928.378 471.62V514.985C928.378 525.656 919.642 534.445 908.918 534.445H865.553C854.882 534.445 846.094 525.709 846.094 514.985V471.62C846.094 460.897 854.83 452.161 865.553 452.161Z" fill="white"/>
<path fill-rule="evenodd" clip-rule="evenodd" d="M950.244 461.945H1019.03C1024.79 461.945 1029.55 466.653 1029.55 472.459C1029.55 478.213 1024.84 482.974 1019.03 482.974H950.244C944.49 482.974 939.73 478.266 939.73 472.459C939.73 466.653 944.438 461.945 950.244 461.945Z" fill="#EF5B72"/>
<path d="M994.184 468.587C994.132 468.482 994.132 468.43 994.184 468.378C994.237 468.325 994.289 468.273 994.341 468.273H996.225C996.277 468.273 996.381 468.273 996.434 468.325C996.486 468.378 996.538 468.43 996.591 468.482L997.898 472.301C997.898 472.353 997.951 472.406 998.003 472.406C998.055 472.406 998.108 472.353 998.108 472.301L999.363 468.535C999.363 468.482 999.415 468.378 999.52 468.325C999.572 468.273 999.677 468.273 999.729 468.273H1001.25C1001.35 468.273 1001.4 468.273 1001.46 468.325C1001.51 468.378 1001.56 468.43 1001.61 468.535L1002.87 472.353C1002.87 472.406 1002.92 472.458 1002.97 472.458C1003.02 472.458 1003.08 472.406 1003.13 472.353L1004.44 468.535C1004.49 468.482 1004.54 468.43 1004.59 468.378C1004.65 468.325 1004.75 468.325 1004.8 468.325H1006.63C1006.74 468.325 1006.79 468.378 1006.79 468.43C1006.84 468.482 1006.84 468.587 1006.79 468.639L1004.02 476.433C1003.97 476.486 1003.91 476.59 1003.86 476.643C1003.81 476.695 1003.7 476.695 1003.65 476.695H1002.19C1002.08 476.695 1002.03 476.695 1001.98 476.643C1001.93 476.59 1001.87 476.538 1001.82 476.433L1000.57 472.615C1000.57 472.562 1000.51 472.51 1000.46 472.51C1000.41 472.51 1000.36 472.562 1000.36 472.615L999.102 476.433C999.102 476.486 999.049 476.59 998.945 476.643C998.892 476.695 998.788 476.695 998.735 476.695H997.271C997.166 476.695 997.114 476.643 997.061 476.59C997.009 476.538 996.957 476.486 996.957 476.433L994.184 468.587ZM987.803 472.406C987.803 472.719 987.855 472.981 987.959 473.243C988.064 473.504 988.221 473.713 988.378 473.923C988.587 474.132 988.797 474.289 989.058 474.393C989.32 474.498 989.581 474.55 989.843 474.55C990.104 474.55 990.366 474.498 990.627 474.393C990.889 474.289 991.098 474.132 991.307 473.923C991.517 473.713 991.621 473.504 991.778 473.243C991.883 472.981 991.935 472.719 991.935 472.406C991.935 472.144 991.883 471.83 991.778 471.569C991.674 471.307 991.517 471.098 991.307 470.889C991.098 470.679 990.889 470.522 990.627 470.418C990.366 470.313 990.104 470.261 989.843 470.261C989.581 470.261 989.32 470.313 989.058 470.418C988.797 470.522 988.587 470.679 988.378 470.889C988.169 471.098 988.064 471.307 987.959 471.569C987.855 471.882 987.803 472.144 987.803 472.406ZM985.501 472.406C985.501 471.83 985.606 471.255 985.867 470.732C986.076 470.209 986.39 469.738 986.809 469.372C987.175 468.953 987.646 468.692 988.169 468.43C988.692 468.221 989.267 468.064 989.843 468.064C990.418 468.064 990.994 468.168 991.517 468.43C992.04 468.639 992.51 468.953 992.877 469.372C993.243 469.738 993.557 470.209 993.818 470.732C994.028 471.255 994.184 471.83 994.184 472.406C994.184 472.981 994.08 473.556 993.818 474.079C993.609 474.603 993.295 475.073 992.877 475.44C992.51 475.806 992.04 476.12 991.517 476.381C990.994 476.59 990.418 476.747 989.843 476.747C989.267 476.747 988.692 476.643 988.169 476.381C987.646 476.172 987.175 475.858 986.809 475.44C986.443 475.021 986.129 474.603 985.867 474.079C985.606 473.556 985.501 473.033 985.501 472.406ZM984.612 468.535V476.329C984.612 476.381 984.559 476.486 984.507 476.538C984.455 476.59 984.402 476.643 984.298 476.643H982.624C982.572 476.643 982.467 476.643 982.362 476.59C982.258 476.538 982.205 476.486 982.153 476.433L979.171 472.249C979.119 472.196 979.067 472.144 979.014 472.196C978.962 472.196 978.962 472.249 978.962 472.353V476.433C978.962 476.486 978.91 476.59 978.858 476.643C978.805 476.695 978.753 476.747 978.648 476.747H976.922C976.87 476.747 976.765 476.695 976.713 476.643C976.661 476.59 976.608 476.538 976.608 476.433V468.639C976.608 468.587 976.661 468.482 976.713 468.43C976.765 468.378 976.817 468.325 976.922 468.325H978.648C978.701 468.325 978.805 468.325 978.91 468.378C979.015 468.43 979.067 468.482 979.119 468.535L982.101 472.719C982.153 472.772 982.205 472.824 982.258 472.824C982.31 472.824 982.31 472.772 982.31 472.719V468.639C982.31 468.587 982.31 468.482 982.415 468.43C982.519 468.378 982.519 468.325 982.624 468.325H984.298C984.35 468.325 984.455 468.378 984.507 468.43C984.559 468.482 984.612 468.43 984.612 468.535ZM972.319 468.587L969.442 473.19C969.389 473.242 969.389 473.347 969.337 473.452C969.285 473.556 969.285 473.661 969.285 473.713V476.329C969.285 476.381 969.233 476.486 969.18 476.538C969.128 476.59 969.076 476.643 968.971 476.643H967.245C967.192 476.643 967.088 476.59 967.035 476.538C966.983 476.486 966.931 476.433 966.931 476.329V473.713C966.931 473.661 966.931 473.556 966.879 473.452C966.826 473.347 966.826 473.242 966.774 473.19C966.303 472.406 965.832 471.621 965.362 470.889C964.891 470.156 964.42 469.372 963.949 468.535C963.897 468.482 963.897 468.378 963.949 468.325C963.949 468.273 964.002 468.221 964.106 468.221H966.146C966.199 468.221 966.303 468.221 966.355 468.273C966.46 468.325 966.512 468.378 966.512 468.43L967.925 470.889C967.977 470.941 968.029 470.993 968.082 470.993C968.134 470.993 968.186 470.941 968.239 470.889L969.651 468.43C969.703 468.378 969.756 468.325 969.808 468.273C969.913 468.221 969.965 468.221 970.017 468.221H972.057C972.11 468.221 972.214 468.273 972.214 468.325C972.423 468.378 972.371 468.482 972.319 468.587ZM956.626 468.535C956.626 468.482 956.678 468.378 956.73 468.325C956.783 468.273 956.835 468.221 956.94 468.221H958.666C958.718 468.221 958.823 468.273 958.875 468.325C958.927 468.378 958.98 468.43 958.98 468.535V473.138C958.98 473.452 959.032 473.661 959.137 473.87C959.241 474.079 959.346 474.236 959.503 474.341C959.66 474.446 959.817 474.55 959.974 474.55C960.131 474.603 960.288 474.603 960.392 474.603C960.497 474.603 960.654 474.603 960.811 474.55C960.968 474.498 961.124 474.446 961.281 474.341C961.438 474.236 961.543 474.079 961.648 473.87C961.752 473.661 961.804 473.452 961.804 473.138V468.535C961.804 468.482 961.857 468.378 961.909 468.325C961.961 468.273 962.014 468.221 962.118 468.221H963.845C963.897 468.221 964.002 468.273 964.054 468.325C964.106 468.378 964.158 468.43 964.158 468.535V473.138C964.158 473.661 964.054 474.184 963.897 474.603C963.74 475.021 963.478 475.44 963.165 475.753C962.851 476.067 962.485 476.329 962.014 476.486C961.543 476.643 961.072 476.747 960.497 476.747C959.921 476.747 959.451 476.643 958.98 476.486C958.509 476.329 958.143 476.067 957.829 475.753C957.515 475.44 957.254 475.073 957.097 474.603C956.94 474.184 956.835 473.661 956.835 473.138V468.535H956.626ZM952.755 473.295H951.552C951.499 473.295 951.395 473.347 951.342 473.399C951.29 473.452 951.238 473.504 951.238 473.609V474.236C951.238 474.289 951.29 474.393 951.342 474.446C951.395 474.498 951.447 474.55 951.552 474.55H952.807C952.964 474.55 953.069 474.498 953.173 474.393C953.278 474.289 953.33 474.132 953.33 473.975C953.33 473.818 953.278 473.713 953.173 473.556C953.069 473.399 952.912 473.295 952.755 473.295ZM951.552 471.412H952.598C952.755 471.412 952.86 471.359 952.964 471.255C953.069 471.15 953.121 470.993 953.121 470.836C953.121 470.679 953.069 470.575 952.964 470.47C952.86 470.365 952.755 470.313 952.65 470.313H951.552C951.499 470.313 951.395 470.365 951.342 470.418C951.29 470.47 951.238 470.522 951.238 470.627V471.15C951.238 471.202 951.29 471.307 951.342 471.359C951.395 471.412 951.447 471.412 951.552 471.412ZM954.743 472.301C954.847 472.353 955.004 472.458 955.109 472.562C955.213 472.667 955.318 472.772 955.423 472.929C955.527 473.086 955.632 473.242 955.684 473.452C955.737 473.661 955.789 473.87 955.789 474.079C955.789 474.55 955.737 474.969 955.58 475.283C955.423 475.596 955.213 475.858 954.952 476.067C954.69 476.276 954.377 476.381 954.01 476.486C953.644 476.59 953.278 476.59 952.912 476.59H949.302C949.25 476.59 949.145 476.538 949.093 476.486C949.041 476.433 948.989 476.381 948.989 476.276V468.482C948.989 468.43 949.041 468.325 949.093 468.273C949.145 468.221 949.198 468.168 949.302 468.168H952.755C953.121 468.168 953.487 468.221 953.801 468.273C954.115 468.378 954.429 468.482 954.69 468.692C954.952 468.848 955.161 469.11 955.318 469.424C955.475 469.738 955.527 470.052 955.527 470.522C955.527 470.889 955.423 471.15 955.266 471.412C955.109 471.673 954.9 471.882 954.69 471.987C954.586 472.144 954.586 472.249 954.743 472.301Z" fill="white"/>
<path fill-rule="evenodd" clip-rule="evenodd" d="M1017.99 465.085C1021.96 465.085 1025.21 468.328 1025.21 472.303C1025.21 476.279 1021.96 479.522 1017.99 479.522C1014.01 479.522 1010.77 476.279 1010.77 472.303C1010.77 468.328 1014.01 465.085 1017.99 465.085Z" fill="white"/>
<path d="M1016 473.503C1016.31 473.869 1016.63 474.13 1016.94 474.287C1017.25 474.444 1017.57 474.549 1017.88 474.549C1018.14 474.549 1018.35 474.497 1018.56 474.34C1018.72 474.183 1018.82 473.973 1018.82 473.764C1018.82 473.503 1018.77 473.293 1018.61 473.189C1018.46 473.032 1018.14 472.927 1017.62 472.77C1016.83 472.561 1016.26 472.3 1015.95 471.933C1015.63 471.62 1015.47 471.149 1015.47 470.573C1015.47 469.893 1015.68 469.318 1016.15 468.847C1016.57 468.429 1017.2 468.167 1017.99 468.062V467.33H1018.67V468.062C1018.98 468.115 1019.29 468.167 1019.55 468.272C1019.87 468.376 1020.13 468.533 1020.44 468.742L1019.76 470.259C1019.5 470.05 1019.29 469.893 1019.03 469.789C1018.77 469.684 1018.51 469.632 1018.3 469.632C1018.04 469.632 1017.83 469.684 1017.67 469.789C1017.51 469.893 1017.46 470.05 1017.46 470.259C1017.46 470.469 1017.51 470.626 1017.67 470.73C1017.83 470.835 1018.09 470.939 1018.51 471.044H1018.56C1019.45 471.253 1020.03 471.515 1020.29 471.829C1020.5 472.038 1020.6 472.247 1020.71 472.509C1020.81 472.77 1020.86 473.084 1020.86 473.398C1020.86 474.13 1020.65 474.758 1020.18 475.229C1019.71 475.7 1019.14 476.014 1018.4 476.066V477.374H1017.72V476.118C1017.2 476.118 1016.78 476.014 1016.31 475.857C1015.89 475.7 1015.47 475.386 1015.11 475.02L1016 473.503Z" fill="#EF5B72"/>
<path fill-rule="evenodd" clip-rule="evenodd" d="M1003.96 504.787H943.965C942.396 504.787 941.088 506.095 941.088 507.664C941.088 509.233 942.396 510.541 943.965 510.541H1003.96C1005.53 510.541 1006.84 509.233 1006.84 507.664C1006.84 506.042 1005.53 504.787 1003.96 504.787ZM1003.96 492.86H943.965C942.396 492.86 941.088 494.168 941.088 495.737C941.088 497.306 942.396 498.614 943.965 498.614H1003.96C1005.53 498.614 1006.84 497.306 1006.84 495.737C1006.84 494.168 1005.53 492.86 1003.96 492.86ZM1026.62 504.787H1015.89C1014.32 504.787 1013.01 506.095 1013.01 507.664C1013.01 509.233 1014.32 510.541 1015.89 510.541H1026.62C1028.18 510.541 1029.49 509.233 1029.49 507.664C1029.49 506.042 1028.18 504.787 1026.62 504.787ZM1003.96 516.661H943.965C942.396 516.661 941.088 517.969 941.088 519.538C941.088 521.108 942.396 522.415 943.965 522.415H1003.96C1005.53 522.415 1006.84 521.108 1006.84 519.538C1006.84 517.969 1005.53 516.661 1003.96 516.661ZM1026.62 516.661H1015.89C1014.32 516.661 1013.01 517.969 1013.01 519.538C1013.01 521.108 1014.32 522.415 1015.89 522.415H1026.62C1028.18 522.415 1029.49 521.108 1029.49 519.538C1029.49 517.969 1028.18 516.661 1026.62 516.661ZM1026.62 492.86H1015.89C1014.32 492.86 1013.01 494.168 1013.01 495.737C1013.01 497.306 1014.32 498.614 1015.89 498.614H1026.62C1028.18 498.614 1029.49 497.306 1029.49 495.737C1029.49 494.168 1028.18 492.86 1026.62 492.86Z" fill="white"/>
<path fill-rule="evenodd" clip-rule="evenodd" d="M1072.02 185.067C1095.98 185.067 1115.44 204.474 1115.44 228.485C1115.44 252.443 1096.03 271.902 1072.02 271.902C1048.06 271.902 1028.6 252.495 1028.6 228.485C1028.6 204.527 1048.06 185.067 1072.02 185.067Z" fill="#FCBA23"/>
<path d="M1058.68 248.308L1082.95 206.303H1088.13L1063.65 248.308H1058.68ZM1098.12 237.113C1098.12 240.514 1097.18 243.234 1095.3 245.274C1093.42 247.314 1090.91 248.308 1087.71 248.308C1084.52 248.308 1081.96 247.314 1080.08 245.274C1078.19 243.234 1077.25 240.514 1077.25 237.113C1077.25 233.713 1078.19 230.993 1080.08 229.005C1081.96 227.018 1084.52 225.971 1087.71 225.971C1090.91 225.971 1093.42 226.965 1095.3 229.005C1097.18 230.993 1098.12 233.661 1098.12 237.113ZM1087.71 244.071C1088.97 244.071 1089.86 243.548 1090.38 242.449C1090.96 241.351 1091.22 239.572 1091.22 237.113C1091.22 234.655 1090.96 232.876 1090.38 231.83C1089.86 230.784 1088.92 230.209 1087.71 230.209C1086.46 230.209 1085.57 230.732 1085.05 231.83C1084.47 232.876 1084.21 234.655 1084.21 237.113C1084.21 239.572 1084.47 241.351 1085.05 242.449C1085.57 243.495 1086.46 244.071 1087.71 244.071ZM1070.03 217.445C1070.03 220.845 1069.09 223.565 1067.21 225.553C1065.33 227.593 1062.76 228.587 1059.62 228.587C1056.43 228.587 1053.92 227.593 1052.04 225.553C1050.16 223.565 1049.21 220.845 1049.21 217.393C1049.21 213.992 1050.16 211.272 1052.04 209.232C1053.92 207.192 1056.43 206.198 1059.62 206.198C1062.81 206.198 1065.33 207.192 1067.21 209.232C1069.09 211.325 1070.03 214.045 1070.03 217.445ZM1059.57 224.35C1060.83 224.35 1061.72 223.827 1062.24 222.728C1062.81 221.63 1063.08 219.903 1063.08 217.445C1063.08 214.986 1062.81 213.208 1062.24 212.162C1061.72 211.063 1060.77 210.54 1059.57 210.54C1058.32 210.54 1057.43 211.063 1056.9 212.162C1056.33 213.26 1056.07 214.986 1056.07 217.445C1056.07 219.903 1056.33 221.682 1056.9 222.728C1057.43 223.827 1058.32 224.35 1059.57 224.35Z" fill="white"/>
<path d="M1100.06 404.454L1100.27 369.668C1100.32 361.089 1103.83 353.347 1109.42 347.75C1115.02 342.153 1122.71 338.701 1131.18 338.701C1139.66 338.753 1147.35 342.205 1152.84 347.855C1158.39 353.504 1161.73 361.246 1161.68 369.825L1161.47 404.611C1161.47 405.919 1162.47 406.965 1163.77 406.965C1165.03 406.965 1166.08 405.919 1166.08 404.664L1166.28 369.877C1166.39 350.157 1150.7 334.15 1131.18 334.097C1111.67 334.045 1095.72 349.947 1095.61 369.668L1095.4 404.454C1095.4 405.762 1096.4 406.808 1097.71 406.808C1099.01 406.808 1100.01 405.762 1100.06 404.454Z" fill="#A5302F"/>
<path d="M1173.66 387.506H1016V585.29H1173.66V387.506Z" fill="url(#paint4_linear)"/>
<path d="M1198.19 387.977L1173.66 387.925L1155.93 585.291L1213.31 585.448L1198.19 387.977Z" fill="#ED7123"/>
<path d="M1155.93 585.29L1184.8 559.396L1213.31 585.447L1155.93 585.29Z" fill="#D86827"/>
<path d="M1064.7 407.019C1064.7 403.828 1067.31 401.265 1070.45 401.265C1073.64 401.265 1076.15 403.88 1076.15 407.071C1076.15 410.262 1073.54 412.825 1070.4 412.825C1067.26 412.825 1064.65 410.21 1064.7 407.019Z" fill="#A5302F"/>
<path d="M1130.77 407.227C1130.77 404.036 1133.38 401.473 1136.52 401.473C1139.66 401.473 1142.22 404.089 1142.22 407.279C1142.22 410.47 1139.61 413.034 1136.47 413.034C1133.28 412.981 1130.71 410.418 1130.77 407.227Z" fill="#A5302F"/>
<path d="M1072.75 404.403L1072.96 369.617C1073.01 361.038 1076.52 353.296 1082.12 347.699C1087.71 342.102 1095.4 338.649 1103.88 338.649C1112.35 338.702 1119.99 342.154 1125.53 347.804C1131.08 353.453 1134.43 361.195 1134.37 369.774L1134.16 404.56C1134.16 405.868 1135.16 406.914 1136.47 406.914C1137.72 406.914 1138.77 405.868 1138.77 404.612L1138.98 369.826C1139.08 350.105 1123.39 334.098 1103.88 334.046C1084.36 333.994 1068.46 349.896 1068.31 369.617L1068.1 404.403C1068.1 405.711 1069.09 406.757 1070.4 406.757C1071.71 406.705 1072.75 405.711 1072.75 404.403Z" fill="#A5302F"/>
<path fill-rule="evenodd" clip-rule="evenodd" d="M1103.88 474.707V479.99H1112.19L1112.98 474.707H1103.88ZM1090.75 480.042H1099.17V474.759H1089.39L1090.75 480.042ZM1080.08 480.042H1085.88L1084.52 474.759H1078.35L1080.08 480.042ZM1088.34 489.458L1087.09 484.698H1081.59L1083.16 489.458H1088.34ZM1099.17 489.458V484.698H1091.95L1093.21 489.458H1099.17ZM1110.78 489.458L1111.51 484.698H1103.93V489.458H1110.78ZM1122.24 484.698H1116.28L1115.54 489.458H1119.05C1119.15 489.458 1119.26 489.458 1119.36 489.458H1121.45L1122.24 484.698ZM1123.86 474.707H1117.79L1117.01 479.99H1123.02L1123.86 474.707ZM1119.26 465.186L1118.52 469.999H1124.64L1125.43 465.186H1119.26ZM1103.83 465.186V469.999H1113.71L1114.44 465.186H1103.83ZM1086.88 465.186L1088.13 469.999H1099.12V465.186H1086.88ZM1076.78 469.999H1083.27L1082.01 465.186H1079.61C1078.04 465.186 1076.78 463.931 1076.78 462.361C1076.78 460.792 1078.04 459.537 1079.61 459.537H1132.07L1126.89 490.923C1126.48 493.329 1124.44 495.055 1121.98 495.055H1087.71C1084.78 495.317 1084.31 496.625 1082.22 498.717C1080.5 500.443 1080.34 501.803 1079.82 504.105H1117.16C1118.73 504.105 1119.94 506.877 1119.94 508.447C1119.94 510.016 1120.15 508.656 1118.63 508.656H1074.58L1073.12 508.447C1073.12 503.111 1075.47 497.357 1079.4 493.904C1078.72 493.329 1078.14 492.544 1077.88 491.655L1066.16 455.823C1065.95 455.143 1065.27 454.62 1064.54 454.62H1060.36C1058.79 454.62 1057.53 453.364 1057.53 451.795C1057.53 450.226 1058.79 448.97 1060.36 448.97H1064.54C1067.73 448.97 1070.56 451.01 1071.5 454.044L1076.78 469.999Z" fill="white"/>
<path fill-rule="evenodd" clip-rule="evenodd" d="M1086.67 501.699C1089.6 501.699 1091.95 504.053 1091.95 506.982C1091.95 509.912 1089.6 512.266 1086.67 512.266C1083.74 512.266 1081.39 509.912 1081.39 506.982C1081.39 504.053 1083.74 501.699 1086.67 501.699Z" fill="white"/>
<path fill-rule="evenodd" clip-rule="evenodd" d="M1117.48 501.699C1120.41 501.699 1122.76 504.053 1122.76 506.982C1122.76 509.912 1120.41 512.266 1117.48 512.266C1114.55 512.266 1112.19 509.912 1112.19 506.982C1112.19 504.053 1114.55 501.699 1117.48 501.699Z" fill="white"/>
<path d="M778.092 569.652C777.464 572.686 774.901 579.853 775.738 583.253C784.16 589.425 797.133 585.502 808.327 585.921C815.128 586.182 820.725 584.351 822.032 581.788C823.497 578.963 811.623 577.028 803.515 574.935C794.465 572.582 789.705 568.658 789.705 568.658L778.092 569.652Z" fill="#15378B"/>
<path d="M793.21 575.405C793.21 575.405 793.315 575.143 793.472 574.777C793.785 574.045 794.361 572.842 795.093 571.848C794.727 571.639 794.361 571.482 793.995 571.272C793.681 571.743 793.367 572.266 793.105 572.737C792.425 573.992 792.059 575.039 792.059 575.039C791.955 575.353 792.111 575.666 792.478 575.771C792.739 575.876 793.053 575.719 793.21 575.405Z" fill="white"/>
<path d="M799.381 577.495C799.381 577.495 799.486 577.233 799.643 576.867C799.904 576.239 800.427 575.141 801.055 574.199C800.637 574.095 800.27 573.938 799.852 573.781C799.643 574.147 799.434 574.513 799.224 574.827C798.544 576.082 798.178 577.128 798.178 577.128C798.073 577.442 798.23 577.756 798.597 577.861C798.91 577.965 799.277 577.808 799.381 577.495Z" fill="white"/>
<path d="M805.554 579.59C805.554 579.59 805.658 579.328 805.815 578.962C806.129 578.23 806.757 576.922 807.542 575.876L806.286 575.562C805.972 576.033 805.711 576.504 805.449 576.922C804.769 578.178 804.403 579.224 804.403 579.224C804.298 579.538 804.455 579.851 804.821 579.956C805.083 580.061 805.449 579.904 805.554 579.59Z" fill="white"/>
<path d="M778.875 557.618L779.137 569.65C779.137 569.65 780.654 570.068 781.281 570.748C781.909 571.428 782.798 573.678 783.844 573.678C787.977 573.782 790.331 568.603 790.331 568.603V557.618H778.875Z" fill="#F7AAAC"/>
<path d="M797.235 386.41C783.739 386.41 771.813 386.723 771.813 386.723C767.523 388.607 760.095 398.441 757.898 404.613C755.701 410.838 756.59 421.248 757.741 426.584C764.071 456.4 771.342 473.767 773.8 485.589C775.317 492.808 772.231 493.174 772.231 511.535C772.231 527.96 778.142 559.974 778.142 559.974C778.142 559.974 784.681 561.962 791.324 559.922C791.324 559.922 795.247 503.636 796.346 497.045C798.124 486.322 798.752 481.875 798.961 463.358C799.328 437.307 797.235 386.41 797.235 386.41Z" fill="#0C1570"/>
<path d="M743.934 568.866C742.887 571.744 739.226 578.439 739.54 581.944C742.574 585.03 749.845 586.181 755.442 585.71C761.039 585.24 764.544 588.273 771.344 589.581C777.987 590.889 783.846 589.947 785.52 587.593C787.403 585.03 775.947 581.264 768.258 577.968C759.679 574.254 755.546 569.651 755.546 569.651L743.934 568.866Z" fill="#15378B"/>
<path d="M757.952 576.869C757.952 576.869 758.057 576.66 758.318 576.293C758.737 575.613 759.469 574.515 760.359 573.626C759.992 573.364 759.679 573.155 759.365 572.893C758.946 573.312 758.58 573.783 758.266 574.201C757.429 575.3 756.854 576.293 756.854 576.293C756.697 576.555 756.802 576.921 757.115 577.078C757.429 577.287 757.795 577.183 757.952 576.869Z" fill="white"/>
<path d="M763.757 579.904C763.757 579.904 763.862 579.695 764.123 579.329C764.49 578.701 765.17 577.759 765.954 576.922C765.588 576.713 765.222 576.556 764.856 576.347C764.594 576.661 764.333 576.975 764.071 577.288C763.234 578.387 762.659 579.381 762.659 579.381C762.502 579.642 762.606 580.009 762.92 580.166C763.234 580.27 763.6 580.166 763.757 579.904Z" fill="white"/>
<path d="M769.512 582.937C769.512 582.937 769.617 582.727 769.878 582.361C770.297 581.681 771.134 580.478 772.023 579.589L770.82 579.118C770.454 579.536 770.087 579.955 769.774 580.321C768.937 581.42 768.361 582.414 768.361 582.414C768.204 582.675 768.309 583.041 768.623 583.198C768.989 583.303 769.407 583.198 769.512 582.937Z" fill="white"/>
<path d="M746.548 557.096L744.926 569.023C744.926 569.023 746.339 569.703 746.862 570.435C747.385 571.22 747.908 573.574 748.954 573.731C753.034 574.463 756.173 569.703 756.173 569.703L757.847 558.875L746.548 557.096Z" fill="#F7AAAC"/>
<path d="M759.05 562.902C759.05 562.902 774.168 518.177 776.522 514.149C778.875 510.121 787.35 438.404 787.088 433.226C787.088 433.226 796.87 417.899 794.987 407.28L750.21 395.562C749.843 402.415 748.483 402.938 750.89 420.043C752.145 428.779 750.262 460.845 757.795 503.112C749.373 527.802 745.711 531.464 744.926 559.24C747.437 560.81 755.179 563.687 759.05 562.902Z" fill="#092978"/>
<path d="M778.561 308.152L791.952 321.229L797.654 307.681L783.949 293.139L778.561 308.152Z" fill="#F8BCBF"/>
<path d="M795.51 312.756C795.51 312.756 781.125 303.968 782.119 293.872L797.288 306.845L795.51 312.756Z" fill="#E96F76"/>
<path d="M782.173 293.871C782.173 293.871 782.696 296.016 783.323 297.69C783.951 299.364 795.721 306.635 799.016 307.576C802.26 308.57 806.811 308.622 807.804 297.376C808.798 286.077 807.648 275.981 801.056 269.704C794.465 263.374 783.114 267.141 777.412 273.47C771.71 279.8 774.169 294.603 782.173 293.871Z" fill="#F8BCBF"/>
<path d="M801.944 336.454C803.147 341.999 815.649 358.424 800.113 365.068C800.584 377.517 806.233 420.621 806.233 420.621C806.233 420.621 788.814 426.323 772.807 425.015C757.48 423.812 743.513 417.168 743.513 417.168C743.513 417.168 750.628 352.304 755.649 332.322C757.951 325.94 758.683 320.081 761.142 316.576C766.687 308.73 774.742 308.154 774.742 308.154L781.595 310.927L791.9 321.232L794.149 315.896C805.239 323.167 803.565 332.688 801.944 336.454Z" fill="#EE8C21"/>
<path d="M793.521 333.105C790.017 333 787.558 326.88 784.001 321.701C780.496 316.523 779.659 311.501 773.487 311.658V308.781C774.271 308.362 774.742 308.206 774.742 308.206L781.595 310.978L791.9 321.283L793.26 318.04C793.731 318.772 797.235 333.21 793.521 333.105Z" fill="#F8BCBF"/>
<path d="M801.63 384.106L764.071 336.452C765.17 343.985 781.49 385.257 781.49 385.257C783.53 391.116 783.583 390.331 786.564 395.039C787.506 396.504 801.211 401.264 803.879 402.153C803.774 397.812 801.839 389.913 801.63 384.106Z" fill="#D37427"/>
<path d="M765.329 338.073C760.674 323.478 779.034 317.672 783.847 329.128C788.555 340.427 799.174 374.795 799.174 374.795C799.174 374.795 823.812 363.286 835.686 356.905C838.772 355.231 840.708 351.987 841.44 351.883C846.148 349.633 856.349 345.083 854.936 347.07C854.622 347.541 849.601 350.889 848.607 353.295C847.508 356.015 853.315 359.782 840.499 365.327C834.954 367.576 795.146 396.608 790.804 392.842C786.515 389.18 766.375 343.984 765.329 338.073Z" fill="#F8BCBF"/>
<path fill-rule="evenodd" clip-rule="evenodd" d="M792.161 281.996C792.161 281.996 804.14 282.415 808.586 278.544C818.473 269.965 811.725 251.133 787.767 258.248C777.933 261.177 772.388 270.227 767.471 277.812C761.35 287.28 753.818 287.855 750.261 289.006C728.971 295.754 722.118 318.195 740.688 330.54C740.74 330.592 742.467 323.321 747.541 322.694C737.916 334.725 751.569 347.279 754.289 346.338C755.858 331.063 761.717 302.397 782.17 316.626C792.998 314.062 781.908 295.859 782.693 290.889C782.641 288.744 784.001 288.797 784.262 288.849C784.524 288.901 786.669 290.366 786.669 290.366C786.93 287.541 788.447 282.624 792.161 281.996Z" fill="#0C1570"/>
<path fill-rule="evenodd" clip-rule="evenodd" d="M886.006 474.445H889.249H907.976L914.829 514.672C910.958 513.364 908.029 515.195 904.367 515.613C903.478 515.718 898.822 514.253 896.102 514.306C892.388 514.41 890.296 515.98 888.099 515.718C884.332 515.3 880.671 513.73 878.526 513.887C872.406 514.253 873.609 515.875 868.692 515.457C865.501 515.195 862.467 513.05 859.171 513.312L867.227 474.445H886.006Z" fill="#EF5B72"/>
<path d="M907.922 470.627H867.225V474.393H907.922V470.627Z" fill="#F38480"/>
<path fill-rule="evenodd" clip-rule="evenodd" d="M933.45 558.301C938.524 558.301 942.657 562.433 942.657 567.507C942.657 572.582 938.524 576.714 933.45 576.714C928.376 576.714 924.243 572.582 924.243 567.507C924.243 562.433 928.376 558.301 933.45 558.301Z" fill="white"/>
<path d="M671.22 437.095L674.463 420.095C675.248 415.91 674.306 411.83 672.109 408.534C669.912 405.239 666.512 402.832 662.379 402.048C658.247 401.263 654.167 402.205 650.923 404.402C647.68 406.599 645.274 410.051 644.489 414.236L641.246 431.237C641.141 431.864 640.514 432.283 639.886 432.178C639.258 432.074 638.84 431.446 638.997 430.818L642.24 413.818C644.071 404.192 653.277 397.915 662.798 399.746C672.318 401.629 678.543 410.888 676.712 420.513L673.469 437.514C673.364 438.142 672.737 438.56 672.109 438.456C671.481 438.351 671.115 437.723 671.22 437.095Z" fill="#A5302F"/>
<path d="M636.959 421.928L705.172 435.267L694.762 533.192L626.497 519.853L636.959 421.928Z" fill="#E95F5D"/>
<path d="M624.979 419.574L636.958 421.928L626.496 519.852L598.51 514.359L624.979 419.574Z" fill="#D24B4A"/>
<path d="M626.496 519.85L614.936 504.419L598.51 514.358L626.496 519.85Z" fill="#A5302F"/>
<path d="M688.223 441.75C688.537 440.181 687.491 438.664 685.974 438.402C684.405 438.088 682.94 439.135 682.626 440.704C682.312 442.273 683.358 443.79 684.875 444.052C686.392 444.366 687.909 443.319 688.223 441.75Z" fill="#A5302F"/>
<path d="M684.509 439.713L687.752 422.712C688.536 418.527 687.595 414.447 685.398 411.152C683.201 407.856 679.801 405.45 675.668 404.665C671.536 403.881 667.455 404.822 664.212 407.019C660.969 409.216 658.563 412.669 657.778 416.853L654.535 433.854C654.43 434.482 653.803 434.9 653.175 434.796C652.547 434.691 652.129 434.063 652.286 433.436L655.529 416.435C657.36 406.81 666.566 400.533 676.087 402.364C685.607 404.247 691.832 413.506 690.001 423.131L686.758 440.131C686.653 440.759 686.026 441.178 685.398 441.073C684.822 440.968 684.404 440.341 684.509 439.713Z" fill="#A5302F"/>
<path d="M723.585 438.824L567.178 448.083L567.125 447.089L567.858 447.769C567.701 447.926 567.439 448.083 567.178 448.083L567.125 447.089L567.858 447.769L567.125 447.089H568.119C568.119 447.351 568.015 447.612 567.858 447.769L567.125 447.089H568.119H567.125L568.067 446.775L568.119 447.089H567.125L568.067 446.775L576.332 469.792L591.606 512.477L700.673 531.622L726.985 415.389L729.025 415.86L726.985 415.442C727.665 412.198 730.28 409.635 733.524 409.112L733.89 411.205L733.419 409.112L751.257 405.137C752.407 404.875 753.506 405.607 753.767 406.758C754.029 407.909 753.297 409.06 752.146 409.321L734.308 413.297H734.204C732.634 413.559 731.431 414.762 731.065 416.331V416.383L704.335 534.552C704.073 535.65 703.027 536.382 701.928 536.173L589.671 516.505C588.939 516.348 588.311 515.877 588.049 515.145L572.356 471.309L564.091 448.292C563.987 447.926 563.882 447.56 563.882 447.194C563.882 446.357 564.196 445.572 564.719 444.997C565.242 444.421 566.027 444.003 566.916 443.951L723.323 434.692C724.474 434.639 725.468 435.529 725.572 436.68C725.625 437.726 724.735 438.72 723.585 438.824Z" fill="#0C1570"/>
<path d="M583.131 444.735L603.584 516.399C603.689 516.765 603.479 517.184 603.113 517.289C602.747 517.393 602.329 517.184 602.224 516.818L581.771 445.153C581.666 444.787 581.875 444.368 582.242 444.264C582.608 444.159 583.026 444.368 583.131 444.735Z" fill="#0C1570"/>
<path d="M600.078 443.742L616.346 518.755C616.451 519.121 616.189 519.539 615.823 519.592C615.457 519.696 615.091 519.435 614.986 519.069L598.718 444.056C598.613 443.69 598.875 443.271 599.241 443.219C599.659 443.115 600.026 443.324 600.078 443.742Z" fill="#0C1570"/>
<path d="M617.135 442.642L629.061 520.95C629.114 521.316 628.852 521.682 628.486 521.734C628.12 521.787 627.754 521.525 627.701 521.159L615.775 442.851C615.722 442.485 615.984 442.118 616.35 442.066C616.716 442.014 617.083 442.275 617.135 442.642Z" fill="#0C1570"/>
<path d="M634.239 441.594L641.667 523.198C641.719 523.564 641.406 523.93 641.039 523.982C640.673 524.035 640.307 523.721 640.255 523.355L632.827 441.751C632.774 441.385 633.088 441.019 633.454 440.966C633.873 440.914 634.239 441.228 634.239 441.594Z" fill="#0C1570"/>
<path d="M651.447 440.549L654.167 525.448C654.167 525.814 653.853 526.18 653.487 526.18C653.121 526.18 652.754 525.866 652.754 525.5L650.034 440.601C650.034 440.235 650.348 439.869 650.714 439.869C651.08 439.869 651.394 440.13 651.447 440.549Z" fill="#0C1570"/>
<path d="M668.658 439.502L666.513 527.697C666.513 528.063 666.2 528.377 665.781 528.377C665.415 528.377 665.101 528.063 665.101 527.645L667.246 439.45C667.246 439.084 667.56 438.77 667.978 438.77C668.397 438.77 668.658 439.084 668.658 439.502Z" fill="#0C1570"/>
<path d="M685.971 438.407L678.752 529.845C678.7 530.211 678.386 530.525 678.02 530.472C677.654 530.42 677.34 530.106 677.392 529.688L684.611 438.25C684.664 437.884 684.977 437.57 685.344 437.622C685.71 437.674 686.024 438.04 685.971 438.407Z" fill="#0C1570"/>
<path d="M709.303 437.358L690.89 532.039C690.837 532.405 690.419 532.667 690.053 532.614C689.687 532.562 689.425 532.143 689.477 531.777L707.891 437.096C707.943 436.73 708.309 436.468 708.727 436.521C709.094 436.625 709.355 436.991 709.303 437.358Z" fill="#0C1570"/>
<path d="M715.945 466.807L574.289 471.202C573.923 471.202 573.557 470.888 573.557 470.521C573.557 470.103 573.871 469.789 574.237 469.789L715.893 465.395C716.259 465.395 716.625 465.709 716.625 466.075C716.625 466.441 716.311 466.807 715.945 466.807Z" fill="#0C1570"/>
<path d="M708.36 505.098L582.398 495.734C582.032 495.682 581.718 495.368 581.77 494.95C581.822 494.583 582.136 494.27 582.502 494.27L708.465 503.633C708.831 503.685 709.145 503.999 709.093 504.418C709.093 504.836 708.727 505.15 708.36 505.098Z" fill="#0C1570"/>
<path d="M703.549 533.554L716.051 569.596L714.743 570.067L715.999 569.439C716.313 570.067 716.47 570.747 716.47 571.427C716.47 572.63 715.999 573.728 715.214 574.565C714.43 575.402 713.279 575.925 711.971 575.925H707.891H607.874C607.089 575.925 606.462 575.298 606.462 574.513C606.462 573.728 607.089 573.101 607.874 573.101H711.971C712.494 573.101 712.86 572.891 713.174 572.577C713.488 572.264 713.645 571.845 713.645 571.374C713.645 571.113 713.593 570.904 713.488 570.642L713.436 570.537L700.934 534.496C700.672 533.763 701.038 532.927 701.771 532.665C702.451 532.403 703.235 532.822 703.549 533.554Z" fill="#0C1570"/>
<path fill-rule="evenodd" clip-rule="evenodd" d="M703.601 543.181L597.255 522.466C596.994 522.414 596.784 522.309 596.575 522.152L589.043 515.404C588.467 514.881 588.415 513.992 588.938 513.417C589.461 512.841 590.35 512.789 590.926 513.312L598.197 519.799L704.177 540.409C704.962 540.566 705.432 541.298 705.275 542.083C705.066 542.815 704.334 543.338 703.601 543.181Z" fill="#0C1570"/>
<path fill-rule="evenodd" clip-rule="evenodd" d="M693.088 565.57C688.38 565.57 684.509 569.388 684.509 574.149C684.509 578.909 688.327 582.727 693.088 582.727C697.796 582.727 701.667 578.909 701.667 574.149C701.667 569.388 697.796 565.57 693.088 565.57Z" fill="white"/>
<path d="M689.008 570.066C690.054 569.02 691.518 568.392 693.088 568.392C694.709 568.392 696.122 569.02 697.168 570.066C698.214 571.113 698.842 572.577 698.842 574.147C698.842 575.768 698.214 577.181 697.168 578.227C696.122 579.273 694.657 579.901 693.088 579.901C691.466 579.901 690.054 579.273 689.008 578.227C687.961 577.181 687.334 575.716 687.334 574.147C687.334 572.525 687.961 571.113 689.008 570.066ZM693.088 562.795C689.949 562.795 687.124 564.051 685.084 566.091C683.044 568.131 681.789 570.956 681.789 574.094C681.789 577.233 683.044 580.058 685.084 582.098C687.124 584.138 689.949 585.393 693.088 585.393C696.226 585.393 699.051 584.138 701.091 582.098C703.131 580.058 704.387 577.233 704.387 574.094C704.387 570.956 703.131 568.131 701.091 566.091C699.051 564.103 696.226 562.795 693.088 562.795Z" fill="#0C1570"/>
<path fill-rule="evenodd" clip-rule="evenodd" d="M622.835 565.57C618.127 565.57 614.256 569.388 614.256 574.149C614.256 578.909 618.075 582.727 622.835 582.727C627.543 582.727 631.414 578.909 631.414 574.149C631.414 569.388 627.595 565.57 622.835 565.57Z" fill="white"/>
<path d="M618.755 570.066C619.801 569.02 621.266 568.392 622.835 568.392C624.457 568.392 625.869 569.02 626.916 570.066C627.962 571.113 628.589 572.577 628.589 574.147C628.589 575.768 627.962 577.181 626.916 578.227C625.869 579.273 624.405 579.901 622.835 579.901C621.214 579.901 619.801 579.273 618.755 578.227C617.709 577.181 617.081 575.716 617.081 574.147C617.081 572.525 617.709 571.113 618.755 570.066ZM622.835 562.795C619.697 562.795 616.872 564.051 614.832 566.091C612.792 568.131 611.536 570.956 611.536 574.094C611.536 577.233 612.792 580.058 614.832 582.098C616.872 584.138 619.697 585.393 622.835 585.393C625.974 585.393 628.799 584.138 630.839 582.098C632.879 580.058 634.134 577.233 634.134 574.094C634.134 570.956 632.879 568.131 630.839 566.091C628.799 564.103 625.974 562.795 622.835 562.795Z" fill="#0C1570"/>
<path fill-rule="evenodd" clip-rule="evenodd" d="M706.216 209.34C720.758 214.78 728.134 230.996 722.693 245.538C717.253 260.081 701.037 267.456 686.495 262.016C671.953 256.576 664.577 240.36 670.017 225.818C675.457 211.275 691.674 203.9 706.216 209.34Z" fill="#CFEAFD"/>
<path fill-rule="evenodd" clip-rule="evenodd" d="M698.317 230.105C698.317 230.105 707.158 226.914 710.558 232.249C715.998 240.619 697.637 248.936 691.151 251.447C687.698 246.948 678.021 226.809 687.489 223.88C693.609 221.996 698.317 230.105 698.317 230.105Z" fill="white"/>
<path fill-rule="evenodd" clip-rule="evenodd" d="M755.021 150.701C765.535 150.44 774.271 158.705 774.585 169.219C774.846 179.733 766.581 188.469 756.067 188.783C745.553 189.044 736.817 180.779 736.503 170.265C736.242 159.751 744.507 150.963 755.021 150.701Z" fill="#CFEAFD"/>
<path d="M750.021 166.464L746.045 166.509L746.166 176.97L750.141 176.925L750.021 166.464Z" fill="white"/>
<path d="M765.956 167.648C765.694 166.968 765.014 166.497 764.282 166.497L756.592 166.288C757.639 165.137 757.691 162.103 757.691 160.69C757.691 160.272 757.325 159.906 756.906 159.906C756.592 159.906 756.331 160.115 756.174 160.377C755.912 161.004 755.285 162.155 754.186 163.201C752.878 164.404 751.728 166.445 751.728 166.445L751.832 176.907L761.457 176.802C762.608 176.802 763.55 175.808 763.497 174.657C763.497 174.396 763.497 174.082 763.497 173.82C763.497 172.303 766.531 170.943 766.531 169.74C766.479 169.165 766.217 168.328 765.956 167.648Z" fill="white"/>
<path fill-rule="evenodd" clip-rule="evenodd" d="M1126.32 272.164C1136.83 271.902 1145.57 280.167 1145.88 290.682C1146.14 301.196 1137.88 309.932 1127.36 310.246C1116.85 310.507 1108.11 302.242 1107.8 291.728C1107.49 281.161 1115.8 272.425 1126.32 272.164Z" fill="white"/>
<path d="M1121.25 287.872L1117.28 287.917L1117.39 298.378L1121.37 298.333L1121.25 287.872Z" fill="#CFEAFD"/>
<path d="M1137.2 289.059C1136.94 288.379 1136.26 287.908 1135.53 287.908L1127.84 287.699C1128.88 286.548 1128.93 283.514 1128.93 282.102C1128.93 281.683 1128.57 281.317 1128.15 281.317C1127.84 281.317 1127.57 281.527 1127.42 281.788C1127.16 282.416 1126.53 283.567 1125.43 284.613C1124.12 285.816 1122.97 287.856 1122.97 287.856L1123.08 298.318L1132.7 298.213C1133.85 298.213 1134.79 297.22 1134.74 296.069C1134.74 295.807 1134.74 295.493 1134.74 295.232C1134.74 293.715 1137.78 292.355 1137.78 291.152C1137.72 290.576 1137.46 289.739 1137.2 289.059Z" fill="#CFEAFD"/>
<path d="M1173.08 486.322L1173.19 467.281C1173.24 462.573 1175.12 458.336 1178.21 455.302C1181.3 452.215 1185.48 450.332 1190.14 450.332C1194.79 450.332 1198.98 452.268 1202.01 455.354C1205.05 458.44 1206.88 462.677 1206.88 467.385L1206.77 486.426C1206.77 487.106 1207.35 487.682 1208.03 487.682C1208.71 487.682 1209.28 487.106 1209.28 486.426L1209.39 467.385C1209.44 456.609 1200.86 447.821 1190.19 447.769C1179.52 447.717 1170.78 456.453 1170.73 467.281L1170.63 486.322C1170.63 487.002 1171.2 487.577 1171.88 487.577C1172.56 487.629 1173.08 487.054 1173.08 486.322Z" fill="#347EC1"/>
<path d="M1213.47 477.06H1127.1V585.341H1213.47V477.06Z" fill="url(#paint5_linear)"/>
<path d="M1226.86 477.323L1213.42 477.271L1203.74 585.344L1235.12 585.448L1226.86 477.323Z" fill="#4893DA"/>
<path d="M1203.74 585.343L1219.54 571.167L1235.12 585.447L1203.74 585.343Z" fill="#347EC1"/>
<path d="M1153.73 487.735C1153.73 486.008 1155.14 484.544 1156.87 484.596C1158.59 484.596 1160.01 486.008 1160.01 487.787C1160.01 489.513 1158.59 490.926 1156.87 490.926C1155.14 490.926 1153.73 489.513 1153.73 487.735Z" fill="#347EC1"/>
<path d="M1189.93 487.837C1189.93 486.111 1191.34 484.646 1193.07 484.698C1194.79 484.698 1196.2 486.111 1196.2 487.889C1196.2 489.668 1194.79 491.028 1193.07 491.028C1191.29 491.028 1189.93 489.616 1189.93 487.837Z" fill="#347EC1"/>
<path d="M1158.18 486.322L1158.28 467.281C1158.33 462.573 1160.22 458.336 1163.3 455.302C1166.39 452.215 1170.57 450.332 1175.23 450.332C1179.88 450.332 1184.07 452.268 1187.1 455.354C1190.14 458.44 1191.97 462.677 1191.97 467.385L1191.86 486.426C1191.86 487.106 1192.44 487.682 1193.12 487.682C1193.8 487.682 1194.37 487.106 1194.37 486.426L1194.48 467.385C1194.53 456.609 1185.95 447.821 1175.23 447.769C1164.56 447.717 1155.82 456.453 1155.77 467.281L1155.66 486.322C1155.66 487.002 1156.24 487.577 1156.92 487.577C1157.6 487.577 1158.18 487.002 1158.18 486.322Z" fill="#347EC1"/>
<path fill-rule="evenodd" clip-rule="evenodd" d="M1175.23 524.821V527.698H1179.78L1180.2 524.821H1175.23ZM1168.01 527.698H1172.61V524.821H1167.23L1168.01 527.698ZM1162.2 527.698H1165.39L1164.66 524.821H1161.31L1162.2 527.698ZM1166.7 532.876L1166.02 530.261H1163.04L1163.88 532.876H1166.7ZM1172.67 532.876V530.261H1168.69L1169.37 532.876H1172.67ZM1179 532.876L1179.41 530.261H1175.28V532.876H1179ZM1185.27 530.261H1182.03L1181.61 532.876H1183.55C1183.6 532.876 1183.65 532.876 1183.7 532.876H1184.85L1185.27 530.261ZM1186.16 524.821H1182.81L1182.4 527.698H1185.69L1186.16 524.821ZM1183.65 519.59L1183.23 522.205H1186.58L1187 519.59H1183.65ZM1175.18 519.59V522.205H1180.56L1180.98 519.59H1175.18ZM1165.92 519.59L1166.6 522.205H1172.61V519.59H1165.92ZM1160.37 522.205H1163.93L1163.25 519.59H1161.94C1161.11 519.59 1160.37 518.91 1160.37 518.02C1160.37 517.183 1161.05 516.503 1161.94 516.503H1190.66L1187.84 533.713C1187.63 535.021 1186.48 535.963 1185.17 535.963H1166.39C1164.77 536.119 1164.56 536.8 1163.41 537.95C1162.47 538.892 1162.41 539.624 1162.1 540.88H1182.55C1183.39 540.88 1184.07 542.397 1184.07 543.234C1184.07 544.071 1184.17 543.338 1183.34 543.338H1159.22L1158.44 543.234C1158.44 540.304 1159.69 537.166 1161.89 535.283C1161.52 534.969 1161.21 534.55 1161.05 534.027L1154.62 514.411C1154.51 514.045 1154.15 513.783 1153.73 513.783H1151.43C1150.59 513.783 1149.91 513.103 1149.91 512.266C1149.91 511.429 1150.59 510.749 1151.43 510.749H1153.73C1155.46 510.749 1157.03 511.848 1157.55 513.522L1160.37 522.205Z" fill="white"/>
<path fill-rule="evenodd" clip-rule="evenodd" d="M1165.81 539.572C1167.38 539.572 1168.69 540.88 1168.69 542.449C1168.69 544.019 1167.38 545.326 1165.81 545.326C1164.24 545.326 1162.93 544.019 1162.93 542.449C1162.93 540.88 1164.19 539.572 1165.81 539.572Z" fill="white"/>
<path fill-rule="evenodd" clip-rule="evenodd" d="M1182.66 539.572C1184.22 539.572 1185.53 540.88 1185.53 542.449C1185.53 544.019 1184.22 545.326 1182.66 545.326C1181.09 545.326 1179.78 544.019 1179.78 542.449C1179.78 540.88 1181.03 539.572 1182.66 539.572Z" fill="white"/>
<path fill-rule="evenodd" clip-rule="evenodd" d="M1157.08 214.778C1169.21 214.464 1179.26 224.037 1179.57 236.121C1179.89 248.257 1170.31 258.3 1158.23 258.614C1146.09 258.928 1136.05 249.355 1135.74 237.272C1135.42 225.188 1144.94 215.092 1157.08 214.778Z" fill="white"/>
<path d="M1151.27 232.946L1146.67 232.998L1146.8 245.08L1151.4 245.029L1151.27 232.946Z" fill="#CFEAFD"/>
<path d="M1169.63 234.292C1169.32 233.507 1168.53 232.984 1167.7 232.984L1158.86 232.722C1160.06 231.362 1160.11 227.91 1160.11 226.236C1160.11 225.713 1159.69 225.347 1159.17 225.347C1158.8 225.347 1158.49 225.556 1158.33 225.922C1158.02 226.654 1157.34 227.962 1156.08 229.165C1154.62 230.578 1153.26 232.879 1153.26 232.879L1153.42 244.963L1164.51 244.858C1165.87 244.858 1166.91 243.707 1166.86 242.4C1166.86 242.086 1166.86 241.772 1166.86 241.406C1166.86 239.627 1170.36 238.058 1170.36 236.698C1170.21 236.018 1169.89 235.076 1169.63 234.292Z" fill="#CFEAFD"/>
<path fill-rule="evenodd" clip-rule="evenodd" d="M660.183 162.834C668.657 166.025 672.999 175.493 669.808 183.967C666.617 192.442 657.149 196.783 648.675 193.592C640.201 190.402 635.859 180.933 639.05 172.459C642.188 163.985 651.657 159.696 660.183 162.834Z" fill="#CFEAFD"/>
<path fill-rule="evenodd" clip-rule="evenodd" d="M655.581 174.971C655.581 174.971 660.76 173.14 662.748 176.226C665.886 181.091 655.215 185.956 651.396 187.42C649.356 184.805 643.707 173.035 649.252 171.309C652.809 170.263 655.581 174.971 655.581 174.971Z" fill="white"/>
<path fill-rule="evenodd" clip-rule="evenodd" d="M920.951 346.495C927.803 346.495 933.401 352.04 933.401 358.945C933.401 365.85 927.856 371.395 920.951 371.395C914.098 371.395 908.501 365.85 908.501 358.945C908.501 352.04 914.098 346.495 920.951 346.495Z" fill="#EE8C21"/>
<path fill-rule="evenodd" clip-rule="evenodd" d="M920.95 351.048L923.565 356.174L929.215 357.063L925.187 361.091L926.076 366.741L920.95 364.178L915.876 366.741L916.765 361.091L912.685 357.063L918.387 356.174L920.95 351.048Z" fill="white"/>
<path d="M673.159 371.76C676.193 369.668 680.325 368.36 684.824 368.36C689.375 368.36 693.507 369.668 696.541 371.76C699.68 373.957 701.668 377.044 701.668 380.496C701.668 383.949 699.732 387.035 696.541 389.232C693.507 391.324 689.375 392.632 684.824 392.632C680.273 392.632 676.141 391.324 673.159 389.232C670.02 387.035 668.032 383.949 668.032 380.496C668.032 377.044 669.968 373.957 673.159 371.76ZM684.824 371.028C680.848 371.028 677.239 372.126 674.676 373.957C672.217 375.684 670.753 377.985 670.753 380.496C670.753 383.007 672.27 385.361 674.676 387.035C677.239 388.866 680.848 389.964 684.824 389.964C688.8 389.964 692.409 388.866 694.972 387.035C697.431 385.309 698.948 383.007 698.948 380.496C698.948 377.985 697.431 375.631 694.972 373.957C692.409 372.126 688.8 371.028 684.824 371.028Z" fill="white"/>
<path d="M696.645 371.76C699.679 369.668 703.811 368.36 708.362 368.36C712.913 368.36 717.046 369.668 720.027 371.76C723.166 373.957 725.154 377.044 725.154 380.496C725.154 383.949 723.218 387.035 720.027 389.232C716.993 391.324 712.861 392.632 708.362 392.632C703.863 392.632 699.679 391.324 696.645 389.232C693.506 387.035 691.518 383.949 691.518 380.496C691.571 377.044 693.506 373.957 696.645 371.76ZM708.362 371.028C704.387 371.028 700.777 372.126 698.214 373.957C695.755 375.684 694.238 377.985 694.238 380.496C694.238 383.007 695.755 385.361 698.214 387.035C700.777 388.866 704.387 389.964 708.362 389.964C712.338 389.964 715.947 388.866 718.51 387.035C720.969 385.309 722.486 383.007 722.486 380.496C722.486 377.985 720.969 375.631 718.51 373.957C715.947 372.126 712.338 371.028 708.362 371.028Z" fill="white"/>
</g>
<defs>
<linearGradient id="paint0_linear" x1="683" y1="1121.57" x2="683" y2="223.873" gradientUnits="userSpaceOnUse">
<stop stop-color="#AFD7FF"/>
<stop offset="0.0536185" stop-color="#B5DAFF"/>
<stop offset="0.4675" stop-color="#DCEDFE"/>
<stop offset="0.7973" stop-color="#F4F9FD"/>
<stop offset="1" stop-color="#FDFDFD"/>
</linearGradient>
<linearGradient id="paint1_linear" x1="674.837" y1="1278.78" x2="674.837" y2="-166.324" gradientUnits="userSpaceOnUse">
<stop stop-color="#1E9DF8"/>
<stop offset="0.1213" stop-color="#41ACF9"/>
<stop offset="0.3514" stop-color="#7DC7FB"/>
<stop offset="0.5625" stop-color="#ADDBFD"/>
<stop offset="0.7477" stop-color="#CFEAFE"/>
<stop offset="0.8999" stop-color="#E4F4FF"/>
<stop offset="1" stop-color="#ECF7FF"/>
</linearGradient>
<linearGradient id="paint2_linear" x1="257.48" y1="436.943" x2="257.48" y2="-133.526" gradientUnits="userSpaceOnUse">
<stop stop-color="#1E9DF8"/>
<stop offset="0.1213" stop-color="#41ACF9"/>
<stop offset="0.3514" stop-color="#7DC7FB"/>
<stop offset="0.5625" stop-color="#ADDBFD"/>
<stop offset="0.7477" stop-color="#CFEAFE"/>
<stop offset="0.8999" stop-color="#E4F4FF"/>
<stop offset="1" stop-color="#ECF7FF"/>
</linearGradient>
<linearGradient id="paint3_linear" x1="934.969" y1="560.238" x2="934.979" y2="204.875" gradientUnits="userSpaceOnUse">
<stop stop-color="#1E9DF8"/>
<stop offset="1" stop-color="#A5DCFF"/>
</linearGradient>
<linearGradient id="paint4_linear" x1="1094.82" y1="542.962" x2="1094.82" y2="387.064" gradientUnits="userSpaceOnUse">
<stop stop-color="#F37B20"/>
<stop offset="1" stop-color="#FDCA7F"/>
</linearGradient>
<linearGradient id="paint5_linear" x1="1170.11" y1="585.127" x2="1170.37" y2="489.202" gradientUnits="userSpaceOnUse">
<stop stop-color="#1E9DF8"/>
<stop offset="1" stop-color="#A2DBFF"/>
</linearGradient>
</defs>
</svg>
