<svg width="46" height="31" viewBox="0 0 46 31" fill="none" xmlns="http://www.w3.org/2000/svg">
<path d="M34.4051 0.214435C34.3082 0.102835 34.1791 0.0390625 34.0338 0.0390625H3.93939C3.77794 0.0390625 3.63264 0.102835 3.51962 0.214435C3.40661 0.326035 3.34203 0.469517 3.34203 0.628946C3.34203 0.947803 3.60035 1.21884 3.93939 1.21884H11.6406C11.8989 1.26666 12.1088 1.50581 12.1088 1.77684C12.1088 2.00004 11.9796 2.19135 11.7859 2.28701H7.49131C7.32986 2.28701 7.18455 2.35078 7.07154 2.46238C6.95852 2.57398 6.89394 2.71746 6.89394 2.87689C6.89394 3.19575 7.15226 3.46678 7.49131 3.46678H11.3338C11.5922 3.51461 11.802 3.75375 11.802 4.02478C11.802 4.24798 11.6729 4.43929 11.4791 4.53495H0.597367C0.435916 4.53495 0.29061 4.59872 0.177594 4.71032C0.0645788 4.82192 0 4.96541 0 5.12484C0 5.44369 0.25832 5.71472 0.597367 5.71472H11.9312C12.1411 5.76255 12.3025 5.95386 12.3025 6.17706C12.3025 6.35244 12.2057 6.51187 12.0604 6.59158H2.87382C2.71237 6.59158 2.56706 6.65535 2.45405 6.76695C2.34103 6.87855 2.27645 7.02203 2.27645 7.18146C2.27645 7.50032 2.53477 7.77135 2.87382 7.77135H20.0683L17.1461 25.9462H17.1138L16.3065 31.0001H20.1813C20.262 31.0001 20.3589 30.9842 20.4235 30.9523C22.2317 30.8566 23.8785 29.3899 24.1692 27.6043L27.3174 7.72352V7.67569H36.1488L36.1972 7.21335L36.5363 3.35518C36.6654 1.85655 35.7613 0.597064 34.4051 0.214435ZM12.0765 2.86095V2.81312C12.0765 2.82906 12.0927 2.845 12.0765 2.86095Z" fill="#DC1E52"/>
<path d="M43.8822 14.4832C43.3978 17.0181 41.9125 18.7559 40.3464 20.0313C39.4584 20.7487 38.3928 21.1792 37.6179 21.4183L41.1214 30.9203H35.9227C35.6966 30.9203 35.4706 30.9043 35.2607 30.8725H32.7098V30.8565H32.6452L29.287 21.7053H26.4294C26.1065 21.7053 25.832 21.4502 25.832 21.1154V21.0198C25.832 20.7009 26.0903 20.4299 26.4294 20.4299H28.9318C28.9803 20.4139 29.0287 20.3821 29.061 20.3502C29.1256 20.2864 29.174 20.1907 29.174 20.0951C29.174 19.9357 29.0772 19.8081 28.9318 19.7603H27.6241C27.3012 19.7603 27.0267 19.5052 27.0267 19.1704V19.0747C27.0267 18.7559 27.285 18.4849 27.6241 18.4849H29.2386C29.4001 18.4211 29.5131 18.2776 29.5131 18.1022C29.5131 17.9269 29.4001 17.7674 29.2386 17.7196H29.1902C28.8673 17.7196 28.5928 17.4645 28.5928 17.1297V17.0341C28.5928 16.7152 28.8511 16.4442 29.1902 16.4442H29.5292C29.5938 16.4282 29.6584 16.3804 29.7068 16.3326C29.7875 16.2529 29.836 16.1253 29.836 16.0137C29.836 15.8065 29.7068 15.6311 29.5131 15.5833H27.3981C27.0752 15.5833 26.8007 15.3282 26.8007 14.9934V14.8977C26.8007 14.5789 27.059 14.3078 27.3981 14.3078H33.2264C33.7754 14.2759 34.2113 14.2281 34.4212 14.1803C35.5029 13.8933 36.1971 11.8526 36.6815 10.5772C37.1658 9.31772 37.7632 5.02909 37.4726 2.79709C37.1981 0.772344 34.9055 0.0708571 34.9055 0.0708571C34.9055 0.0708571 37.8601 -0.0885714 39.3293 0.0708571C41.2021 0.262171 41.9125 0.708572 43.1718 1.52166C44.3504 2.30286 45.0446 3.84932 45.1415 4.82183C45.3352 6.59149 44.3665 11.9483 43.8822 14.4832Z" fill="#1A4159"/>
</svg>
