<svg width="130" height="31" viewBox="0 0 130 31" fill="none" xmlns="http://www.w3.org/2000/svg">
<path d="M5.77988 3.5464H3.63258C3.30968 3.5464 3.03522 3.29132 3.03522 2.95652C3.03522 2.62172 3.29354 2.36663 3.63258 2.36663H5.77988C6.10278 2.36663 6.37724 2.62172 6.37724 2.95652C6.37724 3.29132 6.10278 3.5464 5.77988 3.5464Z" fill="#DC1E52"/>
<path d="M34.4051 0.214347C34.3082 0.102747 34.1791 0.0389748 34.0338 0.0389748H3.93939C3.77794 0.0389748 3.63264 0.102747 3.51962 0.214347C3.40661 0.325947 3.34203 0.469429 3.34203 0.628858C3.34203 0.947715 3.60035 1.21875 3.93939 1.21875H11.6406C11.8989 1.26657 12.1088 1.50572 12.1088 1.77675C12.1088 1.99995 11.9796 2.19126 11.7859 2.28692H7.49131C7.32986 2.28692 7.18455 2.35069 7.07154 2.46229C6.95852 2.57389 6.89394 2.71737 6.89394 2.8768C6.89394 3.19566 7.15226 3.46669 7.49131 3.46669H11.3338C11.5922 3.51452 11.802 3.75366 11.802 4.02469C11.802 4.24789 11.6729 4.4392 11.4791 4.53486H0.597367C0.435916 4.53486 0.29061 4.59863 0.177594 4.71023C0.0645788 4.82183 0 4.96532 0 5.12475C0 5.4436 0.25832 5.71463 0.597367 5.71463H11.9312C12.1411 5.76246 12.3025 5.95377 12.3025 6.17697C12.3025 6.35235 12.2057 6.51178 12.0604 6.59149H2.87382C2.71237 6.59149 2.56706 6.65526 2.45405 6.76686C2.34103 6.87846 2.27645 7.02194 2.27645 7.18137C2.27645 7.50023 2.53477 7.77126 2.87382 7.77126H20.0683L17.1461 25.9461H17.1138L16.3065 31H20.1813C20.262 31 20.3589 30.9841 20.4235 30.9522C22.2317 30.8565 23.8785 29.3898 24.1692 27.6042L27.3174 7.72343V7.6756H36.1488L36.1972 7.21326L36.5363 3.35509C36.6654 1.85646 35.7613 0.596976 34.4051 0.214347ZM12.0765 2.86086V2.81303C12.0765 2.82897 12.0927 2.84491 12.0765 2.86086Z" fill="#DC1E52"/>
<path d="M43.8823 14.4832C43.3979 17.0181 41.9126 18.7559 40.3465 20.0313C39.4585 20.7487 38.3929 21.1792 37.618 21.4183L41.1215 30.9203H35.9228C35.6967 30.9203 35.4707 30.9043 35.2608 30.8725H32.7099V30.8565H32.6453L29.2871 21.7053H26.4295C26.1066 21.7053 25.8321 21.4502 25.8321 21.1154V21.0198C25.8321 20.7009 26.0904 20.4299 26.4295 20.4299H28.9319C28.9804 20.4139 29.0288 20.3821 29.0611 20.3502C29.1257 20.2864 29.1741 20.1907 29.1741 20.0951C29.1741 19.9357 29.0773 19.8081 28.9319 19.7603H27.6242C27.3013 19.7603 27.0268 19.5052 27.0268 19.1704V19.0747C27.0268 18.7559 27.2851 18.4849 27.6242 18.4849H29.2387C29.4002 18.4211 29.5132 18.2776 29.5132 18.1022C29.5132 17.9269 29.4002 17.7674 29.2387 17.7196H29.1903C28.8674 17.7196 28.5929 17.4645 28.5929 17.1297V17.0341C28.5929 16.7152 28.8512 16.4442 29.1903 16.4442H29.5293C29.5939 16.4282 29.6585 16.3804 29.7069 16.3326C29.7876 16.2529 29.8361 16.1253 29.8361 16.0137C29.8361 15.8065 29.7069 15.6311 29.5132 15.5833H27.3982C27.0753 15.5833 26.8008 15.3282 26.8008 14.9934V14.8977C26.8008 14.5789 27.0591 14.3078 27.3982 14.3078H33.2265C33.7755 14.2759 34.2114 14.2281 34.4213 14.1803C35.503 13.8933 36.1972 11.8526 36.6816 10.5772C37.1659 9.31772 37.7633 5.02909 37.4727 2.79709C37.1982 0.772344 34.9056 0.0708571 34.9056 0.0708571C34.9056 0.0708571 37.8602 -0.0885714 39.3294 0.0708571C41.2022 0.262171 41.9126 0.708572 43.1719 1.52166C44.3505 2.30286 45.0447 3.84932 45.1416 4.82183C45.3353 6.59149 44.3666 11.9483 43.8823 14.4832Z" fill="#1A4159"/>
<path d="M27.8019 17.6239H27.5112C27.1883 17.6239 26.9139 17.3689 26.9139 17.0341C26.9139 16.7152 27.1722 16.4442 27.5112 16.4442H27.8019C28.1248 16.4442 28.3992 16.6993 28.3992 17.0341C28.3831 17.3689 28.1248 17.6239 27.8019 17.6239Z" fill="#1A4159"/>
<path d="M54.5865 12.1396H50.6309V8.87132H62.4975V12.1396H58.542V23.6185H54.5865V12.1396ZM64.7094 8.87132H74.3642V12.1396H68.6649V14.4513H73.5408V17.7196H68.6649V20.3502H74.5902V23.6185H64.7094V8.87132ZM76.576 21.2589L82.695 12.1396H77.1734V8.87132H87.5708V11.2309L81.4518 20.3502H87.6192V23.6185H76.576V21.2589ZM95.1913 18.6762H93.6736V23.6185H89.7181V8.85538H95.3689C98.5817 8.85538 101.343 9.93949 101.343 13.6223C101.343 15.7267 100.374 17.1138 98.9208 17.879L102.166 23.6025H97.7583L95.1913 18.6762ZM95.0944 15.5833C96.6605 15.5833 97.4839 14.8977 97.4839 13.6382C97.4839 12.3788 96.6605 11.9642 95.0944 11.9642H93.6736V15.5992H95.0944V15.5833ZM104.2 8.87132H113.855V12.1396H108.156V14.4513H113.032V17.7196H108.156V20.3502H114.081V23.6185H104.2V8.87132ZM116.987 8.87132H120.943V14.3716H121.04L124.817 8.87132H129.144L124.672 14.8658L130 23.6344H125.673L122.363 17.9587L120.943 19.9516V23.6185H116.987V8.87132V8.87132Z" fill="#1A4159"/>
</svg>
