<svg width="11" height="15" viewBox="0 0 11 15" fill="none" xmlns="http://www.w3.org/2000/svg">
<path d="M10.4963 0.881348H1.14144C0.933196 0.881348 0.760742 1.05088 0.760742 1.26204V14.4114C0.760742 14.6194 0.930169 14.7921 1.14144 14.7921H10.4962C10.7045 14.7921 10.8769 14.6225 10.8769 14.4114V1.26194C10.8769 1.05391 10.7075 0.881348 10.4963 0.881348ZM3.11606 13.4301C2.57773 13.4301 2.1407 12.9929 2.1407 12.4547C2.1407 11.9165 2.57783 11.4793 3.11606 11.4793C3.65429 11.4793 4.09143 11.9165 4.09143 12.4547C4.09121 12.9929 3.65408 13.4301 3.11606 13.4301ZM3.11606 10.7656C2.57773 10.7656 2.1407 10.3285 2.1407 9.79025C2.1407 9.25202 2.57783 8.81488 3.11606 8.81488C3.65429 8.81488 4.09143 9.25202 4.09143 9.79025C4.09121 10.3285 3.65408 10.7656 3.11606 10.7656ZM3.11606 8.30044C2.57773 8.30044 2.1407 7.86341 2.1407 7.32507C2.1407 6.78684 2.57783 6.34971 3.11606 6.34971C3.65429 6.34971 4.09143 6.78684 4.09143 7.32507C4.09121 7.86341 3.65408 8.30044 3.11606 8.30044ZM5.83078 8.81488C6.36901 8.81488 6.80615 9.25202 6.80615 9.79025C6.80615 10.3286 6.36901 10.7656 5.83078 10.7656C5.29244 10.7656 4.85542 10.3285 4.85542 9.79025C4.85542 9.25202 5.29558 8.81488 5.83078 8.81488ZM4.85844 7.32518C4.85844 6.78695 5.29558 6.34981 5.83381 6.34981C6.37215 6.34981 6.80615 6.78987 6.80615 7.32518C6.80615 7.86049 6.36901 8.30055 5.83078 8.30055C5.29558 8.30044 4.85844 7.86341 4.85844 7.32518ZM5.8337 13.4301C5.29547 13.4301 4.85833 12.9929 4.85833 12.4547C4.85833 11.9165 5.29547 11.4793 5.8337 11.4793C6.37193 11.4793 6.80906 11.9165 6.80906 12.4547C6.80906 12.9929 6.36901 13.4301 5.8337 13.4301ZM8.54874 13.4301C8.0104 13.4301 7.57338 12.9929 7.57338 12.4547C7.57338 11.9165 8.01051 11.4793 8.54874 11.4793C9.08697 11.4793 9.52411 11.9165 9.52411 12.4547C9.52389 12.9929 9.08675 13.4301 8.54874 13.4301ZM8.54874 10.7656C8.0104 10.7656 7.57338 10.3256 7.57338 9.79025C7.57338 9.25504 8.01051 8.81488 8.54874 8.81488C9.08697 8.81488 9.52411 9.25202 9.52411 9.79025C9.52389 10.3285 9.08675 10.7656 8.54874 10.7656ZM8.54874 8.30044C8.0104 8.30044 7.57338 7.86341 7.57338 7.32507C7.57338 6.78684 8.01051 6.34971 8.54874 6.34971C9.08697 6.34971 9.52411 6.78684 9.52411 7.32507C9.52389 7.86341 9.08675 8.30044 8.54874 8.30044ZM9.6132 5.30904C9.6132 5.51728 9.44388 5.68973 9.2325 5.68973H2.40516C2.19692 5.68973 2.02447 5.52031 2.02447 5.30904V2.52869C2.02447 2.32055 2.19389 2.1481 2.40516 2.1481H9.2325C9.44075 2.1481 9.6132 2.31753 9.6132 2.52869V5.30904Z" fill="white"/>
</svg>
