<svg width="124" height="124" viewBox="0 0 124 124" fill="none" xmlns="http://www.w3.org/2000/svg">
<g opacity="0.5">
<rect x="0.5" y="0.390137" width="123" height="123" rx="61.5" fill="#DC1E52"/>
<mask id="mask0" mask-type="alpha" maskUnits="userSpaceOnUse" x="0" y="0" width="124" height="124">
<rect x="0.5" y="0.390137" width="123" height="123" rx="61.5" fill="white"/>
</mask>
<g mask="url(#mask0)">
</g>
</g>
<rect x="16.1123" y="16.0022" width="90" height="90" rx="45" fill="#DC1E52"/>
<path d="M73.4677 59.3814L54.5493 48.1603C53.9901 47.8468 53.2956 47.899 52.7711 47.899C50.6731 47.899 50.6824 49.4239 50.6824 49.8102V72.7451C50.6824 73.0717 50.6732 74.6564 52.7711 74.6564C53.2956 74.6564 53.9902 74.7084 54.5493 74.395L73.4676 63.174C75.0204 62.3041 74.7521 61.2776 74.7521 61.2776C74.7521 61.2776 75.0206 60.2511 73.4677 59.3814Z" fill="white"/>
<mask id="mask1" mask-type="alpha" maskUnits="userSpaceOnUse" x="50" y="47" width="25" height="28">
<path d="M73.4677 59.3814L54.5493 48.1603C53.9901 47.8468 53.2956 47.899 52.7711 47.899C50.6731 47.899 50.6824 49.4239 50.6824 49.8102V72.7451C50.6824 73.0717 50.6732 74.6564 52.7711 74.6564C53.2956 74.6564 53.9902 74.7084 54.5493 74.395L73.4676 63.174C75.0204 62.3041 74.7521 61.2776 74.7521 61.2776C74.7521 61.2776 75.0206 60.2511 73.4677 59.3814Z" fill="white"/>
</mask>
<g mask="url(#mask1)">
</g>
</svg>
