<svg width="117" height="20" viewBox="0 0 117 20" fill="none" xmlns="http://www.w3.org/2000/svg">
<path d="M9.93085 2.16369L11.6061 7.31963L11.7184 7.66512H12.0816H17.5029L13.117 10.8517L12.8231 11.0652L12.9354 11.4107L14.6106 16.5666L10.2247 13.3801L9.93085 13.1665L9.63696 13.3801L5.25106 16.5666L6.92632 11.4107L7.03858 11.0652L6.74469 10.8517L2.35878 7.66512H7.78006H8.14333L8.25559 7.31963L9.93085 2.16369Z" stroke="#868686"/>
<path d="M58.2499 2.16369L59.9252 7.31963L60.0375 7.66512H60.4007H65.822L61.4361 10.8517L61.1422 11.0652L61.2545 11.4107L62.9297 16.5666L58.5438 13.3801L58.2499 13.1665L57.9561 13.3801L53.5701 16.5666L55.2454 11.4107L55.3577 11.0652L55.0638 10.8517L50.6779 7.66512H56.0992H56.4624L56.5747 7.31963L58.2499 2.16369Z" stroke="#868686"/>
<path d="M34.0904 2.16369L35.7657 7.31963L35.8779 7.66512H36.2412H41.6625L37.2766 10.8517L36.9827 11.0652L37.0949 11.4107L38.7702 16.5666L34.3843 13.3801L34.0904 13.1665L33.7965 13.3801L29.4106 16.5666L31.0859 11.4107L31.1981 11.0652L30.9042 10.8517L26.5183 7.66512H31.9396H32.3029L32.4151 7.31963L34.0904 2.16369Z" stroke="#868686"/>
<path d="M82.4094 2.16369L84.0846 7.31963L84.1969 7.66512H84.5602H89.9814L85.5955 10.8517L85.3016 11.0652L85.4139 11.4107L87.0892 16.5666L82.7033 13.3801L82.4094 13.1665L82.1155 13.3801L77.7296 16.5666L79.4048 11.4107L79.5171 11.0652L79.2232 10.8517L74.8373 7.66512H80.2586H80.6218L80.7341 7.31963L82.4094 2.16369Z" stroke="#868686"/>
<path d="M106.569 2.16369L108.244 7.31963L108.357 7.66512H108.72H114.141L109.755 10.8517L109.461 11.0652L109.574 11.4107L111.249 16.5666L106.863 13.3801L106.569 13.1665L106.275 13.3801L101.889 16.5666L103.565 11.4107L103.677 11.0652L103.383 10.8517L98.997 7.66512H104.418H104.782L104.894 7.31963L106.569 2.16369Z" stroke="#868686"/>
</svg>
