<svg width="97" height="25" viewBox="0 0 97 25" fill="none" xmlns="http://www.w3.org/2000/svg">
<rect x="1.28564" y="0.833252" width="94.6161" height="23.5705" rx="3.5" fill="white" stroke="#B9B9B9"/>
<rect width="61.9312" height="14.9976" rx="4" transform="matrix(-1 0 0 1 85.7563 6.04004)" fill="#D8D8DE"/>
<path d="M67.709 6.04004H27.8251C25.616 6.04004 23.8251 7.8309 23.8251 10.04V17.0377C23.8251 19.2468 25.616 21.0377 27.8251 21.0377H67.709V6.04004Z" fill="#DC1E52"/>
<path fill-rule="evenodd" clip-rule="evenodd" d="M11.4621 6.19922C8.5908 6.19922 6.26855 8.52146 6.26855 11.3927C6.26855 15.2879 11.4621 21.0378 11.4621 21.0378C11.4621 21.0378 16.6556 15.2879 16.6556 11.3927C16.6556 8.52146 14.3333 6.19922 11.4621 6.19922ZM11.4621 13.2477C10.4382 13.2477 9.60725 12.4167 9.60725 11.3929C9.60725 10.369 10.4382 9.53803 11.4621 9.53803C12.4859 9.53803 13.3169 10.369 13.3169 11.3929C13.3169 12.4167 12.4859 13.2477 11.4621 13.2477Z" fill="#DC1E52"/>
</svg>
