<svg width="15" height="19" viewBox="0 0 15 19" fill="none" xmlns="http://www.w3.org/2000/svg">
<path fill-rule="evenodd" clip-rule="evenodd" d="M2.88495 4.5625V7.29979H1.97161C0.996736 7.29979 0.146606 8.00823 0.146606 8.97271V16.5769C0.146606 17.5413 0.996736 18.2498 1.97161 18.2498H12.9216C13.8965 18.2498 14.7466 17.5413 14.7466 16.5769V8.97271C14.7466 8.00823 13.8965 7.29979 12.9216 7.29979H12.0099V4.5625C12.0099 2.0427 9.96724 0 7.44745 0C4.92765 0 2.88495 2.0427 2.88495 4.5625ZM10.1849 4.5625V7.29979H4.70995V4.5625C4.70995 3.05062 5.93557 1.825 7.44745 1.825C8.95932 1.825 10.1849 3.05062 10.1849 4.5625ZM1.97077 16.425V9.12499H12.9208V16.425H1.97077ZM8.35827 12.7748C8.35827 13.2788 7.94973 13.6873 7.44577 13.6873C6.94181 13.6873 6.53327 13.2788 6.53327 12.7748C6.53327 12.2708 6.94181 11.8623 7.44577 11.8623C7.94973 11.8623 8.35827 12.2708 8.35827 12.7748Z" fill="#DC1E52"/>
</svg>
