<svg width="68" height="70" viewBox="0 0 68 70" fill="none" xmlns="http://www.w3.org/2000/svg">
<path d="M41.3913 29.1667H35.4783V17.5C35.4783 14.4058 34.2323 11.4383 32.0145 9.25042C29.7967 7.0625 26.7887 5.83333 23.6522 5.83333C20.5157 5.83333 17.5077 7.0625 15.2899 9.25042C13.0721 11.4383 11.8261 14.4058 11.8261 17.5V29.1667H5.91309V17.5C5.91309 12.8587 7.78202 8.40752 11.1088 5.12563C14.4355 1.84374 18.9475 0 23.6522 0C28.3569 0 32.8689 1.84374 36.1957 5.12563C39.5224 8.40752 41.3913 12.8587 41.3913 17.5V29.1667Z" fill="#B7B7B7"/>
<path d="M44.3478 26.25H2.95652C1.32368 26.25 0 27.5558 0 29.1667V61.25C0 62.8608 1.32368 64.1667 2.95652 64.1667H44.3478C45.9806 64.1667 47.3043 62.8608 47.3043 61.25V29.1667C47.3043 27.5558 45.9806 26.25 44.3478 26.25Z" fill="#F0F0F0"/>
<path d="M11.8261 58.3333C11.042 58.3333 10.29 58.026 9.7355 57.4791C9.18105 56.9321 8.86956 56.1902 8.86956 55.4167V26.25H2.95652C2.1724 26.25 1.4204 26.5573 0.865944 27.1043C0.311489 27.6513 0 28.3931 0 29.1667V61.25C0 62.0235 0.311489 62.7654 0.865944 63.3124C1.4204 63.8594 2.1724 64.1667 2.95652 64.1667H44.3478C45.1319 64.1667 45.8839 63.8594 46.4384 63.3124C46.9928 62.7654 47.3043 62.0235 47.3043 61.25V58.3333H11.8261Z" fill="#DEDEDE"/>
<path d="M29.5653 40.8327C29.5663 39.8085 29.2938 38.8022 28.7755 37.9148C28.2571 37.0274 27.511 36.2903 26.6123 35.7776C25.7135 35.2649 24.6938 34.9947 23.6556 34.9941C22.6174 34.9936 21.5974 35.2627 20.6981 35.7743C19.7988 36.286 19.0518 37.0223 18.5325 37.9091C18.0131 38.7959 17.7395 39.802 17.7393 40.8262C17.739 41.8503 18.0121 42.8565 18.5311 43.7436C19.0501 44.6306 19.7967 45.3672 20.6958 45.8793V55.4161H26.6088V45.8793C27.5074 45.3683 28.2538 44.6329 28.7728 43.747C29.2918 42.8611 29.5651 41.8559 29.5653 40.8327Z" fill="#DEDEDE"/>
<path d="M20.6953 40.833C20.6961 39.5407 21.1321 38.2852 21.9348 37.2639C22.7376 36.2426 23.8615 35.5133 25.1301 35.1907C23.7465 34.8366 22.2798 34.9893 21.0017 35.6206C19.7236 36.2519 18.7209 37.319 18.1795 38.6239C17.638 39.9289 17.5946 41.3833 18.0572 42.7175C18.5198 44.0517 19.4571 45.1751 20.6953 45.8796V55.4163H23.6518V45.8796C22.7532 45.3686 22.0068 44.6332 21.4878 43.7473C20.9688 42.8614 20.6955 41.8562 20.6953 40.833Z" fill="#B7B7B7"/>
<path d="M50.2616 70C60.0586 70 68.0007 62.165 68.0007 52.5C68.0007 42.835 60.0586 35 50.2616 35C40.4645 35 32.5225 42.835 32.5225 52.5C32.5225 62.165 40.4645 70 50.2616 70Z" fill="#DC1E52"/>
<path d="M50.2608 58.3335C49.8023 58.3336 49.3502 58.228 48.9404 58.0251L43.0273 55.1084L45.6719 49.8912L49.2504 51.6562L53.7159 45.0488L58.6355 48.2845L52.7225 57.0345C52.4524 57.4343 52.0863 57.7621 51.6569 57.9887C51.2274 58.2153 50.7479 58.3338 50.2608 58.3335Z" fill="white"/>
</svg>
