<svg id="globe_icon" xmlns="http://www.w3.org/2000/svg" width="50" height="41.58" viewBox="0 0 50 41.58">
  <path id="Path_2178" data-name="Path 2178" d="M203.764,54.046a21.342,21.342,0,0,0-26.94-2.4.989.989,0,0,0-.256,1.391,1.025,1.025,0,0,0,1.413.252,19.155,19.155,0,0,1,6.269-2.791,12.928,12.928,0,0,0-1.148,1.663,27.926,27.926,0,0,0-3.125,9.8,1,1,0,0,0,.856,1.134,1.014,1.014,0,0,0,1.152-.843c.124-.824.272-1.628.442-2.4h12.819a41.34,41.34,0,0,1,.9,7.894H193.3a1,1,0,1,0,0,2h2.843a41.34,41.34,0,0,1-.9,7.894h-5.024a1,1,0,1,0,0,2h4.519a24.678,24.678,0,0,1-.951,2.716c-1.286,3.054-2.934,4.9-4.573,5.148q-.378.008-.755,0c-2.864-.424-5.58-5.671-6.551-12.79a1.015,1.015,0,0,0-2.012.266A28.823,28.823,0,0,0,183,85.153a13.222,13.222,0,0,0,1.225,1.808,18.938,18.938,0,0,1-6.781-3.141,1.026,1.026,0,0,0-1.421.2.989.989,0,0,0,.207,1.4,21.315,21.315,0,0,0,12.6,4.106h0q.722,0,1.447-.049a21.251,21.251,0,0,0,13.482-6.039,20.556,20.556,0,0,0,0-29.394Zm4.127,13.7h-9.718a43.765,43.765,0,0,0-.855-7.894h8.336A18.424,18.424,0,0,1,207.891,67.743Zm-24.959-9.893a20.8,20.8,0,0,1,1.926-4.692c1.212-2.065,2.623-3.2,3.975-3.2,1.763,0,3.569,1.887,4.955,5.178a24.675,24.675,0,0,1,.951,2.716Zm12.732-3.481a15.669,15.669,0,0,0-2.245-3.87,19.143,19.143,0,0,1,10.968,7.351h-7.543A27.245,27.245,0,0,0,195.665,54.37Zm6.664,27.657a19.044,19.044,0,0,1-8.876,4.919,15.75,15.75,0,0,0,2.212-3.83,27.25,27.25,0,0,0,1.18-3.481h7.543A19.066,19.066,0,0,1,202.329,82.026Zm-5.01-4.39a43.759,43.759,0,0,0,.855-7.894h9.719a18.422,18.422,0,0,1-2.237,7.894Z" transform="translate(-159.949 -47.948)" fill="#353535"/>
  <path id="Path_2179" data-name="Path 2179" d="M27.742,134.025a7.512,7.512,0,0,0-5.895-2.864H18.619l-3.259-7.716a.89.89,0,0,0-.821-.539H11.18a.883.883,0,0,0-.889.875v7.38H7.045l-2.272-2.68a.9.9,0,0,0-.683-.314H.889a.892.892,0,0,0-.769.435.864.864,0,0,0,0,.873l2.94,5.082-2.94,5.082a.864.864,0,0,0,0,.873.892.892,0,0,0,.769.436h3.2a.9.9,0,0,0,.683-.314l2.272-2.68h3.246v7.389a.883.883,0,0,0,.889.875h3.358a.89.89,0,0,0,.821-.54l3.259-7.725h3.228a7.512,7.512,0,0,0,5.895-2.864A.864.864,0,0,0,27.742,134.025ZM12.07,124.656h1.876l2.747,6.5H12.07v-6.5Zm1.875,19.811H12.07v-6.519H16.7Zm7.9-8.264H6.767a.924.924,0,0,0-.172-.008.9.9,0,0,0-.641.313L3.675,139.2H2.419l2.434-4.207a.863.863,0,0,0,0-.866l-2.434-4.207H3.675l2.28,2.689a.894.894,0,0,0,.643.314.913.913,0,0,0,.171-.009h15.08a5.732,5.732,0,0,1,4.01,1.646A5.732,5.732,0,0,1,21.848,136.2Z" transform="translate(0 -113.767)" fill="#353535"/>
</svg>