<svg id="link_icon" xmlns="http://www.w3.org/2000/svg" width="50" height="45" viewBox="0 0 50 45">
  <path id="Path_2186" data-name="Path 2186" d="M41.146,39.743a1.014,1.014,0,0,0,1-1.023V26.448a5.072,5.072,0,0,0-5.018-5.114H5.018A5.072,5.072,0,0,0,0,26.448V61.22a5.072,5.072,0,0,0,5.018,5.114H37.131a5.072,5.072,0,0,0,5.018-5.114V55.084a1,1,0,1,0-2.007,0V61.22a3.043,3.043,0,0,1-3.011,3.068H5.018A3.043,3.043,0,0,1,2.007,61.22V31.561H40.142V38.72A1.014,1.014,0,0,0,41.146,39.743ZM2.007,29.516V26.448A3.043,3.043,0,0,1,5.018,23.38H37.131a3.044,3.044,0,0,1,3.011,3.068v3.068Z" transform="translate(0 -21.334)" fill="#353535"/>
  <circle id="Ellipse_331" data-name="Ellipse 331" cx="1.142" cy="1.142" r="1.142" transform="translate(4.567 4.567)" fill="#353535"/>
  <circle id="Ellipse_332" data-name="Ellipse 332" cx="1.142" cy="1.142" r="1.142" transform="translate(8.125 4.567)" fill="#353535"/>
  <circle id="Ellipse_333" data-name="Ellipse 333" cx="1.142" cy="1.142" r="1.142" transform="translate(12.187 4.567)" fill="#353535"/>
  <path id="Path_2187" data-name="Path 2187" d="M473.034,234.681a1.129,1.129,0,0,0-1.384.831l-2.283,9.134a1.139,1.139,0,0,0,.831,1.384,1.161,1.161,0,0,0,.276.034,1.138,1.138,0,0,0,1.108-.865l2.283-9.134A1.139,1.139,0,0,0,473.034,234.681Z" transform="translate(-423.899 -214.893)" fill="#353535"/>
  <path id="Path_2188" data-name="Path 2188" d="M430.367,234.681a1.128,1.128,0,0,0-1.384.831l-2.283,9.134a1.139,1.139,0,0,0,.831,1.384,1.161,1.161,0,0,0,.276.034,1.138,1.138,0,0,0,1.108-.865l2.283-9.134A1.139,1.139,0,0,0,430.367,234.681Z" transform="translate(-385.799 -214.893)" fill="#353535"/>
  <circle id="Ellipse_334" data-name="Ellipse 334" cx="1.142" cy="1.142" r="1.142" transform="translate(38.593 22.375)" fill="#353535"/>
  <circle id="Ellipse_335" data-name="Ellipse 335" cx="1.142" cy="1.142" r="1.142" transform="translate(38.593 26.444)" fill="#353535"/>
  <path id="Path_2189" data-name="Path 2189" d="M44.277,256a.853.853,0,1,0-1.516.785l2.3,4.437a.853.853,0,0,0,1.527-.023l1.391-2.9,1.51,2.918a.854.854,0,0,0,.758.461h.013a.854.854,0,0,0,.757-.484l2.131-4.437a.853.853,0,1,0-1.538-.739l-1.391,2.9L48.705,256a.853.853,0,0,0-1.527.023l-1.39,2.9Z" transform="translate(-39.099 -232.738)" fill="#353535"/>
  <path id="Path_2190" data-name="Path 2190" d="M159.854,255.988a.853.853,0,1,0-1.516.785l2.3,4.437a.853.853,0,0,0,1.527-.023l1.391-2.9,1.51,2.918a.854.854,0,0,0,.758.461h.013a.854.854,0,0,0,.757-.484l2.131-4.437a.853.853,0,1,0-1.538-.739l-1.391,2.9-1.511-2.918a.853.853,0,0,0-1.527.023l-1.39,2.9Z" transform="translate(-143.039 -232.728)" fill="#353535"/>
  <path id="Path_2191" data-name="Path 2191" d="M276.132,252.414a.853.853,0,0,0-1.516.785l2.3,4.437a.853.853,0,0,0,1.527-.023l1.391-2.9,1.51,2.918a.854.854,0,0,0,.758.461h.013a.854.854,0,0,0,.757-.484L285,253.176a.853.853,0,1,0-1.538-.739l-1.391,2.9-1.511-2.918a.853.853,0,0,0-1.527.023l-1.39,2.9Z" transform="translate(-247.963 -229.453)" fill="#353535"/>
</svg>