<svg id="shop_icon" xmlns="http://www.w3.org/2000/svg" width="50" height="45" viewBox="0 0 50 45">
  <path id="Path_2176" data-name="Path 2176" d="M21.6,66.449a1,1,0,0,0-1.01-1H6.5A4.453,4.453,0,0,1,2.03,61.021V32.164H8.151v3.77a1.01,1.01,0,0,0,2.02,0v-3.77H22.342v3.77a1.01,1.01,0,0,0,2.02,0v-3.77h6.121v1.971a1.01,1.01,0,0,0,2.02,0V31.163a1,1,0,0,0-1.01-1H24.352a8.11,8.11,0,0,0-16.2,0H1.01a1,1,0,0,0-1.01,1V61.021A6.462,6.462,0,0,0,6.488,67.45H20.577A1.01,1.01,0,0,0,21.6,66.449Zm-5.346-42a6.081,6.081,0,0,1,6.08,5.711H10.171A6.081,6.081,0,0,1,16.252,24.451Z" transform="translate(0 -22.45)" fill="#353535"/>
  <path id="Path_2177" data-name="Path 2177" d="M237.97,163.32v1.142h-5.56a1,1,0,0,0-1.01,1V183.02a5.17,5.17,0,0,0,5.193,5.145H252.6a5.171,5.171,0,0,0,5.193-5.145V165.463a1,1,0,0,0-1.01-1h-5.56V163.32a6.626,6.626,0,0,0-13.252,0Zm12.242,6.631a1,1,0,0,0,1.01-1v-2.487h4.55V183.02a3.162,3.162,0,0,1-3.173,3.144H236.593a3.162,3.162,0,0,1-3.173-3.144V166.464h4.55v2.487a1.01,1.01,0,0,0,2.02,0v-2.487H249.2v2.487A1,1,0,0,0,250.212,169.951Zm-1.01-6.631v1.142H239.99V163.32a4.606,4.606,0,0,1,9.212,0Z" transform="translate(-207.793 -143.175)" fill="#353535"/>
</svg>