<svg id="special_card_icon" xmlns="http://www.w3.org/2000/svg" width="70" height="70" viewBox="0 0 70 70">
  <path id="area" d="M0,0H70V70H0Z" fill="#e87722" opacity="0"/>
  <g id="united-states" transform="translate(1.652 10.686)">
    <rect id="Rectangle_86" data-name="Rectangle 86" width="14.602" height="3.332" transform="translate(5.453 23.085)" fill="#e87722"/>
    <path id="Path_610" data-name="Path 610" d="M51.684,0H4.241A4.215,4.215,0,0,0,0,4.241v33.87a4.215,4.215,0,0,0,4.241,4.241H42.413a16.848,16.848,0,0,1-.969-2.424H4.241a1.785,1.785,0,0,1-1.818-1.818V17.874H53.5v4.484a12.148,12.148,0,0,1,2.424,0V4.241A4.215,4.215,0,0,0,51.684,0ZM2.424,10.543v-6.3A1.785,1.785,0,0,1,4.241,2.424H51.684A1.785,1.785,0,0,1,53.5,4.241v6.3Z" fill="#e87722"/>
    <path id="Path_611" data-name="Path 611" d="M82.655,40.2A11.755,11.755,0,1,0,94.409,51.955,11.766,11.766,0,0,0,82.655,40.2Zm9.513,14.6H73.142a10.7,10.7,0,0,1-.424-2.787H92.591A8.642,8.642,0,0,1,92.167,54.8Zm-11.512-12h1.151l-1.03.667.364,1.091-.909-.666-.909.666.364-1.091-.848-.606c.061,0,.061,0,.121-.061h.969l.121-.364c.121-.061.3-.061.424-.121Zm.485,8.119-.909-.666-.909.666.364-1.091-.969-.666h1.151l.364-1.091.364,1.091h1.151l-.909.666Zm-3.938,0-.909-.666-.909.666.364-1.091-.969-.666h1.151l.364-1.091.364,1.091h1.151l-.909.666Zm0-3.151-.909-.666-.909.666.364-1.091-.909-.666H75.99l.364-1.091.364,1.091h1.151l-1.03.666Zm3.938,0-.909-.666-.909.666.364-1.091-.909-.666h1.151l.364-1.091.364,1.091h1.151l-1.03.666Zm1.575-1.454h8.059a9.584,9.584,0,0,1,1.394,2.848H82.715Zm0-2.848V42.078a9.87,9.87,0,0,1,4.968,1.394Zm-5.756.424.242.666-.545-.424A1.322,1.322,0,0,1,76.959,43.9Zm-3.03,5.271-.909.666.364,1.091-.545-.424a8.6,8.6,0,0,1,.3-1.333ZM87.8,60.5H77.5a9.724,9.724,0,0,1-3.03-2.848H90.834A11.252,11.252,0,0,1,87.8,60.5Z" transform="translate(-27.941 -15.843)" fill="#e87722"/>
  </g>
</svg>
