<svg width="79" height="12" viewBox="0 0 79 12" fill="none" xmlns="http://www.w3.org/2000/svg">
<path d="M6.90137 8.40234H2.73145L1.79492 11H0.441406L4.24219 1.04688H5.39062L9.19824 11H7.85156L6.90137 8.40234ZM3.12793 7.32227H6.51172L4.81641 2.66699L3.12793 7.32227ZM10.5381 11V1.04688H13.792C14.8721 1.04688 15.6833 1.27018 16.2256 1.7168C16.7725 2.16341 17.0459 2.82422 17.0459 3.69922C17.0459 4.16406 16.9137 4.5765 16.6494 4.93652C16.3851 5.29199 16.0251 5.56771 15.5693 5.76367C16.1071 5.91406 16.5309 6.20117 16.8408 6.625C17.1553 7.04427 17.3125 7.54557 17.3125 8.12891C17.3125 9.02214 17.0231 9.72396 16.4443 10.2344C15.8656 10.7448 15.0475 11 13.9902 11H10.5381ZM11.8506 6.34473V9.92676H14.0176C14.6283 9.92676 15.109 9.76953 15.46 9.45508C15.8154 9.13607 15.9932 8.69857 15.9932 8.14258C15.9932 6.94401 15.3415 6.34473 14.0381 6.34473H11.8506ZM11.8506 5.29199H13.833C14.4072 5.29199 14.8652 5.14844 15.207 4.86133C15.5534 4.57422 15.7266 4.18457 15.7266 3.69238C15.7266 3.14551 15.5671 2.74902 15.248 2.50293C14.929 2.25228 14.4437 2.12695 13.792 2.12695H11.8506V5.29199ZM26.582 7.8418C26.459 8.89453 26.0693 9.70801 25.4131 10.2822C24.7614 10.8519 23.8932 11.1367 22.8086 11.1367C21.6328 11.1367 20.6895 10.7152 19.9785 9.87207C19.2721 9.02897 18.9189 7.90104 18.9189 6.48828V5.53125C18.9189 4.60612 19.083 3.79264 19.4111 3.09082C19.7438 2.389 20.2132 1.85124 20.8193 1.47754C21.4255 1.09928 22.1273 0.910156 22.9248 0.910156C23.9821 0.910156 24.8298 1.20638 25.4678 1.79883C26.1058 2.38672 26.4772 3.20247 26.582 4.24609H25.2627C25.1488 3.45312 24.9004 2.87891 24.5176 2.52344C24.1393 2.16797 23.6084 1.99023 22.9248 1.99023C22.0863 1.99023 21.4277 2.30013 20.9492 2.91992C20.4753 3.53971 20.2383 4.42155 20.2383 5.56543V6.5293C20.2383 7.60938 20.4639 8.46842 20.915 9.10645C21.3662 9.74447 21.9974 10.0635 22.8086 10.0635C23.5378 10.0635 24.096 9.89941 24.4834 9.57129C24.8753 9.23861 25.1351 8.66211 25.2627 7.8418H26.582ZM31.8525 11V1.04688H34.6621C35.528 1.04688 36.2936 1.23828 36.959 1.62109C37.6243 2.00391 38.137 2.5485 38.4971 3.25488C38.8617 3.96126 39.0462 4.77246 39.0508 5.68848V6.32422C39.0508 7.26302 38.8685 8.08561 38.5039 8.79199C38.1439 9.49837 37.6266 10.0407 36.9521 10.4189C36.2822 10.7972 35.5007 10.9909 34.6074 11H31.8525ZM33.165 2.12695V9.92676H34.5459C35.5576 9.92676 36.3438 9.6123 36.9043 8.9834C37.4694 8.35449 37.752 7.45898 37.752 6.29688V5.71582C37.752 4.58561 37.4854 3.70833 36.9521 3.08398C36.4235 2.45508 35.6715 2.13607 34.6963 2.12695H33.165ZM46.666 6.39941H42.3525V9.92676H47.3633V11H41.04V1.04688H47.2949V2.12695H42.3525V5.32617H46.666V6.39941ZM51.9297 6.56348C50.804 6.23991 49.9837 5.84342 49.4688 5.37402C48.9583 4.90007 48.7031 4.31673 48.7031 3.62402C48.7031 2.84017 49.0153 2.19303 49.6396 1.68262C50.2686 1.16764 51.0843 0.910156 52.0869 0.910156C52.7705 0.910156 53.3789 1.04232 53.9121 1.30664C54.4499 1.57096 54.8646 1.93555 55.1562 2.40039C55.4525 2.86523 55.6006 3.37337 55.6006 3.9248H54.2812C54.2812 3.32324 54.0898 2.85156 53.707 2.50977C53.3242 2.16341 52.7842 1.99023 52.0869 1.99023C51.4398 1.99023 50.9339 2.13379 50.5693 2.4209C50.2093 2.70345 50.0293 3.09766 50.0293 3.60352C50.0293 4.00911 50.2002 4.35319 50.542 4.63574C50.8883 4.91374 51.474 5.16895 52.2988 5.40137C53.1283 5.63379 53.7754 5.89128 54.2402 6.17383C54.7096 6.45182 55.056 6.77767 55.2793 7.15137C55.5072 7.52507 55.6211 7.96484 55.6211 8.4707C55.6211 9.27734 55.3066 9.92448 54.6777 10.4121C54.0488 10.8952 53.208 11.1367 52.1553 11.1367C51.4717 11.1367 50.8337 11.0068 50.2412 10.7471C49.6488 10.4827 49.1908 10.1227 48.8672 9.66699C48.5482 9.21126 48.3887 8.69401 48.3887 8.11523H49.708C49.708 8.7168 49.929 9.19303 50.3711 9.54395C50.8177 9.8903 51.4124 10.0635 52.1553 10.0635C52.848 10.0635 53.3789 9.9222 53.748 9.63965C54.1172 9.3571 54.3018 8.97201 54.3018 8.48438C54.3018 7.99674 54.1309 7.62077 53.7891 7.35645C53.4473 7.08757 52.8275 6.82324 51.9297 6.56348ZM58.7178 11H57.4053V1.04688H58.7178V11ZM68.4727 9.69434C68.1354 10.1774 67.6637 10.5397 67.0576 10.7812C66.4561 11.0182 65.7542 11.1367 64.9521 11.1367C64.141 11.1367 63.4209 10.9476 62.792 10.5693C62.1631 10.1865 61.6755 9.64421 61.3291 8.94238C60.9873 8.24056 60.8118 7.42708 60.8027 6.50195V5.63379C60.8027 4.13444 61.1514 2.97233 61.8486 2.14746C62.5505 1.32259 63.5348 0.910156 64.8018 0.910156C65.8408 0.910156 66.6771 1.17676 67.3105 1.70996C67.944 2.23861 68.3314 2.99056 68.4727 3.96582H67.1602C66.9141 2.64876 66.1302 1.99023 64.8086 1.99023C63.929 1.99023 63.2614 2.30013 62.8057 2.91992C62.3545 3.53516 62.1266 4.42839 62.1221 5.59961V6.41309C62.1221 7.52962 62.3773 8.41829 62.8877 9.0791C63.3981 9.73535 64.0885 10.0635 64.959 10.0635C65.4512 10.0635 65.8818 10.0088 66.251 9.89941C66.6201 9.79004 66.9255 9.60547 67.167 9.3457V7.11035H64.8633V6.04395H68.4727V9.69434ZM78.3164 11H76.9971L71.9863 3.33008V11H70.667V1.04688H71.9863L77.0107 8.75098V1.04688H78.3164V11Z" fill="white"/>
</svg>
