<svg width="1366" height="477" viewBox="0 0 1366 477" fill="none" xmlns="http://www.w3.org/2000/svg">
<mask id="mask0" mask-type="alpha" maskUnits="userSpaceOnUse" x="0" y="0" width="1366" height="477">
<rect width="1366" height="476.582" fill="#C4C4C4"/>
</mask>
<g mask="url(#mask0)">
<path d="M1366 0H0V477H1366V0Z" fill="#FBFEFF"/>
<path d="M400.498 424.844C366.629 439.393 323.001 478.72 323.001 478.72L323 516.25L1437 524V0H1106.17C1080.95 107.546 1094.7 103.732 968.611 131.953C842.518 160.175 790.552 225.77 782.91 321.875C775.268 417.98 659.624 442.64 602.471 432.469C550.228 423.173 473.018 393.694 400.498 424.844Z" fill="url(#paint0_linear)"/>
<path d="M890.586 183.726L890.899 136.95C890.977 125.422 895.666 115.027 903.208 107.485C910.75 99.9432 921.067 95.332 932.477 95.3711C943.888 95.4102 954.166 100.1 961.591 107.681C969.015 115.262 973.548 125.656 973.509 137.184L973.197 183.961C973.197 185.68 974.564 187.087 976.284 187.087C978.003 187.087 979.371 185.68 979.41 183.961L979.723 137.184C979.879 110.69 958.777 89.1577 932.556 89.1186C906.334 89.0405 884.92 110.455 884.763 136.95L884.451 183.726C884.451 185.446 885.818 186.853 887.538 186.853C889.179 186.853 890.586 185.446 890.586 183.726Z" fill="#A5302F"/>
<path d="M989.534 161.453L801.452 160.945L777.653 426.167L965.696 426.714L989.534 161.453Z" fill="#EF5B72"/>
<path d="M1022.51 161.529L989.533 161.451L965.696 426.712L1042.84 426.907L1022.51 161.529Z" fill="#CF364F"/>
<path d="M965.696 426.713L1004.5 391.895L1042.84 426.909L965.696 426.713Z" fill="#CF364F"/>
<path d="M843.069 187.166C843.108 182.868 846.586 179.39 850.807 179.429C855.066 179.429 858.466 182.946 858.466 187.244C858.427 191.543 854.988 195.021 850.729 194.982C846.469 194.943 843.069 191.465 843.069 187.166Z" fill="#A5302F"/>
<path d="M931.853 187.399C931.892 183.101 935.37 179.623 939.63 179.662C943.889 179.662 947.328 183.179 947.289 187.477C947.25 191.776 943.772 195.254 939.552 195.215C935.253 195.176 931.814 191.698 931.853 187.399Z" fill="#A5302F"/>
<path d="M853.894 183.606L854.207 136.829C854.285 125.301 858.975 114.907 866.478 107.365C874.02 99.8227 884.336 95.2115 895.747 95.2505C907.158 95.2896 917.435 99.979 924.86 107.56C932.285 115.141 936.818 125.536 936.779 137.064L936.466 183.84C936.466 185.56 937.834 186.966 939.553 186.966C941.273 186.966 942.68 185.56 942.68 183.84L942.992 137.064C943.148 110.569 922.046 89.0372 895.825 88.9981C869.604 88.9199 848.189 110.335 848.033 136.829L847.72 183.606C847.72 185.325 849.088 186.732 850.807 186.732C852.488 186.732 853.894 185.364 853.894 183.606Z" fill="#A5302F"/>
<path fill-rule="evenodd" clip-rule="evenodd" d="M874.841 243.163L874.802 250.275H863.625L862.531 243.163H874.841ZM892.504 250.314H881.171L881.21 243.202H894.38L892.504 250.314ZM906.806 250.314H899.03L900.867 243.202H909.151L906.806 250.314ZM895.747 262.976L897.389 256.606H904.735L902.625 262.976H895.747ZM881.132 262.936L881.171 256.567H890.902L889.26 262.936H881.132ZM865.579 262.936L864.602 256.567H874.802L874.763 262.936H865.579ZM850.182 256.567H858.193L859.17 262.936H854.442C854.325 262.936 854.168 262.936 854.051 262.976H851.277L850.182 256.567ZM847.955 243.163H856.122L857.217 250.275H849.127L847.955 243.163ZM854.168 230.345L855.145 236.832H846.9L845.845 230.345H854.168ZM874.88 230.345L874.841 236.832H861.554L860.577 230.345H874.88ZM897.701 230.345L896.021 236.832H881.249L881.289 230.345H897.701ZM911.222 236.832H902.508L904.188 230.345H907.432C909.503 230.345 911.222 228.665 911.222 226.555C911.222 224.484 909.542 222.764 907.432 222.764H836.896L843.852 264.969C844.399 268.173 847.174 270.557 850.417 270.557H896.451C900.398 270.908 900.984 272.667 903.797 275.48C906.103 277.786 906.298 279.623 907.002 282.71H856.787C854.716 282.71 853.035 286.422 853.035 288.532C853.035 290.604 852.723 288.845 854.794 288.845H913.997L915.99 288.532C915.99 281.342 912.863 273.605 907.588 269.033C908.526 268.251 909.229 267.196 909.659 265.985L925.447 217.88C925.759 216.942 926.658 216.277 927.635 216.277H933.223C935.294 216.277 937.014 214.597 937.014 212.487C937.014 210.416 935.333 208.696 933.223 208.696H927.635C923.375 208.696 919.585 211.432 918.256 215.496L911.222 236.832Z" fill="white"/>
<path fill-rule="evenodd" clip-rule="evenodd" d="M897.974 279.39C894.066 279.39 890.901 282.555 890.901 286.463C890.901 290.371 894.066 293.536 897.974 293.536C901.882 293.536 905.047 290.371 905.047 286.463C905.047 282.555 901.882 279.39 897.974 279.39Z" fill="white"/>
<path fill-rule="evenodd" clip-rule="evenodd" d="M856.589 279.39C852.681 279.39 849.516 282.555 849.516 286.463C849.516 290.371 852.681 293.536 856.589 293.536C860.497 293.536 863.662 290.371 863.662 286.463C863.662 282.555 860.497 279.39 856.589 279.39Z" fill="white"/>
<path fill-rule="evenodd" clip-rule="evenodd" d="M1190.16 418.663C1203.8 407.174 1203.8 398.382 1213.21 380.601C1250.1 350.707 1258.97 314.208 1270.78 310.339C1280.98 306.978 1192.78 268.995 1109.38 358.17C1112.32 378.608 1123.49 400.57 1151.82 418.663H1190.16Z" fill="#4B8E73"/>
<path fill-rule="evenodd" clip-rule="evenodd" d="M1259.13 303.107C1211.18 320.653 1163.27 357.347 1124.12 393.612C1124.78 394.549 1125.52 395.448 1126.27 396.347C1166.4 359.145 1215.72 321.552 1264.68 304.944C1263.08 304.318 1261.24 303.693 1259.13 303.107Z" fill="#047254"/>
<path d="M1141.47 418.113C1153.43 427.258 1202.27 428.508 1225.02 422.373C1234.63 419.755 1247.84 406.546 1245.89 397.246C1240.18 399.356 1234.83 402.17 1228.96 404.006C1223.14 405.843 1216.58 406.624 1210.83 404.553C1209.27 404.006 1207.51 402.599 1208.29 401.232C1208.57 400.763 1209.04 400.489 1209.54 400.216C1212.44 398.731 1215.87 398.457 1219.2 398.145C1229.2 397.207 1239.79 395.526 1247.18 389.469C1248.58 388.336 1249.87 387.007 1250.61 385.405C1253.04 380.286 1249.09 374.737 1247.76 369.305C1242.8 378.684 1232.01 385.366 1220.41 386.304C1218.88 386.421 1217.01 386.265 1216.38 385.053C1215.52 383.373 1217.79 381.81 1219.7 381.028C1226.58 378.098 1233.03 374.307 1238.77 369.852C1240.06 368.836 1241.31 367.781 1242.17 366.452C1244.91 362.076 1241.98 356.722 1239.13 352.384C1234.51 357.464 1229.75 362.662 1223.49 366.101C1220.56 367.703 1217.05 368.914 1213.69 368.133C1213.26 368.015 1212.79 367.859 1212.59 367.547C1212.36 367.195 1212.4 366.804 1212.51 366.413C1213.41 363.248 1217.28 361.724 1220.45 360.083C1227.28 356.487 1234.05 354.651 1235.61 347.695C1236.04 345.78 1234.08 340.387 1232.33 337.965C1230.14 341.638 1227.09 344.959 1223.49 347.617C1221.5 349.102 1218.65 350.391 1216.46 349.18C1216.69 345.858 1220.06 343.475 1222.87 341.286C1225.68 339.098 1228.46 335.776 1227.05 332.65C1226.23 330.813 1224.16 329.68 1222.63 328.234C1220.64 326.358 1219.55 323.74 1219.59 321.161C1218.41 323.584 1214.82 324.131 1211.89 323.975C1208.92 323.818 1205.67 323.388 1203.25 324.913C1200.13 326.866 1200.13 330.97 1200.99 334.291C1201.84 337.613 1202.7 338.512 1200.44 341.247C1199.42 342.458 1194.11 340.466 1198.13 327.531C1175.7 330.383 1198.56 342.771 1190.04 349.844C1185.59 353.557 1178.83 340.622 1183.71 332.337C1183.71 332.337 1164.17 334.877 1168.39 346.444C1172.61 358.012 1178.55 357.777 1176.01 363.756C1173.47 369.735 1162.57 364.967 1160.81 346.64C1160.81 346.64 1143.03 359.418 1147.96 366.335C1152.88 373.252 1161.44 379.895 1175.12 383.1C1180.78 384.428 1178.36 392.596 1169.25 388.805C1160.15 385.014 1149.05 382.005 1142.29 367.39C1142.29 367.39 1127.09 387.007 1148.15 391.814C1151.47 392.556 1165.15 394.315 1163.98 399.278C1162.81 404.241 1146.71 400.177 1139.2 394.041C1139.16 394.041 1125.06 410.141 1141.47 418.113Z" fill="#4FBEA2"/>
<path fill-rule="evenodd" clip-rule="evenodd" d="M1269.8 81.6129L1253.97 77.9005H1133.69C1119.66 77.9005 1113.57 85.7551 1110.24 93.8833L985.781 398.261C979.373 413.932 996.723 422.685 1005.52 422.685H1146.24C1155.03 422.685 1166.67 415.182 1170.89 404.084L1281.17 114.673C1282.93 110.101 1283.44 106.31 1283.05 103.223C1282.62 99.0025 1272.57 82.2772 1269.8 81.6129Z" fill="#EF5B72"/>
<path fill-rule="evenodd" clip-rule="evenodd" d="M1261.52 77.9005H1125.1C1111.07 77.9005 1104.77 85.677 1101.65 93.8833L986.564 395.956C981.758 408.539 992.621 414.869 1001.41 414.869H1134.44C1143.23 414.869 1154.87 407.366 1159.09 396.268L1272.11 99.6278C1277.89 84.5437 1270.31 77.9005 1261.52 77.9005Z" fill="#0C1570"/>
<path fill-rule="evenodd" clip-rule="evenodd" d="M1213.41 83.8046H1166.95C1165.97 83.8046 1165.19 84.5862 1165.19 85.5631C1165.19 86.5401 1165.97 87.3216 1166.95 87.3216H1213.41C1214.39 87.3216 1215.17 86.5401 1215.17 85.5631C1215.17 84.5862 1214.39 83.8046 1213.41 83.8046Z" fill="white"/>
<path fill-rule="evenodd" clip-rule="evenodd" d="M1255.65 94.3146C1264.56 94.3146 1263.78 102.404 1261.32 108.852L1152.96 393.964C1151.28 398.419 1148.03 402.249 1144.2 405.023C1141.2 407.172 1137.01 409.165 1133.26 409.165H1000.24C998.639 409.165 996.998 408.892 995.513 408.345C990.198 406.508 988.284 402.835 990.355 397.403L1100.79 106.859C1104.07 98.1833 1109.93 94.2755 1119.27 94.2755C1159.72 94.3146 1203.1 94.3146 1255.65 94.3146Z" fill="#62A5E4"/>
<path fill-rule="evenodd" clip-rule="evenodd" d="M1165.93 192.128H1164.09C1156.78 192.128 1150.81 198.107 1150.81 205.415C1150.81 212.722 1156.78 218.701 1164.09 218.701H1165.93C1173.24 218.701 1179.22 212.722 1179.22 205.415C1179.22 198.107 1173.24 192.128 1165.93 192.128Z" fill="white"/>
<path d="M1161.71 207.33C1162.26 207.955 1162.81 208.424 1163.31 208.737C1163.86 209.05 1164.41 209.206 1164.99 209.206C1165.46 209.206 1165.85 209.089 1166.17 208.815C1166.48 208.542 1166.63 208.229 1166.63 207.799C1166.63 207.369 1166.52 207.018 1166.24 206.783C1165.97 206.549 1165.38 206.314 1164.49 206.041C1163.08 205.65 1162.1 205.181 1161.55 204.595C1161.01 204.009 1160.69 203.227 1160.69 202.25C1160.69 201.039 1161.09 200.023 1161.87 199.28C1162.65 198.538 1163.7 198.069 1165.11 197.912V196.623H1166.32V197.912C1166.87 197.951 1167.38 198.108 1167.92 198.303C1168.43 198.499 1168.94 198.772 1169.45 199.124L1168.28 201.781C1167.85 201.429 1167.42 201.156 1166.99 201C1166.56 200.804 1166.09 200.726 1165.66 200.726C1165.23 200.726 1164.84 200.843 1164.56 201.039C1164.29 201.234 1164.17 201.508 1164.17 201.859C1164.17 202.211 1164.29 202.484 1164.52 202.68C1164.76 202.875 1165.23 203.071 1165.93 203.266L1166.05 203.305C1167.57 203.696 1168.59 204.165 1169.06 204.673C1169.37 205.025 1169.64 205.415 1169.8 205.884C1169.96 206.353 1170.03 206.861 1170.03 207.408C1170.03 208.698 1169.64 209.753 1168.86 210.613C1168.08 211.472 1167.03 211.941 1165.74 212.098V214.364H1164.52V212.137C1163.66 212.137 1162.84 211.941 1162.1 211.629C1161.36 211.316 1160.66 210.808 1159.99 210.144L1161.71 207.33Z" fill="#E95F5D"/>
<path fill-rule="evenodd" clip-rule="evenodd" d="M1132.75 192.128H1070.81C1063.51 192.128 1057.53 198.107 1057.53 205.415C1057.53 212.722 1063.51 218.701 1070.81 218.701H1132.75C1140.06 218.701 1146.04 212.722 1146.04 205.415C1146.04 198.107 1140.06 192.128 1132.75 192.128Z" fill="#EF5B72"/>
<path d="M1118.69 201.427C1118.65 201.349 1118.65 201.232 1118.69 201.193C1118.73 201.115 1118.76 201.076 1118.88 201.076H1120.8C1120.87 201.076 1120.95 201.115 1121.03 201.154C1121.11 201.193 1121.15 201.271 1121.19 201.349L1122.55 205.296C1122.59 205.374 1122.63 205.413 1122.67 205.413C1122.75 205.413 1122.79 205.374 1122.79 205.296L1124.08 201.349C1124.12 201.271 1124.16 201.193 1124.24 201.154C1124.31 201.115 1124.39 201.076 1124.47 201.076H1126.03C1126.11 201.076 1126.19 201.115 1126.27 201.154C1126.35 201.193 1126.38 201.271 1126.42 201.349L1127.71 205.296C1127.75 205.374 1127.79 205.413 1127.83 205.413C1127.87 205.413 1127.95 205.374 1127.95 205.296L1129.32 201.31C1129.35 201.232 1129.39 201.193 1129.47 201.115C1129.55 201.076 1129.63 201.037 1129.71 201.037H1131.62C1131.7 201.037 1131.78 201.076 1131.82 201.154C1131.86 201.232 1131.86 201.271 1131.82 201.349L1128.96 209.438C1128.92 209.516 1128.89 209.595 1128.81 209.634C1128.73 209.673 1128.65 209.712 1128.57 209.712H1127.05C1126.97 209.712 1126.89 209.673 1126.81 209.634C1126.74 209.595 1126.7 209.516 1126.66 209.438L1125.37 205.491C1125.33 205.413 1125.29 205.374 1125.25 205.374C1125.17 205.374 1125.13 205.413 1125.13 205.491L1123.84 209.438C1123.81 209.516 1123.77 209.595 1123.69 209.634C1123.61 209.673 1123.53 209.712 1123.45 209.712H1121.93C1121.85 209.712 1121.77 209.673 1121.69 209.634C1121.62 209.556 1121.58 209.516 1121.58 209.438L1118.69 201.427ZM1112.04 205.413C1112.04 205.726 1112.08 205.999 1112.2 206.273C1112.32 206.547 1112.47 206.781 1112.67 206.976C1112.86 207.172 1113.1 207.328 1113.33 207.484C1113.61 207.602 1113.88 207.68 1114.15 207.68C1114.43 207.68 1114.74 207.602 1114.97 207.484C1115.25 207.367 1115.48 207.211 1115.68 206.976C1115.87 206.781 1116.03 206.547 1116.15 206.273C1116.26 205.999 1116.3 205.726 1116.3 205.413C1116.3 205.14 1116.26 204.827 1116.15 204.554C1116.03 204.28 1115.87 204.046 1115.68 203.85C1115.48 203.655 1115.25 203.498 1114.97 203.381C1114.7 203.264 1114.43 203.186 1114.15 203.186C1113.88 203.186 1113.57 203.264 1113.33 203.381C1113.06 203.498 1112.86 203.655 1112.67 203.85C1112.47 204.046 1112.32 204.28 1112.2 204.554C1112.08 204.866 1112.04 205.14 1112.04 205.413ZM1109.7 205.413C1109.7 204.788 1109.82 204.202 1110.05 203.655C1110.28 203.108 1110.6 202.639 1111.03 202.209C1111.42 201.818 1111.89 201.466 1112.43 201.232C1112.98 200.997 1113.57 200.88 1114.19 200.88C1114.82 200.88 1115.4 200.997 1115.95 201.232C1116.5 201.466 1116.97 201.779 1117.4 202.209C1117.79 202.6 1118.14 203.108 1118.37 203.655C1118.61 204.202 1118.73 204.788 1118.73 205.413C1118.73 206.039 1118.61 206.625 1118.37 207.172C1118.14 207.719 1117.83 208.188 1117.4 208.618C1117.01 209.008 1116.5 209.36 1115.95 209.595C1115.4 209.829 1114.82 209.946 1114.19 209.946C1113.57 209.946 1112.98 209.829 1112.43 209.595C1111.89 209.36 1111.42 209.048 1111.03 208.618C1110.64 208.227 1110.28 207.719 1110.05 207.172C1109.82 206.625 1109.7 206.039 1109.7 205.413ZM1108.76 201.349V209.477C1108.76 209.556 1108.72 209.634 1108.68 209.673C1108.64 209.712 1108.56 209.751 1108.49 209.751H1106.73C1106.65 209.751 1106.57 209.712 1106.49 209.673C1106.42 209.634 1106.34 209.556 1106.3 209.516L1103.21 205.179C1103.17 205.101 1103.13 205.101 1103.05 205.101C1103.02 205.101 1102.98 205.14 1102.98 205.218V209.477C1102.98 209.556 1102.94 209.634 1102.9 209.673C1102.86 209.712 1102.78 209.751 1102.7 209.751H1100.94C1100.87 209.751 1100.79 209.712 1100.75 209.673C1100.71 209.634 1100.67 209.556 1100.67 209.477V201.349C1100.67 201.271 1100.71 201.193 1100.75 201.154C1100.79 201.115 1100.87 201.076 1100.94 201.076H1102.74C1102.82 201.076 1102.9 201.115 1102.98 201.154C1103.05 201.193 1103.13 201.232 1103.17 201.31L1106.26 205.648C1106.3 205.726 1106.34 205.726 1106.42 205.726C1106.45 205.726 1106.49 205.687 1106.49 205.609V201.349C1106.49 201.271 1106.53 201.193 1106.57 201.154C1106.61 201.115 1106.69 201.076 1106.77 201.076H1108.53C1108.6 201.076 1108.68 201.115 1108.72 201.154C1108.72 201.232 1108.76 201.271 1108.76 201.349ZM1095.98 201.427L1093.01 206.234C1092.97 206.312 1092.93 206.39 1092.89 206.507C1092.86 206.625 1092.86 206.703 1092.86 206.781V209.516C1092.86 209.595 1092.82 209.673 1092.78 209.712C1092.74 209.751 1092.66 209.79 1092.58 209.79H1090.78C1090.71 209.79 1090.63 209.751 1090.59 209.712C1090.55 209.673 1090.51 209.595 1090.51 209.516V206.82C1090.51 206.742 1090.51 206.664 1090.47 206.547C1090.43 206.429 1090.39 206.351 1090.35 206.273C1089.89 205.452 1089.38 204.671 1088.91 203.889C1088.4 203.108 1087.93 202.287 1087.42 201.466C1087.38 201.388 1087.38 201.31 1087.38 201.232C1087.42 201.154 1087.46 201.115 1087.54 201.115H1089.65C1089.73 201.115 1089.81 201.154 1089.89 201.193C1089.96 201.232 1090.04 201.31 1090.08 201.388L1091.53 203.928C1091.57 204.006 1091.6 204.006 1091.68 204.006C1091.72 204.006 1091.8 203.967 1091.84 203.928L1093.29 201.388C1093.32 201.31 1093.4 201.271 1093.48 201.193C1093.56 201.154 1093.64 201.115 1093.72 201.115H1095.86C1095.94 201.115 1095.98 201.154 1096.02 201.193C1096.06 201.232 1096.06 201.31 1095.98 201.427ZM1079.69 201.388C1079.69 201.31 1079.73 201.232 1079.76 201.193C1079.8 201.154 1079.88 201.115 1079.96 201.115H1081.76C1081.84 201.115 1081.91 201.154 1081.95 201.193C1081.99 201.232 1082.03 201.31 1082.03 201.388V206.195C1082.03 206.507 1082.07 206.742 1082.19 206.976C1082.3 207.172 1082.42 207.328 1082.54 207.445C1082.7 207.563 1082.85 207.641 1083.01 207.68C1083.16 207.719 1083.32 207.758 1083.48 207.758C1083.59 207.758 1083.75 207.719 1083.95 207.68C1084.1 207.641 1084.26 207.563 1084.41 207.445C1084.57 207.328 1084.69 207.172 1084.77 206.976C1084.88 206.781 1084.92 206.507 1084.92 206.195V201.388C1084.92 201.31 1084.96 201.232 1085 201.193C1085.04 201.154 1085.12 201.115 1085.2 201.115H1086.99C1087.07 201.115 1087.15 201.154 1087.19 201.193C1087.23 201.232 1087.27 201.31 1087.27 201.388V206.195C1087.27 206.742 1087.19 207.25 1086.99 207.719C1086.8 208.188 1086.56 208.579 1086.21 208.891C1085.86 209.204 1085.47 209.477 1085 209.634C1084.53 209.829 1084.02 209.907 1083.44 209.907C1082.85 209.907 1082.34 209.829 1081.87 209.634C1081.41 209.438 1081.01 209.204 1080.66 208.891C1080.35 208.579 1080.08 208.188 1079.88 207.719C1079.69 207.25 1079.61 206.742 1079.61 206.195V201.388H1079.69ZM1075.66 206.351H1074.41C1074.33 206.351 1074.25 206.39 1074.22 206.429C1074.18 206.468 1074.14 206.547 1074.14 206.625V207.289C1074.14 207.367 1074.18 207.445 1074.22 207.484C1074.25 207.523 1074.33 207.563 1074.41 207.563H1075.74C1075.9 207.563 1076.01 207.484 1076.13 207.367C1076.25 207.25 1076.33 207.094 1076.33 206.937C1076.33 206.781 1076.25 206.664 1076.13 206.507C1076.01 206.39 1075.86 206.351 1075.66 206.351ZM1074.41 204.397H1075.5C1075.66 204.397 1075.78 204.319 1075.9 204.202C1075.97 204.085 1076.05 203.928 1076.05 203.811C1076.05 203.655 1076.01 203.538 1075.9 203.459C1075.78 203.342 1075.66 203.303 1075.58 203.303H1074.45C1074.37 203.303 1074.29 203.342 1074.25 203.381C1074.22 203.42 1074.18 203.498 1074.18 203.577V204.124C1074.18 204.202 1074.22 204.28 1074.25 204.319C1074.25 204.358 1074.33 204.397 1074.41 204.397ZM1077.73 205.296C1077.85 205.374 1077.97 205.452 1078.12 205.57C1078.24 205.687 1078.36 205.804 1078.47 205.96C1078.59 206.117 1078.67 206.273 1078.75 206.468C1078.83 206.664 1078.87 206.898 1078.87 207.133C1078.87 207.641 1078.79 208.071 1078.63 208.422C1078.47 208.774 1078.24 209.008 1077.97 209.243C1077.69 209.438 1077.38 209.595 1077.03 209.673C1076.68 209.751 1076.29 209.79 1075.9 209.79H1072.14C1072.07 209.79 1071.99 209.751 1071.95 209.712C1071.91 209.673 1071.87 209.595 1071.87 209.516V201.388C1071.87 201.31 1071.91 201.232 1071.95 201.193C1071.99 201.154 1072.07 201.115 1072.14 201.115H1075.74C1076.13 201.115 1076.48 201.154 1076.83 201.232C1077.19 201.31 1077.5 201.466 1077.77 201.623C1078.04 201.818 1078.24 202.053 1078.4 202.365C1078.55 202.678 1078.63 203.03 1078.63 203.498C1078.63 203.85 1078.55 204.163 1078.36 204.436C1078.16 204.71 1078.01 204.905 1077.77 205.062C1077.54 205.14 1077.58 205.218 1077.73 205.296Z" fill="white"/>
<path fill-rule="evenodd" clip-rule="evenodd" d="M1146.51 55.8621H1080.62C1064.37 55.8621 1051.08 69.1486 1051.08 85.405V151.29C1051.08 167.547 1064.37 180.833 1080.62 180.833H1146.51C1162.77 180.833 1176.05 167.547 1176.05 151.29V85.4441C1176.05 69.1486 1162.77 55.8621 1146.51 55.8621Z" fill="white"/>
<path d="M1113.53 158.326H1144.24L1141.86 108.11L1152.33 120.694L1166.2 105.766C1166.2 105.766 1148.07 83.4913 1144.83 81.6937C1141.55 79.8962 1126.77 78.7238 1126.77 78.7238C1126.46 83.4913 1122.83 91.1897 1113.53 91.1897C1104.23 91.1897 1100.59 83.4522 1100.28 78.7238C1100.28 78.7238 1085.51 79.8962 1082.22 81.6937C1078.94 83.4913 1060.85 105.766 1060.85 105.766L1074.72 120.694L1085.19 108.11L1082.81 158.326H1113.53Z" fill="#0067B2"/>
<path d="M1133.11 79.3104C1129.31 78.4507 1125.37 78.4507 1125.37 78.4507C1125.09 82.7883 1121.81 89.7833 1113.33 89.7833C1104.85 89.7833 1101.57 82.7493 1101.3 78.4507C1101.3 78.4507 1097.47 78.7242 1093.68 79.3495C1096.61 104.516 1130.84 101.819 1133.11 79.3104Z" fill="#0067B2"/>
<path fill-rule="evenodd" clip-rule="evenodd" d="M1146.51 229.132H1080.62C1064.37 229.132 1051.08 242.418 1051.08 258.675V324.599C1051.08 340.856 1064.37 354.142 1080.62 354.142H1146.51C1162.77 354.142 1176.05 340.856 1176.05 324.599V258.675C1176.05 242.418 1162.77 229.132 1146.51 229.132Z" fill="white"/>
<path fill-rule="evenodd" clip-rule="evenodd" d="M1132.75 364.776H1070.81C1063.51 364.776 1057.53 370.755 1057.53 378.062C1057.53 385.37 1063.51 391.349 1070.81 391.349H1132.75C1140.06 391.349 1146.04 385.37 1146.04 378.062C1146.04 370.755 1140.06 364.776 1132.75 364.776Z" fill="#EF5B72"/>
<path d="M1118.69 374.075C1118.65 373.997 1118.65 373.879 1118.69 373.84C1118.73 373.762 1118.76 373.723 1118.88 373.723H1120.8C1120.87 373.723 1120.95 373.762 1121.03 373.801C1121.11 373.84 1121.15 373.918 1121.19 373.997L1122.55 377.943C1122.59 378.022 1122.63 378.061 1122.67 378.061C1122.75 378.061 1122.79 378.022 1122.79 377.943L1124.08 373.997C1124.12 373.918 1124.16 373.84 1124.24 373.801C1124.31 373.762 1124.39 373.723 1124.47 373.723H1126.03C1126.11 373.723 1126.19 373.762 1126.27 373.801C1126.35 373.84 1126.38 373.918 1126.42 373.997L1127.71 377.943C1127.75 378.022 1127.79 378.061 1127.83 378.061C1127.87 378.061 1127.95 378.022 1127.95 377.943L1129.32 373.957C1129.35 373.879 1129.39 373.84 1129.47 373.762C1129.55 373.723 1129.63 373.684 1129.71 373.684H1131.62C1131.7 373.684 1131.78 373.723 1131.82 373.801C1131.86 373.879 1131.86 373.918 1131.82 373.997L1128.96 382.086C1128.92 382.164 1128.89 382.242 1128.81 382.281C1128.73 382.32 1128.65 382.359 1128.57 382.359H1127.05C1126.97 382.359 1126.89 382.32 1126.81 382.281C1126.74 382.242 1126.7 382.164 1126.66 382.086L1125.37 378.139C1125.33 378.061 1125.29 378.022 1125.25 378.022C1125.17 378.022 1125.13 378.061 1125.13 378.139L1123.84 382.086C1123.81 382.164 1123.77 382.242 1123.69 382.281C1123.61 382.32 1123.53 382.359 1123.45 382.359H1121.93C1121.85 382.359 1121.77 382.32 1121.69 382.281C1121.62 382.203 1121.58 382.164 1121.58 382.086L1118.69 374.075ZM1112.04 378.061C1112.04 378.373 1112.08 378.647 1112.2 378.92C1112.32 379.194 1112.47 379.428 1112.67 379.624C1112.86 379.819 1113.1 379.975 1113.33 380.132C1113.61 380.249 1113.88 380.327 1114.15 380.327C1114.43 380.327 1114.74 380.249 1114.97 380.132C1115.25 380.015 1115.48 379.858 1115.68 379.624C1115.87 379.428 1116.03 379.194 1116.15 378.92C1116.26 378.647 1116.3 378.373 1116.3 378.061C1116.3 377.787 1116.26 377.474 1116.15 377.201C1116.03 376.927 1115.87 376.693 1115.68 376.498C1115.48 376.302 1115.25 376.146 1114.97 376.029C1114.7 375.911 1114.43 375.833 1114.15 375.833C1113.88 375.833 1113.57 375.911 1113.33 376.029C1113.06 376.146 1112.86 376.302 1112.67 376.498C1112.47 376.693 1112.32 376.927 1112.2 377.201C1112.08 377.514 1112.04 377.787 1112.04 378.061ZM1109.7 378.061C1109.7 377.435 1109.82 376.849 1110.05 376.302C1110.28 375.755 1110.6 375.286 1111.03 374.856C1111.42 374.465 1111.89 374.114 1112.43 373.879C1112.98 373.645 1113.57 373.528 1114.19 373.528C1114.82 373.528 1115.4 373.645 1115.95 373.879C1116.5 374.114 1116.97 374.426 1117.4 374.856C1117.79 375.247 1118.14 375.755 1118.37 376.302C1118.61 376.849 1118.73 377.435 1118.73 378.061C1118.73 378.686 1118.61 379.272 1118.37 379.819C1118.14 380.366 1117.83 380.835 1117.4 381.265C1117.01 381.656 1116.5 382.008 1115.95 382.242C1115.4 382.476 1114.82 382.594 1114.19 382.594C1113.57 382.594 1112.98 382.476 1112.43 382.242C1111.89 382.008 1111.42 381.695 1111.03 381.265C1110.64 380.874 1110.28 380.366 1110.05 379.819C1109.82 379.272 1109.7 378.686 1109.7 378.061ZM1108.76 374.036V382.164C1108.76 382.242 1108.72 382.32 1108.68 382.359C1108.64 382.398 1108.56 382.437 1108.49 382.437H1106.73C1106.65 382.437 1106.57 382.398 1106.49 382.359C1106.42 382.32 1106.34 382.242 1106.3 382.203L1103.21 377.865C1103.17 377.787 1103.13 377.787 1103.05 377.787C1103.02 377.787 1102.98 377.826 1102.98 377.904V382.164C1102.98 382.242 1102.94 382.32 1102.9 382.359C1102.86 382.398 1102.78 382.437 1102.7 382.437H1100.94C1100.87 382.437 1100.79 382.398 1100.75 382.359C1100.71 382.32 1100.67 382.242 1100.67 382.164V374.036C1100.67 373.957 1100.71 373.879 1100.75 373.84C1100.79 373.801 1100.87 373.762 1100.94 373.762H1102.74C1102.82 373.762 1102.9 373.801 1102.98 373.84C1103.05 373.879 1103.13 373.918 1103.17 373.997L1106.26 378.334C1106.3 378.412 1106.34 378.412 1106.42 378.412C1106.45 378.412 1106.49 378.373 1106.49 378.295V374.036C1106.49 373.957 1106.53 373.879 1106.57 373.84C1106.61 373.801 1106.69 373.762 1106.77 373.762H1108.53C1108.6 373.762 1108.68 373.801 1108.72 373.84C1108.72 373.879 1108.76 373.957 1108.76 374.036ZM1095.98 374.075L1093.01 378.881C1092.97 378.959 1092.93 379.038 1092.89 379.155C1092.86 379.272 1092.86 379.35 1092.86 379.428V382.164C1092.86 382.242 1092.82 382.32 1092.78 382.359C1092.74 382.398 1092.66 382.437 1092.58 382.437H1090.78C1090.71 382.437 1090.63 382.398 1090.59 382.359C1090.55 382.32 1090.51 382.242 1090.51 382.164V379.467C1090.51 379.389 1090.51 379.311 1090.47 379.194C1090.43 379.077 1090.39 378.999 1090.35 378.92C1089.89 378.1 1089.38 377.318 1088.91 376.537C1088.4 375.755 1087.93 374.934 1087.42 374.114C1087.38 374.036 1087.38 373.957 1087.38 373.879C1087.42 373.801 1087.46 373.762 1087.54 373.762H1089.65C1089.73 373.762 1089.81 373.801 1089.89 373.84C1089.96 373.879 1090.04 373.957 1090.08 374.036L1091.53 376.576C1091.57 376.654 1091.6 376.654 1091.68 376.654C1091.72 376.654 1091.8 376.615 1091.84 376.576L1093.29 374.036C1093.32 373.957 1093.4 373.918 1093.48 373.84C1093.56 373.801 1093.64 373.762 1093.72 373.762H1095.86C1095.94 373.762 1095.98 373.801 1096.02 373.84C1096.06 373.879 1096.06 373.957 1095.98 374.075ZM1079.69 374.036C1079.69 373.957 1079.73 373.879 1079.76 373.84C1079.8 373.801 1079.88 373.762 1079.96 373.762H1081.76C1081.84 373.762 1081.91 373.801 1081.95 373.84C1081.99 373.879 1082.03 373.957 1082.03 374.036V378.842C1082.03 379.155 1082.07 379.389 1082.19 379.624C1082.3 379.819 1082.42 379.975 1082.54 380.093C1082.7 380.21 1082.85 380.288 1083.01 380.327C1083.16 380.366 1083.32 380.405 1083.48 380.405C1083.59 380.405 1083.75 380.366 1083.95 380.327C1084.1 380.288 1084.26 380.21 1084.41 380.093C1084.57 379.975 1084.69 379.819 1084.77 379.624C1084.88 379.428 1084.92 379.155 1084.92 378.842V374.036C1084.92 373.957 1084.96 373.879 1085 373.84C1085.04 373.801 1085.12 373.762 1085.2 373.762H1086.99C1087.07 373.762 1087.15 373.801 1087.19 373.84C1087.23 373.879 1087.27 373.957 1087.27 374.036V378.842C1087.27 379.389 1087.19 379.897 1086.99 380.366C1086.8 380.835 1086.56 381.226 1086.21 381.539C1085.86 381.851 1085.47 382.125 1085 382.281C1084.53 382.476 1084.02 382.555 1083.44 382.555C1082.85 382.555 1082.34 382.476 1081.87 382.281C1081.41 382.086 1081.01 381.851 1080.66 381.539C1080.35 381.226 1080.08 380.835 1079.88 380.366C1079.69 379.897 1079.61 379.389 1079.61 378.842V374.036H1079.69ZM1075.66 378.998H1074.41C1074.33 378.998 1074.25 379.038 1074.22 379.077C1074.18 379.116 1074.14 379.194 1074.14 379.272V379.936C1074.14 380.015 1074.18 380.093 1074.22 380.132C1074.25 380.171 1074.33 380.21 1074.41 380.21H1075.74C1075.9 380.21 1076.01 380.132 1076.13 380.015C1076.25 379.897 1076.33 379.741 1076.33 379.585C1076.33 379.428 1076.25 379.311 1076.13 379.155C1076.01 379.077 1075.86 378.998 1075.66 378.998ZM1074.41 377.045H1075.5C1075.66 377.045 1075.78 376.966 1075.9 376.849C1075.97 376.732 1076.05 376.576 1076.05 376.458C1076.05 376.302 1076.01 376.185 1075.9 376.107C1075.78 375.99 1075.66 375.95 1075.58 375.95H1074.45C1074.37 375.95 1074.29 375.99 1074.25 376.029C1074.22 376.068 1074.18 376.146 1074.18 376.224V376.771C1074.18 376.849 1074.22 376.927 1074.25 376.966C1074.25 377.006 1074.33 377.045 1074.41 377.045ZM1077.73 377.943C1077.85 378.022 1077.97 378.1 1078.12 378.217C1078.24 378.334 1078.36 378.451 1078.47 378.608C1078.59 378.764 1078.67 378.92 1078.75 379.116C1078.83 379.311 1078.87 379.546 1078.87 379.78C1078.87 380.288 1078.79 380.718 1078.63 381.07C1078.47 381.421 1078.24 381.656 1077.97 381.89C1077.69 382.086 1077.38 382.242 1077.03 382.32C1076.68 382.398 1076.29 382.437 1075.9 382.437H1072.14C1072.07 382.437 1071.99 382.398 1071.95 382.359C1071.91 382.32 1071.87 382.242 1071.87 382.164V374.036C1071.87 373.957 1071.91 373.879 1071.95 373.84C1071.99 373.801 1072.07 373.762 1072.14 373.762H1075.74C1076.13 373.762 1076.48 373.801 1076.83 373.879C1077.19 373.957 1077.5 374.114 1077.77 374.27C1078.04 374.465 1078.24 374.7 1078.4 375.013C1078.55 375.325 1078.63 375.677 1078.63 376.146C1078.63 376.498 1078.55 376.81 1078.36 377.084C1078.16 377.357 1078.01 377.553 1077.77 377.709C1077.54 377.787 1077.58 377.865 1077.73 377.943Z" fill="white"/>
<path fill-rule="evenodd" clip-rule="evenodd" d="M1201.96 28C1179.1 28 1160.54 46.5229 1160.54 69.4226C1160.54 92.2832 1179.06 110.845 1201.96 110.845C1224.86 110.845 1243.38 92.3223 1243.38 69.4226C1243.38 46.5229 1224.82 28 1201.96 28Z" fill="#FCBA23"/>
<path d="M1186.13 88.2996L1209.31 48.2057H1214.27L1190.94 88.2996H1186.13ZM1223.81 77.6314C1223.81 80.9139 1222.91 83.4931 1221.11 85.447C1219.31 87.3618 1216.89 88.3387 1213.88 88.3387C1210.83 88.3387 1208.41 87.3618 1206.61 85.447C1204.81 83.4931 1203.91 80.9139 1203.91 77.6314C1203.91 74.3879 1204.81 71.8088 1206.61 69.894C1208.41 67.9791 1210.83 67.0022 1213.88 67.0022C1216.93 67.0022 1219.31 67.9401 1221.11 69.894C1222.91 71.7697 1223.81 74.3488 1223.81 77.6314ZM1213.84 84.2355C1215.01 84.2355 1215.87 83.7275 1216.42 82.6724C1216.97 81.6173 1217.2 79.937 1217.2 77.5923C1217.2 75.2476 1216.93 73.5673 1216.42 72.5512C1215.91 71.5352 1215.05 71.0272 1213.84 71.0272C1212.67 71.0272 1211.81 71.5352 1211.26 72.5512C1210.71 73.5673 1210.48 75.2476 1210.48 77.5923C1210.48 79.937 1210.75 81.6564 1211.26 82.6724C1211.81 83.7275 1212.67 84.2355 1213.84 84.2355ZM1196.96 58.874C1196.96 62.1174 1196.06 64.6966 1194.26 66.6114C1192.47 68.5262 1190.04 69.5032 1186.99 69.5032C1183.95 69.5032 1181.52 68.5653 1179.73 66.6114C1177.93 64.6966 1177.03 62.1174 1177.03 58.8349C1177.03 55.5914 1177.93 52.9732 1179.73 51.0584C1181.52 49.1436 1183.95 48.1666 1186.99 48.1666C1190.04 48.1666 1192.47 49.1436 1194.26 51.0584C1196.06 53.0514 1196.96 55.6305 1196.96 58.874ZM1186.99 65.4781C1188.17 65.4781 1189.03 64.9701 1189.57 63.9541C1190.12 62.9381 1190.35 61.2577 1190.35 58.9131C1190.35 56.5684 1190.08 54.888 1189.57 53.872C1189.07 52.856 1188.21 52.348 1186.99 52.348C1185.78 52.348 1184.96 52.856 1184.41 53.872C1183.87 54.888 1183.63 56.5684 1183.63 58.9131C1183.63 61.2577 1183.91 62.9381 1184.41 63.9541C1184.96 64.9701 1185.82 65.4781 1186.99 65.4781Z" fill="white"/>
<path fill-rule="evenodd" clip-rule="evenodd" d="M873.199 300.372H709.032C698.872 300.372 690.548 308.695 690.548 318.856V404.046C690.548 414.206 698.872 422.529 709.032 422.529H873.238C883.398 422.529 891.722 414.206 891.722 404.046V318.856C891.682 308.695 883.359 300.372 873.199 300.372Z" fill="#62A5E4"/>
<path d="M891.721 352.895H689.532V357.233H891.721V352.895Z" fill="white"/>
<path d="M891.682 363.053H690.508V379.075H891.682V363.053Z" fill="white"/>
<path d="M863.976 393.457H829.196V401.742H863.976V393.457Z" fill="white"/>
<path d="M814.698 393.69H800.278V401.975H814.698V393.69Z" fill="white"/>
<path fill-rule="evenodd" clip-rule="evenodd" d="M878.473 330.073H841.506C839.669 330.073 838.145 331.598 838.145 333.434V342.422C838.145 344.259 839.669 345.783 841.506 345.783H878.473C880.31 345.783 881.834 344.259 881.834 342.422V333.434C881.795 331.558 880.31 330.073 878.473 330.073Z" fill="white"/>
<path fill-rule="evenodd" clip-rule="evenodd" d="M818.998 330.073H782.03C780.194 330.073 778.669 331.598 778.669 333.434V342.422C778.669 344.259 780.194 345.783 782.03 345.783H818.998C820.835 345.783 822.359 344.259 822.359 342.422V333.434C822.319 331.558 820.835 330.073 818.998 330.073Z" fill="white"/>
<path d="M710.831 393.302C713.605 391.387 717.357 390.176 721.538 390.176C725.68 390.176 729.471 391.387 732.245 393.302C735.137 395.334 736.896 398.148 736.896 401.313C736.896 404.478 735.098 407.292 732.245 409.324C729.471 411.239 725.719 412.45 721.538 412.45C717.396 412.45 713.605 411.239 710.831 409.324C707.939 407.292 706.18 404.478 706.18 401.313C706.18 398.148 707.939 395.334 710.831 393.302ZM721.538 392.638C717.904 392.638 714.582 393.654 712.237 395.295C710.01 396.858 708.642 398.968 708.642 401.274C708.642 403.579 710.01 405.69 712.237 407.253C714.582 408.894 717.865 409.91 721.538 409.91C725.172 409.91 728.494 408.894 730.839 407.253C733.066 405.69 734.434 403.579 734.434 401.274C734.434 398.968 733.066 396.858 730.839 395.295C728.455 393.654 725.172 392.638 721.538 392.638Z" fill="white"/>
<path fill-rule="evenodd" clip-rule="evenodd" d="M1110.83 258.287H1115.99H1146.16L1151.82 323.079H1119.97L1113.41 298.577L1106.84 323.079H1075L1080.66 258.287H1110.83Z" fill="#FCBA23"/>
<path d="M812.902 421.945L935.294 304.32L938.576 254.222C938.576 254.222 936.661 246.368 961.632 229.994C961.632 229.994 982.969 214.636 988.557 202.444C988.557 202.444 988.948 200.998 990.628 201.897C995.982 204.789 1010.28 219.521 976.208 250.901L1075.66 166.766C1075.66 166.766 1089.07 153.948 1098.21 161.334C1098.21 161.334 1106.85 167.391 1093.83 182.084L1041.23 234.449C1041.23 234.449 1059.25 219.13 1069.64 232.69C1069.64 232.69 1077.07 242.46 1056.16 256.684C1078.98 240.779 1097.31 263.484 1074.18 278.529C1092.07 269.541 1110.44 288.181 1076.44 311.862L1025.52 353.089C1025.52 353.089 1007.31 366.61 989.26 363.758L925.993 422.414L812.902 421.945Z" fill="#FFB4C3"/>
<path d="M1078.2 252.737C1086.68 256.762 1088.48 268.368 1075.66 277.551L1065.07 283.257C1065.07 283.257 1074.41 275.597 1078.24 267.821C1082.03 260.201 1078.32 252.932 1078.2 252.737Z" fill="#FFA0B3"/>
<path d="M1063.59 227.963C1065.77 228.784 1067.84 230.308 1069.68 232.692C1069.68 232.692 1076.72 241.992 1057.68 255.669L1048.74 260.085C1048.74 260.085 1055.07 253.52 1060.46 247.268C1066.28 240.546 1070.23 237.029 1063.59 227.963Z" fill="#FFA0B3"/>
<path d="M1091.13 278.45C1098.56 283.491 1098.36 296.66 1076.48 311.862L1025.56 353.089C1025.56 353.089 1007.35 366.61 989.297 363.757L926.03 422.413L911.024 422.335L979.879 357.348C979.879 357.348 981.481 357.778 994.533 356.528C1007.62 355.277 1024.19 346.68 1024.19 346.68C1024.19 346.68 1069.95 312.252 1085.35 295.84C1089.92 291.033 1093.56 285.171 1091.13 278.45Z" fill="#FFA0B3"/>
<path d="M1041.98 233.864C1042.21 233.669 1042.48 233.474 1042.8 233.239L1041.98 233.864ZM1093.72 159.226C1095.28 159.538 1096.8 160.163 1098.25 161.336C1098.25 161.336 1106.88 167.393 1093.87 182.086L1041.66 234.06L1030.57 240.351C1030.57 240.351 1086.29 183.415 1091.29 177.827C1096.53 171.965 1099.34 164.579 1093.72 159.226Z" fill="#FFA0B3"/>
<path fill-rule="evenodd" clip-rule="evenodd" d="M671.243 422.416H1294.34C1296.14 422.416 1297.58 423.862 1297.58 425.659C1297.58 427.457 1296.14 428.903 1294.34 428.903H671.243C669.446 428.903 668 427.457 668 425.659C668 423.901 669.485 422.416 671.243 422.416Z" fill="#0C1570"/>
<path d="M732.363 393.302C735.137 391.387 738.889 390.176 743.07 390.176C747.213 390.176 751.003 391.387 753.778 393.302C756.669 395.334 758.428 398.148 758.428 401.313C758.428 404.478 756.63 407.292 753.778 409.324C751.003 411.239 747.252 412.45 743.07 412.45C738.928 412.45 735.137 411.239 732.363 409.324C729.471 407.292 727.713 404.478 727.713 401.313C727.713 398.148 729.471 395.334 732.363 393.302ZM743.07 392.638C739.436 392.638 736.114 393.654 733.77 395.295C731.542 396.858 730.175 398.968 730.175 401.274C730.175 403.579 731.542 405.69 733.77 407.253C736.114 408.894 739.436 409.91 743.07 409.91C746.705 409.91 750.026 408.894 752.371 407.253C754.598 405.69 756.005 403.579 756.005 401.274C756.005 398.968 754.637 396.858 752.371 395.295C749.987 393.654 746.705 392.638 743.07 392.638Z" fill="white"/>
<path d="M304.173 67.4053C413.065 43.8726 436.008 -24.2526 433.867 -55.3737L-13 -72V171C46.0687 55.8947 168.058 96.821 304.173 67.4053Z" fill="url(#paint1_linear)"/>
</g>
<defs>
<linearGradient id="paint0_linear" x1="803.67" y1="919.692" x2="803.67" y2="-109.16" gradientUnits="userSpaceOnUse">
<stop stop-color="#1E9DF8"/>
<stop offset="0.1213" stop-color="#41ACF9"/>
<stop offset="0.3514" stop-color="#7DC7FB"/>
<stop offset="0.5625" stop-color="#ADDBFD"/>
<stop offset="0.7477" stop-color="#CFEAFE"/>
<stop offset="0.8999" stop-color="#E4F4FF"/>
<stop offset="1" stop-color="#ECF7FF"/>
</linearGradient>
<linearGradient id="paint1_linear" x1="210.484" y1="342.435" x2="210.484" y2="-121.19" gradientUnits="userSpaceOnUse">
<stop stop-color="#1E9DF8"/>
<stop offset="0.1213" stop-color="#41ACF9"/>
<stop offset="0.3514" stop-color="#7DC7FB"/>
<stop offset="0.5625" stop-color="#ADDBFD"/>
<stop offset="0.7477" stop-color="#CFEAFE"/>
<stop offset="0.8999" stop-color="#E4F4FF"/>
<stop offset="1" stop-color="#ECF7FF"/>
</linearGradient>
</defs>
</svg>
