<svg width="1366" height="477" viewBox="0 0 1366 477" fill="none" xmlns="http://www.w3.org/2000/svg">
<mask id="mask0" mask-type="alpha" maskUnits="userSpaceOnUse" x="0" y="0" width="1366" height="477">
<rect width="1366" height="476.582" fill="#C4C4C4"/>
</mask>
<g mask="url(#mask0)">
<path d="M1366 -0.324219H0V476.676H1366V-0.324219Z" fill="#FBFEFF"/>
<path d="M304.5 415.303C218.5 431.055 147 494.676 147 494.676L304.5 533.423L1374.5 517.676V-23.3242H1032.97C1006.94 87.7107 1021.14 83.7733 890.973 112.91C760.805 142.047 707.16 209.77 699.271 308.993C691.382 408.216 572 433.676 513 423.176C459.068 413.578 390.5 399.551 304.5 415.303Z" fill="url(#paint0_linear)"/>
<path d="M346.842 54.881C472.787 27.6684 499.322 -51.1102 496.847 -87.0979L-20 -106.324V174.676C48.3188 41.5705 189.412 88.8968 346.842 54.881Z" fill="url(#paint1_linear)"/>
<path d="M1112.41 396.654C1112.41 396.654 1092.97 387.825 1095.84 374.116C1098.7 360.407 1114.54 361.84 1112.41 351.036C1110.28 340.231 1099.9 323.385 1109.97 311.109C1120.08 298.833 1136.85 306.191 1138.98 287.177C1140.68 271.842 1147.77 260.999 1161.48 264.174C1174.18 267.117 1183.63 276.954 1183.86 300.344C1184.13 325.244 1201.63 318.235 1201.87 336.591C1202.1 355.063 1187.38 355.063 1181.61 367.455C1178.9 373.303 1185.99 393.866 1165.04 396.654H1112.41Z" fill="#00A551"/>
<path d="M1159.35 274.123C1159.35 274.123 1159.39 274.549 1159.46 275.363C1159.7 277.802 1160.12 283.805 1160.12 292.092C1160.12 316.45 1156.29 360.907 1132.05 396.419C1131.7 396.884 1131.85 397.581 1132.32 397.89C1132.82 398.239 1133.48 398.084 1133.79 397.619C1158.42 361.488 1162.21 316.644 1162.21 292.092C1162.21 280.9 1161.4 273.891 1161.4 273.852C1161.32 273.271 1160.82 272.845 1160.24 272.923C1159.7 273.039 1159.31 273.543 1159.35 274.123Z" fill="#495CA8"/>
<path d="M1135.8 396.65C1135.8 396.65 1132.74 379.727 1144.2 372.872C1155.67 365.979 1167.4 360.635 1166.12 349.521C1164.85 338.445 1167.98 325.317 1186.38 325.085C1197.76 324.93 1193.46 312.964 1205.04 310.563C1212.05 309.091 1216.7 316.449 1217.59 323.652C1218.6 331.862 1213.99 339.917 1219.29 346.578C1226.19 355.213 1229.01 371.362 1214.14 375.932C1194.43 382.012 1220.22 398.121 1163.95 402.033L1135.8 396.65Z" fill="#58BC80"/>
<path d="M1204.27 318.581C1203.88 329.347 1199.12 344.682 1190.91 359.321C1182.74 373.959 1171.2 387.9 1157.37 396.149C1156.87 396.458 1156.72 397.117 1156.99 397.62C1157.3 398.124 1157.96 398.279 1158.46 397.969C1172.71 389.449 1184.44 375.237 1192.77 360.366C1201.06 345.496 1205.94 329.967 1206.36 318.659C1206.4 318.078 1205.94 317.574 1205.36 317.574C1204.77 317.574 1204.27 318 1204.27 318.581Z" fill="#495CA8"/>
<path d="M834.13 388.171C818.756 400.757 756.098 402.5 726.899 394.019C714.584 390.417 697.622 372.216 700.101 359.398C707.42 362.302 714.313 366.214 721.787 368.731C729.261 371.248 737.703 372.332 745.061 369.505C747.075 368.731 749.282 366.795 748.314 364.936C748.004 364.316 747.346 363.89 746.726 363.542C743.009 361.489 738.594 361.102 734.334 360.676C721.477 359.398 707.923 357.036 698.397 348.71C696.577 347.122 694.95 345.302 693.982 343.133C690.884 336.085 695.957 328.418 697.622 320.944C704.012 333.839 717.837 343.095 732.708 344.373C734.644 344.527 737.045 344.334 737.897 342.63C739.02 340.306 736.077 338.176 733.637 337.053C724.808 333.026 716.52 327.798 709.163 321.641C707.497 320.246 705.871 318.814 704.825 316.955C701.34 310.914 705.058 303.517 708.737 297.592C714.662 304.601 720.78 311.727 728.796 316.451C732.553 318.659 737.084 320.363 741.382 319.278C741.924 319.123 742.505 318.93 742.815 318.465C743.086 318 743.047 317.419 742.892 316.916C741.769 312.54 736.735 310.488 732.708 308.203C723.917 303.246 715.281 300.69 713.267 291.125C712.725 288.491 715.242 281.017 717.489 277.726C720.315 282.799 724.188 287.368 728.835 291.009C731.391 293.061 735.07 294.842 737.897 293.139C737.587 288.53 733.289 285.316 729.648 282.257C726.008 279.236 722.484 274.666 724.304 270.368C725.389 267.812 728.022 266.302 729.997 264.288C732.553 261.693 733.986 258.131 733.908 254.568C735.418 257.898 739.988 258.634 743.783 258.44C747.578 258.247 751.761 257.627 754.859 259.718C758.847 262.429 758.847 268.083 757.763 272.653C756.679 277.222 755.556 278.462 758.46 282.257C759.738 283.922 766.593 281.172 761.442 263.359C790.254 267.27 760.9 284.348 771.821 294.107C777.552 299.218 786.188 281.405 779.953 269.981C779.953 269.981 805.008 273.466 799.625 289.421C794.243 305.376 786.575 305.027 789.828 313.315C793.081 321.563 807.1 314.98 809.346 289.731C809.346 289.731 832.155 307.351 825.843 316.877C819.492 326.404 808.532 335.582 790.951 339.958C783.671 341.778 786.807 353.047 798.464 347.858C810.12 342.669 824.41 338.525 833.084 318.349C833.084 318.349 852.602 345.418 825.572 352.001C821.312 353.047 803.769 355.487 805.241 362.302C806.712 369.118 827.43 363.542 837.073 355.061C837.073 355.022 855.197 377.173 834.13 388.171Z" fill="#A2C769"/>
<path fill-rule="evenodd" clip-rule="evenodd" d="M785.684 154.109H1129.26C1135.45 154.109 1140.53 159.182 1140.53 165.378V375.426C1140.53 381.622 1135.45 386.695 1129.26 386.695H785.684C779.488 386.695 774.415 381.622 774.415 375.426V165.378C774.415 159.182 779.488 154.109 785.684 154.109Z" fill="#15378B"/>
<path fill-rule="evenodd" clip-rule="evenodd" d="M785.375 164.954H1129.57C1129.64 164.954 1129.68 164.993 1129.68 165.07V375.737C1129.68 375.815 1129.64 375.853 1129.57 375.853H785.375C785.297 375.853 785.258 375.815 785.258 375.737V165.07C785.22 164.993 785.297 164.954 785.375 164.954Z" fill="#B6DEF1"/>
<path fill-rule="evenodd" clip-rule="evenodd" d="M1129.69 356.725V375.546C1129.69 375.74 1129.53 375.856 1129.38 375.856H785.57C785.376 375.856 785.26 375.701 785.26 375.546V356.725H1129.69Z" fill="#D9F0FC"/>
<path fill-rule="evenodd" clip-rule="evenodd" d="M785.569 164.954H1129.37C1129.57 164.954 1129.68 165.07 1129.68 165.186V189.119H785.221V165.186C785.221 165.031 785.376 164.954 785.569 164.954Z" fill="#D9F0FC"/>
<path fill-rule="evenodd" clip-rule="evenodd" d="M768.726 400.252H1145.84L1199.9 426.353C1201.41 427.089 1200.55 438.048 1199.7 439.365C1198.08 441.882 1193.43 444.477 1190.18 444.477H727.677C724.463 444.477 719.97 441.998 718.421 439.559C717.492 438.126 717.957 428.754 718.034 426.973L768.726 400.252Z" fill="#15378B"/>
<path fill-rule="evenodd" clip-rule="evenodd" d="M768.722 400.252H1145.83L1199.51 425.927C1201.87 427.05 1200.86 435.26 1200.43 435.88C1198.81 438.397 1193.43 441.263 1190.17 441.263H727.673C724.458 441.263 719.463 438.591 717.875 436.151C717.526 435.57 717.604 434.021 717.565 431.891C717.604 429.722 717.72 427.709 718.03 426.934L768.722 400.252Z" fill="#88A1DF"/>
<path fill-rule="evenodd" clip-rule="evenodd" d="M783.745 386.58L1132.51 386.658C1137.15 386.387 1141.22 386.774 1144.51 388.981L1199.19 425.693C1203.26 428.404 1195.13 434.329 1190.17 434.329H727.67C722.83 434.329 715.007 428.714 718.879 425.926L769.455 389.523C774.141 386.116 778.362 386.542 783.745 386.58Z" fill="white"/>
<path fill-rule="evenodd" clip-rule="evenodd" d="M819.569 395.218H932.996H936.133H1092.89L1111.37 414.735H936.133H932.996H801.135L819.569 395.218Z" fill="#15378B"/>
<path fill-rule="evenodd" clip-rule="evenodd" d="M911.968 417.64H976.33H978.111H1000.53L1010.99 428.676H978.111H976.33H901.512L911.968 417.64Z" fill="#88A1DF"/>
<path d="M785.221 240.432L873.864 239.193L899.577 212.588C899.577 212.588 902.869 204.843 925.059 207.206C925.059 207.206 944.654 208.483 953.677 204.224C953.677 204.224 954.413 203.604 954.955 204.882C957.859 213.402 958.44 218.01 939.658 228.195C959.486 228.156 979.391 227.691 999.451 227.691C1004.99 227.691 1009.52 232.222 1009.52 237.76C1009.52 243.298 1004.99 247.829 999.451 247.829H957.704C957.743 248.177 957.782 248.526 957.821 248.913H1025.94C1031.48 248.913 1036.01 253.444 1036.01 258.982C1036.01 264.519 1031.48 269.05 1025.94 269.05H957.472C957.433 269.399 957.395 269.747 957.356 270.096H1008.63C1014.17 270.096 1018.7 274.627 1018.7 280.165C1018.7 285.702 1014.17 290.233 1008.63 290.233H954.297L954.064 291.318H987.058C992.596 291.318 997.127 295.848 997.127 301.386C997.127 306.924 992.596 311.455 987.058 311.455H936.018H903.179C903.179 311.455 881.686 313.43 871.772 297.668L785.221 297.552V240.432Z" fill="#F9889F"/>
<path d="M1029.46 122.435L1029.77 78.5981C1029.85 67.7937 1034.22 58.0348 1041.31 50.9868C1048.36 43.9387 1058.08 39.6014 1068.77 39.6014C1079.46 39.6402 1089.1 44.0162 1096.07 51.1417C1103.04 58.2672 1107.3 68.026 1107.22 78.8305L1106.91 122.668C1106.91 124.294 1108.19 125.611 1109.78 125.611C1111.37 125.611 1112.68 124.294 1112.68 122.668L1112.95 78.8305C1113.11 54.0074 1093.32 33.8313 1068.73 33.7539C1044.14 33.6764 1024.08 53.775 1023.88 78.5981L1023.57 122.435C1023.57 124.062 1024.85 125.379 1026.44 125.379C1028.11 125.379 1029.42 124.062 1029.46 122.435Z" fill="#A5302F"/>
<path d="M1122.21 101.562L945.893 101.059L923.509 349.793L1099.87 350.258L1122.21 101.562Z" fill="#EE8C21"/>
<path d="M1153.15 101.639L1122.21 101.561L1099.86 350.257L1172.2 350.489L1153.15 101.639Z" fill="#ED7123"/>
<path d="M1099.86 350.256L1136.23 317.649L1172.2 350.488L1099.86 350.256Z" fill="#D86827"/>
<path d="M984.887 125.649C984.926 121.621 988.179 118.368 992.168 118.368C996.156 118.368 999.371 121.66 999.332 125.687C999.293 129.715 996.04 132.968 992.051 132.968C988.101 132.968 984.887 129.676 984.887 125.649Z" fill="#A5302F"/>
<path d="M1068.15 125.882C1068.18 121.855 1071.44 118.602 1075.43 118.602C1079.42 118.602 1082.63 121.893 1082.59 125.921C1082.55 129.948 1079.3 133.201 1075.31 133.201C1071.32 133.201 1068.11 129.91 1068.15 125.882Z" fill="#A5302F"/>
<path d="M995.033 122.358L995.343 78.5202C995.421 67.7158 999.797 57.9569 1006.84 50.9089C1013.89 43.8608 1023.61 39.5236 1034.3 39.5236C1045.03 39.5623 1054.63 43.9383 1061.6 51.0638C1068.57 58.1893 1072.83 67.9481 1072.76 78.7526L1072.48 122.59C1072.48 124.216 1073.76 125.533 1075.35 125.533C1076.94 125.533 1078.25 124.216 1078.25 122.59L1078.56 78.7526C1078.72 53.9295 1058.93 33.7535 1034.34 33.676C1009.75 33.5986 989.689 53.6971 989.534 78.5202L989.263 122.358C989.263 123.984 990.541 125.301 992.129 125.301C993.717 125.262 995.033 123.945 995.033 122.358Z" fill="#A5302F"/>
<path fill-rule="evenodd" clip-rule="evenodd" d="M944.113 64.6162C976.333 64.6162 1002.43 90.7173 1002.43 122.937C1002.43 155.157 976.333 181.258 944.113 181.258C911.894 181.258 885.792 155.157 885.792 122.937C885.792 90.756 911.894 64.6162 944.113 64.6162Z" fill="#EC1651"/>
<path d="M926.18 149.621L958.826 93.1596H965.797L932.919 149.621H926.18ZM979.234 134.557C979.234 139.166 977.956 142.806 975.439 145.555C972.883 148.266 969.514 149.621 965.254 149.621C960.956 149.621 957.548 148.266 954.992 145.555C952.475 142.806 951.197 139.166 951.197 134.557C951.197 129.988 952.475 126.347 954.992 123.637C957.548 120.926 960.956 119.57 965.254 119.57C969.553 119.57 972.922 120.926 975.439 123.637C977.995 126.347 979.234 129.988 979.234 134.557ZM965.216 143.929C966.881 143.929 968.081 143.193 968.817 141.76C969.553 140.289 969.94 137.926 969.94 134.596C969.94 131.304 969.553 128.942 968.817 127.509C968.081 126.076 966.881 125.379 965.216 125.379C963.551 125.379 962.35 126.076 961.614 127.509C960.878 128.942 960.491 131.304 960.491 134.596C960.491 137.926 960.878 140.289 961.614 141.76C962.35 143.193 963.551 143.929 965.216 143.929ZM941.438 108.185C941.438 112.755 940.16 116.395 937.643 119.106C935.087 121.817 931.679 123.172 927.42 123.172C923.121 123.172 919.713 121.817 917.196 119.106C914.679 116.395 913.401 112.755 913.401 108.146C913.401 103.577 914.679 99.8978 917.196 97.187C919.713 94.4762 923.121 93.1208 927.42 93.1208C931.718 93.1208 935.126 94.4762 937.643 97.187C940.16 99.9366 941.438 103.577 941.438 108.185ZM927.42 117.479C929.085 117.479 930.285 116.743 931.021 115.311C931.757 113.878 932.144 111.477 932.144 108.185C932.144 104.893 931.757 102.492 931.021 101.06C930.285 99.6267 929.085 98.891 927.42 98.891C925.754 98.891 924.554 99.6267 923.818 101.06C923.082 102.492 922.695 104.893 922.695 108.185C922.695 111.477 923.082 113.878 923.818 115.311C924.515 116.743 925.754 117.479 927.42 117.479Z" fill="white"/>
<path fill-rule="evenodd" clip-rule="evenodd" d="M1034.3 210.963L1034.34 217.624H1044.8L1045.81 210.963H1034.3ZM1017.73 217.624H1028.38L1028.34 210.963H1015.99L1017.73 217.624ZM1004.33 217.624H1011.61L1009.87 210.963H1002.12L1004.33 217.624ZM1014.71 229.513L1013.16 223.51H1006.27L1008.24 229.513H1014.71ZM1028.38 229.513L1028.34 223.549H1019.2L1020.75 229.513H1028.38ZM1042.98 229.513L1043.91 223.549H1034.34L1034.38 229.513H1042.98ZM1057.42 223.51H1049.91L1048.98 229.474H1053.43C1053.55 229.474 1053.67 229.474 1053.82 229.513H1056.45L1057.42 223.51ZM1059.48 210.963H1051.81L1050.8 217.624H1058.39L1059.48 210.963ZM1053.67 198.92L1052.74 204.999H1060.48L1061.49 198.92H1053.67ZM1034.26 198.92L1034.3 204.999H1046.73L1047.66 198.92H1034.26ZM1012.85 198.92L1014.44 204.999H1028.3L1028.26 198.92H1012.85ZM1000.19 204.999H1008.36L1006.77 198.92H1003.71C1001.74 198.92 1000.15 197.332 1000.15 195.357C1000.15 193.382 1001.74 191.794 1003.71 191.794H1069.85L1063.35 231.372C1062.84 234.392 1060.25 236.6 1057.19 236.6H1014.01C1010.29 236.948 1009.75 238.575 1007.12 241.208C1004.99 243.338 1004.79 245.08 1004.14 247.985H1051.23C1053.16 247.985 1054.75 251.47 1054.75 253.445C1054.75 255.381 1055.02 253.755 1053.09 253.755H997.592L995.733 253.445C995.733 246.707 998.676 239.465 1003.63 235.128C1002.74 234.392 1002.08 233.424 1001.7 232.301L986.865 187.186C986.555 186.295 985.742 185.714 984.812 185.714H979.546C977.571 185.714 975.983 184.126 975.983 182.151C975.983 180.176 977.571 178.589 979.546 178.589H984.812C988.801 178.589 992.364 181.145 993.603 184.978L1000.19 204.999Z" fill="white"/>
<path fill-rule="evenodd" clip-rule="evenodd" d="M1012.58 244.923C1016.26 244.923 1019.2 247.905 1019.2 251.545C1019.2 255.224 1016.22 258.167 1012.58 258.167C1008.9 258.167 1005.96 255.186 1005.96 251.545C1005.96 247.905 1008.94 244.923 1012.58 244.923Z" fill="white"/>
<path fill-rule="evenodd" clip-rule="evenodd" d="M1051.42 244.923C1055.1 244.923 1058.04 247.905 1058.04 251.545C1058.04 255.224 1055.06 258.167 1051.42 258.167C1047.74 258.167 1044.8 255.186 1044.8 251.545C1044.76 247.905 1047.74 244.923 1051.42 244.923Z" fill="white"/>
<path d="M785.221 260.107L873.205 258.868L898.919 232.263C898.919 232.263 902.211 224.518 924.4 226.88C924.4 226.88 943.996 228.158 953.019 223.898C953.019 223.898 953.948 223.279 954.49 224.557C957.395 233.076 948.952 246.011 914.409 247.87H920.838C921.806 247.56 922.851 247.366 923.936 247.366H998.792C1011.8 247.366 1012.46 267.116 998.792 267.116H957.046C957.085 267.465 957.124 268.201 957.162 268.588H1025.28C1038.29 268.588 1038.95 288.338 1025.28 288.338H956.814C956.775 288.686 956.736 289.422 956.698 289.771H1007.97C1020.98 289.771 1021.64 309.521 1007.97 309.521H953.638L953.406 310.992H986.4C999.606 310.992 1000.07 330.742 986.4 330.742H935.36H902.559C902.559 330.742 881.067 333.105 871.153 317.343L785.221 317.305V260.107Z" fill="#FFB4C3"/>
<path d="M1035.23 277.917C1035.54 283.029 1032.33 288.296 1025.24 288.296H956.774C956.736 288.644 956.697 289.38 956.658 289.729L947.17 289.767C947.17 289.767 949.029 289.07 951.508 287.715C953.986 286.359 955.419 283.726 955.419 283.726C955.419 283.726 1026.02 284.307 1030.28 282.255C1034.42 280.28 1035.23 277.995 1035.23 277.917Z" fill="#FF819A"/>
<path d="M1008.78 256.695C1009.09 261.807 1005.88 267.074 998.791 267.074L957.238 267.113C957.199 267.461 957.161 268.197 957.122 268.545L947.634 268.584C947.634 268.584 949.493 267.887 951.971 266.532C954.45 265.176 955.883 262.543 955.883 262.543C955.883 262.543 999.642 263.046 1003.82 261.033C1008.01 259.058 1008.74 256.773 1008.78 256.695Z" fill="#FF819A"/>
<path d="M1017.96 299.061C1018.27 304.173 1015.06 309.439 1007.97 309.439H953.637C953.599 309.788 953.56 310.524 953.521 310.872L944.033 310.911C944.033 310.911 945.892 310.214 948.371 308.859C950.81 307.503 952.282 304.87 952.282 304.87C952.282 304.87 1008.78 305.412 1013 303.398C1017.19 301.423 1017.92 299.177 1017.96 299.061Z" fill="#FF819A"/>
<path d="M996.391 320.287C996.701 325.399 993.487 330.665 986.4 330.665H903.605H902.559C890.903 331.943 877.697 327.645 871.153 317.266L785.221 317.228V310.334H877.814C886.759 328.071 900.158 326.096 912.938 326.173C938.574 326.328 988.336 326.135 991.434 324.663C995.617 322.649 996.353 320.364 996.391 320.287Z" fill="#FF819A"/>
</g>
<defs>
<linearGradient id="paint0_linear" x1="720.702" y1="926.205" x2="720.702" y2="-136.026" gradientUnits="userSpaceOnUse">
<stop stop-color="#1E9DF8"/>
<stop offset="0.1213" stop-color="#41ACF9"/>
<stop offset="0.3514" stop-color="#7DC7FB"/>
<stop offset="0.5625" stop-color="#ADDBFD"/>
<stop offset="0.7477" stop-color="#CFEAFE"/>
<stop offset="0.8999" stop-color="#E4F4FF"/>
<stop offset="1" stop-color="#ECF7FF"/>
</linearGradient>
<linearGradient id="paint1_linear" x1="238.481" y1="372.919" x2="238.481" y2="-163.207" gradientUnits="userSpaceOnUse">
<stop stop-color="#1E9DF8"/>
<stop offset="0.1213" stop-color="#41ACF9"/>
<stop offset="0.3514" stop-color="#7DC7FB"/>
<stop offset="0.5625" stop-color="#ADDBFD"/>
<stop offset="0.7477" stop-color="#CFEAFE"/>
<stop offset="0.8999" stop-color="#E4F4FF"/>
<stop offset="1" stop-color="#ECF7FF"/>
</linearGradient>
</defs>
</svg>
