<svg width="31" height="30" viewBox="0 0 31 30" fill="none" xmlns="http://www.w3.org/2000/svg">
<rect x="1.45" y="0.7" width="28.6" height="28.6" stroke="white" stroke-width="1.4"/>
<path d="M18.6458 21.9945H12.9487C11.8355 21.9933 10.7682 21.5738 9.98106 20.828C9.19391 20.0821 8.75118 19.0709 8.75 18.0162V12.6186C8.75126 11.564 9.19402 10.5528 9.98116 9.80707C10.7683 9.06131 11.8355 8.64182 12.9487 8.64062H18.6458C19.759 8.64174 20.8263 9.0612 21.6135 9.80697C22.4007 10.5527 22.8435 11.5639 22.8448 12.6186V18.0162C22.8436 19.071 22.4008 20.0822 21.6136 20.8281C20.8264 21.5739 19.7591 21.9934 18.6458 21.9945ZM12.9487 9.98377C12.2114 9.98459 11.5045 10.2625 10.9832 10.7564C10.4618 11.2504 10.1685 11.9201 10.1677 12.6186V18.0162C10.1685 18.7148 10.4618 19.3844 10.9832 19.8783C11.5046 20.3723 12.2114 20.6501 12.9487 20.6508H18.6458C19.383 20.6501 20.0899 20.3722 20.6112 19.8783C21.1325 19.3844 21.4257 18.7147 21.4265 18.0162V12.6186C21.4257 11.9201 21.1325 11.2504 20.6112 10.7564C20.0899 10.2625 19.3831 9.98459 18.6458 9.98377H12.9487ZM15.7965 18.7708C15.0756 18.7706 14.3709 18.5679 13.7716 18.1882C13.1723 17.8086 12.7053 17.2692 12.4296 16.6381C12.1539 16.007 12.0819 15.3126 12.2227 14.6427C12.3635 13.9729 12.7108 13.3576 13.2207 12.8748C13.7305 12.3919 14.3801 12.0631 15.0872 11.93C15.7942 11.7968 16.5271 11.8653 17.1931 12.1268C17.8591 12.3883 18.4283 12.831 18.8288 13.3989C19.2292 13.9669 19.4429 14.6346 19.4429 15.3176C19.4419 16.2333 19.0575 17.1112 18.3741 17.7587C17.6906 18.4062 16.7639 18.7703 15.7974 18.7711L15.7965 18.7708ZM15.7965 13.206C15.3559 13.206 14.9253 13.3298 14.559 13.5617C14.1927 13.7936 13.9071 14.1232 13.7386 14.5088C13.57 14.8944 13.5258 15.3188 13.6118 15.7282C13.6977 16.1375 13.9099 16.5136 14.2214 16.8087C14.5329 17.1039 14.9298 17.3049 15.3619 17.3863C15.794 17.4677 16.2419 17.4259 16.6489 17.2662C17.0559 17.1065 17.4038 16.836 17.6486 16.4889C17.8934 16.1419 18.024 15.7338 18.024 15.3164C18.0231 14.7572 17.7882 14.2212 17.3708 13.8258C16.9534 13.4304 16.3876 13.208 15.7974 13.2071L15.7965 13.206ZM19.4488 12.7162C19.276 12.7161 19.1071 12.6675 18.9635 12.5765C18.8198 12.4855 18.7079 12.3562 18.6418 12.2049C18.5758 12.0537 18.5585 11.8873 18.5923 11.7267C18.6261 11.5662 18.7093 11.4187 18.8316 11.303C18.9538 11.1873 19.1095 11.1085 19.2789 11.0766C19.4484 11.0447 19.6241 11.0612 19.7837 11.1239C19.9433 11.1866 20.0797 11.2927 20.1756 11.4288C20.2716 11.565 20.3228 11.725 20.3227 11.8887C20.3227 12.1082 20.2308 12.3188 20.0671 12.4741C19.9034 12.6294 19.6814 12.7169 19.4497 12.7173L19.4488 12.7162Z" fill="white"/>
</svg>
