<svg width="131" height="32" viewBox="0 0 131 32" fill="none" xmlns="http://www.w3.org/2000/svg">
<path d="M43.7473 11.0508H38.75V8.10596H52.3587V11.0508H47.3614V23.7225H43.7473V11.0508Z" fill="#333333"/>
<path d="M66.395 20.8223V23.7225H54.3033V8.10596H66.105V11.0062H57.8951V14.3972H65.1456V17.2082H57.8951V20.8223H66.395Z" fill="#333333"/>
<path d="M81.92 20.7777V23.7225H68.2667V21.38L76.8335 11.0508H68.4452V8.10596H81.5854V10.4484L73.0409 20.7777H81.92Z" fill="#333333"/>
<path d="M94.1879 23.7225L91.1762 19.3722H90.9977H87.8521V23.7225H84.2379V8.10596H90.9977C92.3809 8.10596 93.5781 8.33649 94.5895 8.79755C95.6157 9.25861 96.404 9.91302 96.9543 10.7608C97.5046 11.6085 97.7797 12.6125 97.7797 13.7725C97.7797 14.9326 97.4971 15.9365 96.932 16.7843C96.3817 17.6172 95.5934 18.2567 94.5672 18.7029L98.0698 23.7225H94.1879ZM94.121 13.7725C94.121 12.895 93.8384 12.2258 93.2732 11.7647C92.7081 11.2888 91.8826 11.0508 90.7969 11.0508H87.8521V16.4943H90.7969C91.8826 16.4943 92.7081 16.2563 93.2732 15.7804C93.8384 15.3044 94.121 14.6352 94.121 13.7725Z" fill="#333333"/>
<path d="M112.735 20.8223V23.7225H100.643V8.10596H112.445V11.0062H104.235V14.3972H111.486V17.2082H104.235V20.8223H112.735Z" fill="#333333"/>
<path d="M121.299 17.5874L119.202 19.7738V23.7225H115.61V8.10596H119.202V15.4011L126.118 8.10596H130.134L123.664 15.0665L130.513 23.7225H126.297L121.299 17.5874Z" fill="#333333"/>
<path fill-rule="evenodd" clip-rule="evenodd" d="M4.63643 0.284424H26.5686C28.9911 0.284424 30.955 2.26716 30.955 4.713V26.8559C30.955 29.3017 28.9911 31.2844 26.5686 31.2844H4.63643C2.21387 31.2844 0.25 29.3017 0.25 26.8559V4.713C0.25 2.26716 2.21387 0.284424 4.63643 0.284424Z" fill="#DC1E52"/>
<path d="M10.7536 4.23047C10.7812 5.88824 10.8199 9.30324 10.7536 9.70109H24.513V10.9981C24.513 11.3954 24.3947 11.7837 24.1731 12.1134L17.3846 22.2173H24.513C24.513 24.4375 22.7132 26.2374 20.4929 26.2374H9.84177L18.0892 13.5969H10.7536V20.8911L7.811 24.8283C7.10198 24.2375 6.69202 23.3622 6.69202 22.4393V5.80536C6.69202 4.93557 7.39712 4.23047 8.26691 4.23047H10.7536Z" fill="white"/>
</svg>
