<svg width="23" height="23" viewBox="0 0 23 23" fill="none" xmlns="http://www.w3.org/2000/svg">
<path fill-rule="evenodd" clip-rule="evenodd" d="M5.12983 10.2992C6.85062 13.6811 9.62301 16.4415 13.0048 18.1742L15.6338 15.5453C15.9565 15.2226 16.4345 15.1151 16.8527 15.2585C18.1911 15.7006 19.6371 15.9396 21.1188 15.9396C21.7761 15.9396 22.3138 16.4774 22.3138 17.1346V21.3051C22.3138 21.9624 21.7761 22.5001 21.1188 22.5001C9.89785 22.5001 0.803955 13.4062 0.803955 2.18523C0.803955 1.52798 1.3417 0.990234 1.99895 0.990234H6.18143C6.83867 0.990234 7.37642 1.52798 7.37642 2.18523C7.37642 3.67897 7.61542 5.11296 8.05757 6.45135C8.18901 6.8696 8.09342 7.33565 7.75882 7.67025L5.12983 10.2992Z" fill="#DC1E52"/>
<path fill-rule="evenodd" clip-rule="evenodd" d="M14.1085 2.0144C18.5368 2.55117 22.0481 6.06245 22.5849 10.4907L20.5615 10.828C20.1708 7.26105 17.3382 4.42849 13.7713 4.0378L14.1085 2.0144V2.0144Z" fill="#DC1E52"/>
<path fill-rule="evenodd" clip-rule="evenodd" d="M13.4337 6.06299C16.1394 6.30498 18.2943 8.45987 18.5363 11.1655L16.5064 11.5038C16.4202 9.65923 14.94 8.17902 13.0954 8.09288L13.4337 6.06299V6.06299Z" fill="#DC1E52"/>
</svg>
