<svg width="117" height="20" viewBox="0 0 117 20" fill="none" xmlns="http://www.w3.org/2000/svg">
<path d="M9.93085 0.522217L12.0816 7.14168H19.0418L13.4109 11.2327L15.5617 17.8522L9.93085 13.7611L4.3 17.8522L6.45079 11.2327L0.819942 7.14168H7.78006L9.93085 0.522217Z" fill="#4459C4"/>
<path d="M58.2499 0.522217L60.4007 7.14168H67.3609L61.73 11.2327L63.8808 17.8522L58.2499 13.7611L52.6191 17.8522L54.7699 11.2327L49.139 7.14168H56.0992L58.2499 0.522217Z" fill="#4459C4"/>
<path d="M34.0904 0.522217L36.2412 7.14168H43.2013L37.5705 11.2327L39.7213 17.8522L34.0904 13.7611L28.4595 17.8522L30.6103 11.2327L24.9795 7.14168H31.9396L34.0904 0.522217Z" fill="#4459C4"/>
<path d="M82.4094 0.522217L84.5602 7.14168H91.5203L85.8894 11.2327L88.0402 17.8522L82.4094 13.7611L76.7785 17.8522L78.9293 11.2327L73.2985 7.14168H80.2586L82.4094 0.522217Z" fill="#4459C4"/>
<path d="M106.569 0.522217L108.72 7.14168H115.68L110.049 11.2327L112.2 17.8522L106.569 13.7611L100.938 17.8522L103.089 11.2327L97.4581 7.14168H104.418L106.569 0.522217Z" fill="#4459C4"/>
</svg>
