<svg width="131" height="32" viewBox="0 0 131 32" fill="none" xmlns="http://www.w3.org/2000/svg">
<path d="M43.7473 11.0698H38.75V8.125H52.3587V11.0698H47.3614V23.7416H43.7473V11.0698Z" fill="white"/>
<path d="M66.395 20.8413V23.7416H54.3033V8.125H66.105V11.0252H57.8951V14.4162H65.1456V17.2272H57.8951V20.8413H66.395Z" fill="white"/>
<path d="M81.92 20.7967V23.7416H68.2667V21.3991L76.8335 11.0698H68.4452V8.125H81.5854V10.4675L73.0409 20.7967H81.92Z" fill="white"/>
<path d="M94.1879 23.7416L91.1762 19.3912H90.9977H87.8521V23.7416H84.2379V8.125H90.9977C92.3809 8.125 93.5781 8.35553 94.5895 8.81659C95.6157 9.27765 96.404 9.93206 96.9543 10.7798C97.5046 11.6276 97.7797 12.6315 97.7797 13.7916C97.7797 14.9517 97.4971 15.9556 96.932 16.8033C96.3817 17.6362 95.5934 18.2758 94.5672 18.722L98.0698 23.7416H94.1879ZM94.121 13.7916C94.121 12.9141 93.8384 12.2448 93.2732 11.7837C92.7081 11.3078 91.8826 11.0698 90.7969 11.0698H87.8521V16.5133H90.7969C91.8826 16.5133 92.7081 16.2754 93.2732 15.7994C93.8384 15.3235 94.121 14.6542 94.121 13.7916Z" fill="white"/>
<path d="M112.735 20.8413V23.7416H100.643V8.125H112.445V11.0252H104.235V14.4162H111.486V17.2272H104.235V20.8413H112.735Z" fill="white"/>
<path d="M121.299 17.6065L119.202 19.7928V23.7416H115.61V8.125H119.202V15.4202L126.118 8.125H130.134L123.664 15.0855L130.513 23.7416H126.297L121.299 17.6065Z" fill="white"/>
<path fill-rule="evenodd" clip-rule="evenodd" d="M4.63643 0.303467H26.5686C28.9911 0.303467 30.955 2.28621 30.955 4.73204V26.8749C30.955 29.3207 28.9911 31.3035 26.5686 31.3035H4.63643C2.21387 31.3035 0.25 29.3207 0.25 26.8749V4.73204C0.25 2.28621 2.21387 0.303467 4.63643 0.303467Z" fill="#DC1E52"/>
<path d="M10.7529 4.24951C10.7806 5.90728 10.8193 9.32229 10.7529 9.72014H24.5124V11.0171C24.5124 11.4144 24.3941 11.8027 24.1725 12.1325L17.384 22.2363H24.5124C24.5124 24.4566 22.7126 26.2564 20.4923 26.2564H9.84116L18.0886 13.6159H10.7529V20.9101L7.81039 24.8473C7.10137 24.2565 6.69141 23.3813 6.69141 22.4584V5.8244C6.69141 4.95461 7.39651 4.24951 8.2663 4.24951H10.7529Z" fill="white"/>
</svg>
