<svg width="25" height="25" viewBox="0 0 25 25" fill="none" xmlns="http://www.w3.org/2000/svg">
    <circle cx="12.5" cy="12.5" r="12.5" fill="#e65a57"/>
    <path d="M8 16.2529V11.7564H6.875C6.25368 11.7564 5.75 12.2597 5.75 12.8806V15.1288C5.75 15.7496 6.25368 16.2529 6.875 16.2529H8ZM13.936 18.5012H15.5439C16.0281 18.5012 16.458 18.1916 16.6111 17.7325L16.7821 17.2201C16.8074 17.1441 16.8388 17.0714 16.8756 17.0023H16.625C16.4179 17.0023 16.25 16.8346 16.25 16.6276V11.3817C16.25 11.1748 16.4179 11.007 16.625 11.007H17V10.2459C17 7.76256 14.9853 5.74942 12.5 5.74942C10.0147 5.74942 8 7.76256 8 10.2459V11.007H8.375C8.58211 11.007 8.75 11.1748 8.75 11.3817V16.6276C8.75 16.8346 8.58211 17.0023 8.375 17.0023H6.875C5.83947 17.0023 5 16.1635 5 15.1288V12.8806C5 11.8458 5.83947 11.007 6.875 11.007H7.25V10.2459C7.25 7.34867 9.60051 5 12.5 5C15.3995 5 17.75 7.34867 17.75 10.2459V11.007H18.125C19.1605 11.007 20 11.8458 20 12.8806V15.1288C20 16.1635 19.1605 17.0023 18.125 17.0023C17.8385 17.0023 17.5842 17.1855 17.4936 17.4571L17.3226 17.9695C17.0674 18.7346 16.3509 19.2506 15.5439 19.2506H13.936C13.7815 19.6872 13.3648 20 12.875 20H12.125C11.5037 20 11 19.4967 11 18.8759C11 18.255 11.5037 17.7518 12.125 17.7518H12.875C13.3648 17.7518 13.7815 18.0646 13.936 18.5012ZM17 11.7564V16.2529H18.125C18.7463 16.2529 19.25 15.7496 19.25 15.1288V12.8806C19.25 12.2597 18.7463 11.7564 18.125 11.7564H17ZM11.75 18.8759C11.75 19.0828 11.9179 19.2506 12.125 19.2506H12.875C13.0821 19.2506 13.25 19.0828 13.25 18.8759C13.25 18.6689 13.0821 18.5012 12.875 18.5012H12.125C11.9179 18.5012 11.75 18.6689 11.75 18.8759Z" fill="white"/>
</svg>
