<svg width="13" height="14" viewBox="0 0 13 14" fill="none" xmlns="http://www.w3.org/2000/svg">
    <path fill-rule="evenodd" clip-rule="evenodd" d="M0.0653227 13.168C0.0119171 13.3626 0.188477 13.5422 0.383026 13.4912L3.39044 12.7026C4.33977 13.2188 5.40857 13.4931 6.49679 13.4931H6.5C10.0809 13.4931 13 10.5796 13 6.99818C13 5.26233 12.3251 3.6297 11.0981 2.4036C9.87109 1.17756 8.24041 0.5 6.49994 0.5C2.91905 0.5 4.14025e-07 3.41352 4.14025e-07 6.99497C-0.000406509 8.13431 0.29915 9.2537 0.868597 10.2408L0.0653227 13.168ZM4.43988 3.88783C4.5593 3.89104 4.6917 3.89753 4.81768 4.17825C4.90121 4.36513 5.04193 4.70916 5.15656 4.98941C5.24576 5.20749 5.31916 5.38695 5.33753 5.42368C5.3795 5.50756 5.40533 5.60434 5.35044 5.71725C5.34397 5.73057 5.33786 5.7433 5.33197 5.75557C5.28794 5.84731 5.2566 5.9126 5.18256 5.99797C5.15211 6.03306 5.12039 6.07153 5.08879 6.10987C5.03322 6.17729 4.978 6.24427 4.93067 6.2916C4.84673 6.37542 4.75951 6.46584 4.85638 6.6336C4.95329 6.80135 5.29234 7.3531 5.79284 7.79836C6.33091 8.27928 6.79881 8.48195 7.03533 8.5844C7.08125 8.60429 7.11845 8.62041 7.14574 8.63404C7.31368 8.71792 7.41376 8.70501 7.51062 8.5921C7.60754 8.47914 7.9304 8.10163 8.04345 7.93387C8.15323 7.76612 8.26622 7.79194 8.42125 7.85C8.57621 7.90806 9.40284 8.3146 9.57073 8.39847C9.60391 8.41506 9.63496 8.43001 9.66373 8.44386C9.78055 8.5001 9.85996 8.53833 9.89363 8.59532C9.93561 8.66628 9.93561 9.00185 9.79677 9.39548C9.65472 9.78911 8.97015 10.1666 8.66016 10.1957C8.63081 10.1984 8.6016 10.202 8.57154 10.2056C8.28747 10.2401 7.92684 10.2839 6.64203 9.7762C5.05887 9.15119 4.01381 7.60049 3.80252 7.28698C3.78584 7.26223 3.77436 7.24519 3.76822 7.23692L3.76465 7.23212C3.66852 7.10299 3.08043 6.313 3.08043 5.49792C3.08043 4.71808 3.46308 4.31208 3.63762 4.1269C3.64868 4.11516 3.6589 4.10431 3.66814 4.09431C3.82311 3.92656 4.00397 3.88462 4.11697 3.88462C4.23002 3.88462 4.34301 3.88462 4.43988 3.88783Z" fill="#e65a57"/>
</svg>
