<svg width="13" height="11" viewBox="0 0 13 11" fill="none" xmlns="http://www.w3.org/2000/svg">
    <path d="M3.15876 0.640039C5.38206 0.45332 7.61794 0.45332 9.84124 0.640039L10.9124 0.729998C11.6255 0.789884 12.2362 1.2008 12.5526 1.78858C12.5931 1.86378 12.5628 1.95482 12.4882 1.99943L8.04394 4.65741C7.09078 5.22747 5.88891 5.23943 4.9238 4.68846L0.449859 2.13434C0.377578 2.09308 0.3444 2.00814 0.376975 1.93338C0.666467 1.26899 1.31731 0.794689 2.0876 0.729998L3.15876 0.640039Z" fill="#e65a57"/>
    <path d="M0.373334 3.28455C0.262714 3.2214 0.121567 3.28936 0.108673 3.41287C-0.0712935 5.13667 -0.0277366 6.8768 0.239343 8.5927C0.380143 9.49729 1.14431 10.1908 2.0876 10.27L3.15876 10.36C5.38206 10.5467 7.61794 10.5467 9.84124 10.36L10.9124 10.27C11.8557 10.1908 12.6199 9.49729 12.7607 8.5927C13.0355 6.82679 13.0736 5.03523 12.875 3.26221C12.8611 3.13783 12.7175 3.07112 12.6074 3.13697L8.60393 5.53136C7.31436 6.30262 5.6883 6.3188 4.38256 5.57337L0.373334 3.28455Z" fill="#e65a57"/>
</svg>
