<svg width="17" height="16" viewBox="0 0 17 16" fill="none" xmlns="http://www.w3.org/2000/svg">
    <path opacity="0.4" d="M9.74824 3.65976C9.43088 3.60113 9.13942 3.80366 9.079 4.11345C9.01858 4.42323 9.22174 4.72569 9.53047 4.78632C10.46 4.96753 11.1777 5.68703 11.3596 6.61972V6.62039C11.4114 6.88887 11.6478 7.08407 11.92 7.08407C11.9565 7.08407 11.993 7.08074 12.0302 7.07408C12.3389 7.01212 12.5421 6.71033 12.4817 6.39988C12.2101 5.00683 11.1379 3.93091 9.74824 3.65976Z" fill="#e65a57"/>
    <path opacity="0.4" d="M9.70794 1.33854C9.55921 1.31722 9.40983 1.36119 9.29099 1.45579C9.16882 1.55173 9.09247 1.6903 9.07587 1.84552C9.04068 2.15931 9.26708 2.44311 9.58046 2.47842C11.7416 2.71959 13.4213 4.4031 13.6643 6.57095C13.6969 6.86141 13.9405 7.0806 14.2313 7.0806C14.2532 7.0806 14.2745 7.07926 14.2964 7.0766C14.4484 7.05994 14.5839 6.98466 14.6795 6.86474C14.7744 6.74483 14.8176 6.59559 14.8003 6.44303C14.4976 3.73822 12.4042 1.639 9.70794 1.33854Z" fill="#e65a57"/>
    <path d="M11.8738 9.78213C11.4416 9.69019 11.0997 9.89005 10.7969 10.0646C10.4869 10.2445 9.89662 10.7208 9.55935 10.5982C7.82913 9.88939 6.20183 8.38042 5.4974 6.65095C5.37324 6.30652 5.84928 5.71559 6.02788 5.4038C6.20249 5.10134 6.39902 4.75691 6.30939 4.32388C6.22839 3.93414 5.1807 2.60639 4.81022 2.24331C4.56523 2.00347 4.31559 1.87156 4.05865 1.84958C3.09262 1.80894 2.01373 3.09272 1.82451 3.39985C1.3498 4.05473 1.35312 4.92613 1.83248 5.98274C2.98772 8.82079 7.35708 13.1038 10.2173 14.2977C10.7445 14.5435 11.2278 14.6668 11.6614 14.6668C12.0856 14.6668 12.4634 14.5489 12.7881 14.315C13.0324 14.1744 14.3749 13.0466 14.339 12.0586C14.3184 11.8067 14.1863 11.5549 13.9486 11.3111C13.5861 10.9387 12.2622 9.86407 11.8738 9.78213Z" fill="#e65a57"/>
</svg>
